<svg xmlns="http://www.w3.org/2000/svg" viewBox="0 0 350 349.2287243064009">
  <path fill="#000000" d="M62.717,22.237c-1.157,0-2.157,0.38-2.947,1.022l0.061-9.6c0-2.855-2.401-5.179-5.353-5.179  c-1.48,0-2.821,0.586-3.79,1.529C50.034,7.862,48,6.28,45.57,6.28c-2.955,0-5.359,2.324-5.359,5.18l0.001,1.902  c-0.944-0.827-2.179-1.345-3.546-1.345c-2.935,0-5.322,2.323-5.322,5.173l-0.127,21.724c-2.15-0.973-4.943-0.098-6.245,0.726  c-2.438,1.539-2.568,5.143-1.722,15.19c0.579,6.886,1.263,11.312,2.146,13.861c0.008,0.038,0.019,0.077,0.032,0.115  c3.178,9.227,11.097,14.959,20.667,14.959c12.196,0,21.749-9.708,21.749-22.096l0.193-34.253  C68.037,24.561,65.65,22.237,62.717,22.237z M66.029,61.665c0,11.375-8.757,20.286-19.935,20.286  c-8.665,0-15.856-5.136-18.842-13.427c-0.01-0.053-0.024-0.104-0.043-0.155c-0.865-2.3-1.569-6.778-2.15-13.691  c-0.793-9.42-0.587-12.575,0.882-13.503c1.05-0.664,3.258-1.301,4.661-0.562c0.846,0.445,1.303,1.392,1.357,2.813  c0.202,5.252,0.002,10.274,0,10.324c-0.01,0.255,0.088,0.503,0.27,0.683c0.181,0.179,0.432,0.279,0.686,0.261  c0.167-0.01,1.562-0.066,3.391,0.24c0.169,0.094,0.359,0.13,0.555,0.104c3.772,0.759,8.941,3.11,9.404,10.278v1.925  c0,0.005-0.003,0.01-0.003,0.015v2.497c0,0.385,0.242,0.728,0.605,0.855c0.099,0.035,0.2,0.052,0.302,0.052  c0.269,0,0.53-0.12,0.706-0.338c0.269-0.332,6.591-8.18,8.966-12.021c0.101-0.139,2.466-3.433,2.395-6.264  c-0.091-3.584-2.909-6.392-6.416-6.392c-1.714,0-3.325,0.667-4.536,1.879c-0.379,0.379-0.705,0.797-0.974,1.245  c-1.122-1.87-3.17-3.124-5.505-3.124c-3.538,0-6.416,2.878-6.416,6.416c0,0.329,0.033,0.646,0.083,0.958  c-0.656-0.079-1.228-0.117-1.668-0.134c0.048-1.718,0.122-5.558-0.03-9.529c-0.048-1.241-0.347-2.15-0.751-2.831l0.137-23.33  c0-1.854,1.573-3.363,3.507-3.363c1.935,0,3.508,1.509,3.508,3.363c0,0.071,0.025,0.134,0.041,0.201l0.016,23.346  c0,0.501,0.407,0.907,0.908,0.907h0c0.501,0,0.907-0.407,0.907-0.908l-0.02-29.283c0-1.855,1.589-3.364,3.543-3.364  c1.954,0,3.542,1.509,3.542,3.371l0.016,2.041c0,0.018,0.009,0.032,0.011,0.049c-0.001,0.033-0.011,0.064-0.011,0.098l-0.172,26.465  c-0.004,0.501,0.4,0.91,0.901,0.913c0.518-0.032,0.91-0.4,0.913-0.901l0.172-26.471c0-1.855,1.586-3.364,3.535-3.364  c1.951,0,3.538,1.509,3.538,3.358l-0.184,28.933c-0.003,0.501,0.4,0.91,0.901,0.913c0.002,0,0.004,0,0.006,0  c0.499,0,0.904-0.402,0.907-0.901l0.096-15.012c0.011-0.057,0.034-0.11,0.034-0.171c0-1.552,0.771-3.363,2.94-3.363  c1.933,0,3.506,1.509,3.506,3.359L66.029,61.665z M37.204,52.061c0-2.537,2.064-4.601,4.601-4.601c1.229,0,2.384,0.479,3.253,1.348  c0.869,0.869,1.347,2.024,1.347,3.253h0.001c0,0.501,0.406,0.907,0.907,0.907s0.907-0.406,0.907-0.907c0-0.024,0-0.049,0-0.073  c0.039-2.503,2.087-4.527,4.6-4.527c2.515,0,4.536,2.031,4.602,4.623c0.046,1.837-1.464,4.342-2.086,5.207  c-1.616,2.611-5.17,7.211-7.256,9.859l-0.002-1.893c-0.526-8.172-6.353-10.962-10.65-11.906  C37.292,52.928,37.205,52.519,37.204,52.061z"/>
</svg>
