<svg id="mortarboard_1_" data-name="mortarboard (1)" xmlns="http://www.w3.org/2000/svg" width="44.403" height="38.829" viewBox="0 0 44.403 38.829">
  <path id="Path_1828" data-name="Path 1828" d="M423.122,194.423V180.612l-2.6.867v12.944a4.094,4.094,0,0,0-2.787,3.874v6.967a1.3,1.3,0,0,0,1.3,1.3h5.573a1.3,1.3,0,0,0,1.3-1.3V198.3A4.094,4.094,0,0,0,423.122,194.423Z" transform="translate(-381.506 -167.735)" fill="#91c8df"/>
  <path id="Path_1829" data-name="Path 1829" d="M109.008,206.236l-12.608-4.2v8.86a1.3,1.3,0,0,0,.381.92,19.035,19.035,0,0,0,26.92,0,1.3,1.3,0,0,0,.381-.92v-8.86l-12.607,4.2A3.9,3.9,0,0,1,109.008,206.236Z" transform="translate(-88.04 -187.3)" fill="#91c8df"/>
  <path id="Path_1830" data-name="Path 1830" d="M22.2,48.67a1.3,1.3,0,0,0,.411-.067l20.9-6.967a1.3,1.3,0,0,0,0-2.468L22.613,32.2a1.3,1.3,0,0,0-.823,0L.89,39.169a1.3,1.3,0,0,0,0,2.468L21.79,48.6a1.3,1.3,0,0,0,.411.067Z" transform="translate(0 -32.135)" fill="#91c8df"/>
</svg>
