<svg xmlns="http://www.w3.org/2000/svg" width="60.198" height="25.549" viewBox="0 0 60.198 25.549">
  <g id="icon-bip-new" transform="translate(0 -0.01)">
    <path id="Path_1786" data-name="Path 1786" d="M60.17,12.31a7.94,7.94,0,0,0-11.71-6A7.44,7.44,0,0,0,44.53,13c-.05,3.53,0,7.07,0,10.59v.2a1.88,1.88,0,0,0,3.68.42,2,2,0,0,0,.06-.6v-4a.2.2,0,0,1,.21,0,7.94,7.94,0,0,0,5.44.89,7.67,7.67,0,0,0,6.25-8.19ZM52.27,17h-.05a4,4,0,1,1,3.94-4h0a3.92,3.92,0,0,1-3.89,4Z" fill="#c0181c"/>
    <path id="Path_1787" data-name="Path 1787" d="M27.39,5.38a7.31,7.31,0,0,0-3.83.92.58.58,0,0,1-.35.15V1.85a1.87,1.87,0,0,0-3.73,0v11.3a6.46,6.46,0,0,0,.16,1.4A7.66,7.66,0,1,0,32.83,7.92,7.39,7.39,0,0,0,27.39,5.38ZM31.07,13a3.94,3.94,0,0,1-4,3.92h0a4,4,0,1,1,4-3.94Z" fill="#c0181c"/>
    <path id="Path_1788" data-name="Path 1788" d="M13.7,5.37H0c4.67,4.74,9.28,9.42,13.94,14.18V5.6C13.93,5.37,13.93,5.37,13.7,5.37Z" fill="#c0181c"/>
    <path id="Path_1789" data-name="Path 1789" d="M41.58,17.22a1.64,1.64,0,0,1-.76-.93,3.37,3.37,0,0,1-.1-.34,9.09,9.09,0,0,1-.24-2.33V7.16a2,2,0,0,0,0-.49,1.87,1.87,0,0,0-3.7.45v4h0v2.7a14.18,14.18,0,0,0,.17,2.34,6.79,6.79,0,0,0,1,2.78,4.8,4.8,0,0,0,1.85,1.64,1.85,1.85,0,0,0,2.07-.26,1.81,1.81,0,0,0,.57-2A1.72,1.72,0,0,0,41.58,17.22Z" fill="#c0181c"/>
    <path id="Path_1790" data-name="Path 1790" d="M38.61,4.13h0a2.06,2.06,0,1,0-2.06-2.07,2.06,2.06,0,0,0,2.06,2.07Z" fill="#c0181c"/>
  </g>
</svg>
