<svg id="contact-us" xmlns="http://www.w3.org/2000/svg" width="39.228" height="36.32" viewBox="0 0 39.228 36.32">
  <path id="contact-us-2" data-name="contact-us" d="M31.439,40.923H54.8l-13.873,9.51-9.436-6.469a4.156,4.156,0,0,0-.048-3.041Zm-6.109,5.52,3.4-2.073a2.182,2.182,0,0,0,.754-2.952l-3.074-5.324a2.18,2.18,0,0,0-3.124-.706l-5.605,3.859C15.018,48.649,27.008,69,36.2,71.32L42.348,68.4a2.18,2.18,0,0,0,.951-3.058l-3.074-5.323a2.182,2.182,0,0,0-2.934-.823l-3.5,1.912c-3.459-3.076-7.53-10.127-8.464-14.66Zm31.161-4.3L41.478,52.439a.984.984,0,0,1-1.129-.014l-9.968-6.833a4.15,4.15,0,0,1-.62.462l-2.153,1.311a33.894,33.894,0,0,0,6.527,11.3l2.212-1.209a4.156,4.156,0,0,1,5.588,1.567l1.906,3.3h11.1a1.6,1.6,0,0,0,1.594-1.594V42.517a1.582,1.582,0,0,0-.044-.371Z" transform="translate(-17.308 -35)" fill="#184773" fill-rule="evenodd"/>
</svg>
