<svg id="email" xmlns="http://www.w3.org/2000/svg" width="20.179" height="13.873" viewBox="0 0 20.179 13.873">
  <g id="Group_3" data-name="Group 3" transform="translate(13.376 2.558)">
    <g id="Group_2" data-name="Group 2">
      <path id="Path_6" data-name="Path 6" d="M339.392,149.378l6.8,4.3V144.9Z" transform="translate(-339.392 -144.896)" fill="#91c8df"/>
    </g>
  </g>
  <g id="Group_5" data-name="Group 5" transform="translate(0 2.558)">
    <g id="Group_4" data-name="Group 4">
      <path id="Path_7" data-name="Path 7" d="M0,144.9v8.783l6.8-4.3Z" transform="translate(0 -144.896)" fill="#91c8df"/>
    </g>
  </g>
  <g id="Group_7" data-name="Group 7" transform="translate(0.038 0)">
    <g id="Group_6" data-name="Group 6">
      <path id="Path_8" data-name="Path 8" d="M19.84,80H2.183A1.246,1.246,0,0,0,.96,81.073L11.012,87.7l10.052-6.623A1.246,1.246,0,0,0,19.84,80Z" transform="translate(-0.96 -80)" fill="#91c8df"/>
    </g>
  </g>
  <g id="Group_9" data-name="Group 9" transform="translate(0.04 7.801)">
    <g id="Group_8" data-name="Group 8">
      <path id="Path_9" data-name="Path 9" d="M13.2,277.921,11.42,279.1a.633.633,0,0,1-.694,0L8.942,277.92l-7.918,5.008a1.244,1.244,0,0,0,1.221,1.064H19.9a1.244,1.244,0,0,0,1.221-1.064Z" transform="translate(-1.024 -277.92)" fill="#91c8df"/>
    </g>
  </g>
</svg>
