<svg xmlns="http://www.w3.org/2000/svg" width="21.085" height="21.085" viewBox="0 0 21.085 21.085">
  <path id="Icon_awesome-fax" data-name="Icon awesome-fax" d="M2.636,5.271H1.318A1.318,1.318,0,0,0,0,6.589V19.768a1.318,1.318,0,0,0,1.318,1.318H2.636a1.318,1.318,0,0,0,1.318-1.318V6.589A1.318,1.318,0,0,0,2.636,5.271ZM19.768,6.589V3.181a1.319,1.319,0,0,0-.386-.932L17.518.386A1.318,1.318,0,0,0,16.586,0h-10A1.318,1.318,0,0,0,5.271,1.318v18.45a1.318,1.318,0,0,0,1.318,1.318H19.768a1.318,1.318,0,0,0,1.318-1.318V7.907A1.318,1.318,0,0,0,19.768,6.589Zm-7.907,11.2a.659.659,0,0,1-.659.659H9.884a.659.659,0,0,1-.659-.659V16.473a.659.659,0,0,1,.659-.659H11.2a.659.659,0,0,1,.659.659Zm0-5.271a.659.659,0,0,1-.659.659H9.884a.659.659,0,0,1-.659-.659V11.2a.659.659,0,0,1,.659-.659H11.2a.659.659,0,0,1,.659.659Zm5.271,5.271a.659.659,0,0,1-.659.659H15.155a.659.659,0,0,1-.659-.659V16.473a.659.659,0,0,1,.659-.659h1.318a.659.659,0,0,1,.659.659Zm0-5.271a.659.659,0,0,1-.659.659H15.155a.659.659,0,0,1-.659-.659V11.2a.659.659,0,0,1,.659-.659h1.318a.659.659,0,0,1,.659.659Zm.659-4.612H7.248V1.977h8.566V3.295a.659.659,0,0,0,.659.659h1.318Z" fill="#91c8df"/>
</svg>
