<svg id="reading-book" xmlns="http://www.w3.org/2000/svg" width="32.792" height="39.045" viewBox="0 0 32.792 39.045">
  <circle id="Ellipse_22" data-name="Ellipse 22" cx="6.477" cy="6.477" r="6.477" transform="translate(9.87)" fill="#184773"/>
  <path id="Path_1823" data-name="Path 1823" d="M152.834,181.515a8.752,8.752,0,0,1-9.526,0,13.333,13.333,0,0,0-4.147,2.533l8.91,3.341,8.91-3.341a13.332,13.332,0,0,0-4.147-2.533Z" transform="translate(-131.675 -167.673)" fill="#184773"/>
  <path id="Path_1824" data-name="Path 1824" d="M412.906,310h-.763A1.144,1.144,0,0,0,411,311.144v3.05a1.144,1.144,0,0,0,1.144,1.144h.763a2.669,2.669,0,1,0,0-5.338Z" transform="translate(-382.784 -286.359)" fill="#184773"/>
  <path id="Path_1825" data-name="Path 1825" d="M81.492,231.807a1.144,1.144,0,0,0-.492.94v2.547h.381a3.436,3.436,0,0,1,3.432,3.432v3.05a3.436,3.436,0,0,1-3.432,3.432H81v2.41a1.144,1.144,0,0,0,.742,1.071l11.459,4.3V235.673l-10.656-4A1.143,1.143,0,0,0,81.492,231.807Z" transform="translate(-77.95 -213.942)" fill="#184773"/>
  <path id="Path_1826" data-name="Path 1826" d="M279.389,241.777v-3.05a3.436,3.436,0,0,1,3.432-3.432h.381v-2.547a1.144,1.144,0,0,0-1.546-1.071l-10.656,4v17.314l11.459-4.3a1.144,1.144,0,0,0,.742-1.071v-2.41h-.381A3.436,3.436,0,0,1,279.389,241.777Z" transform="translate(-253.46 -213.942)" fill="#184773"/>
  <path id="Path_1827" data-name="Path 1827" d="M45.576,314.194v-3.05A1.144,1.144,0,0,0,44.432,310h-.763a2.669,2.669,0,0,0,0,5.338h.763A1.144,1.144,0,0,0,45.576,314.194Z" transform="translate(-41 -286.359)" fill="#184773"/>
</svg>
