<?xml version="1.0" encoding="UTF-8"?>
<!DOCTYPE svg PUBLIC "-//W3C//DTD SVG 1.1//EN" "http://www.w3.org/Graphics/SVG/1.1/DTD/svg11.dtd">
<!-- Creator: CorelDRAW 2018 (64-Bit) -->
<svg xmlns="http://www.w3.org/2000/svg" xml:space="preserve" width="210mm" height="297mm" version="1.1" style="shape-rendering:geometricPrecision; text-rendering:geometricPrecision; image-rendering:optimizeQuality; fill-rule:evenodd; clip-rule:evenodd"
viewBox="0 0 21000 29700"
 xmlns:xlink="http://www.w3.org/1999/xlink">
 <defs>
  <style type="text/css">
   <![CDATA[
    .fil1 {fill:#FEFEFE;fill-rule:nonzero}
    .fil0 {fill:#064169;fill-rule:nonzero}
   ]]>
  </style>
 </defs>
 <g id="Warstwa_x0020_1">
  <metadata id="CorelCorpID_0Corel-Layer"/>
  <path class="fil0" d="M12629.9 5360.92c0,-1176.78 -953.97,-2130.75 -2130.75,-2130.75 -23.34,0 -46.42,1.01 -69.57,1.75 -21.43,-0.48 -42.22,-1.75 -64.03,-1.75 -907.77,0 -1890.96,691.66 -2928.48,1474.65l-859.89 672.96c0.17,0.12 0.34,0.25 0.51,0.37 -5.37,4 -10.84,7.93 -16.23,11.92l-28.08 21.98 -0.67 -0.86c-619.7,456.59 -1303.34,873.09 -1788.03,997.39 -19.8,7.09 -40.6,12.64 -62.49,16.37 -23.34,3.97 -44.8,7.02 -67.09,10.47 0.02,0 0.04,0 0.07,-0.01 -13.14,2 -26.8,4.73 -39.55,6.17 -291.6,42.49 -493.91,41.02 -666.81,31.21 -796.57,-45.17 -1510.9,-512.39 -1510.9,-1110.17 0,-87.38 17.41,-167.5 46.79,-241.99 162.38,-476.76 784.47,-827.26 1468.59,-866.05 193.35,-10.96 422.57,-11.96 773.39,47.83 4.53,0.78 8.49,2.46 12.93,3.38 -0.79,-0.16 -1.53,-0.21 -2.32,-0.38 495.59,102.05 1146.94,533.77 1796.53,1011.01l859.55 -672.69c-1007.54,-757.4 -1963.17,-1413.56 -2847.15,-1413.56 -21.8,0 -42.59,1.27 -64.02,1.75 -23.15,-0.74 -46.24,-1.75 -69.57,-1.75 -1176.79,0 -2130.76,953.97 -2130.76,2130.75 0,10.26 0.63,20.36 0.77,30.59 -0.15,5.11 -0.77,10.11 -0.77,15.26 0,13.33 1.42,26.28 1.63,39.56l0.43 20.28c0.03,11.75 1.05,23.23 1.84,34.79 0.18,4.58 1.41,9.25 2.27,13.88 78.88,1100.21 992.53,1969.15 2111.25,1976.05 71.68,4.93 144.77,8.36 221.02,8.36 866.5,0 1832.96,-676.42 2855.58,-1449.77 0.92,0.69 1.82,1.37 2.74,2.06l858.3 -671.73c-0.94,-0.7 -1.9,-1.39 -2.84,-2.1 677.08,-501.32 1363.47,-966.29 1880.4,-1072.74 -0.8,0.17 -1.53,0.22 -2.33,0.38 4.44,-0.92 8.4,-2.6 12.94,-3.38 350.81,-59.79 580.04,-58.79 773.39,-47.83 684.12,38.79 1306.21,389.29 1468.58,866.05 29.38,74.49 46.8,154.61 46.8,241.99 0,597.78 -714.34,1065 -1510.9,1110.17 -172.91,9.81 -375.21,11.28 -666.82,-31.21 -12.74,-1.44 -26.4,-4.17 -39.54,-6.17 0.02,0.01 0.04,0.01 0.06,0.01 -22.29,-3.45 -43.74,-6.5 -67.09,-10.47 -21.89,-3.73 -42.68,-9.28 -62.48,-16.37 -473.94,-121.54 -1138.12,-522.44 -1746.72,-967.04l-859.27 672.48c991.03,746.1 1928.01,1385.67 2770.36,1385.67 76.25,0 149.33,-3.43 221.02,-8.36 1118.71,-6.9 2032.37,-875.84 2111.24,-1976.05 0.86,-4.63 2.1,-9.3 2.28,-13.88 0.79,-11.56 1.81,-23.04 1.84,-34.79l0.42 -20.28c0.22,-13.28 1.63,-26.23 1.63,-39.56 0,-5.15 -0.61,-10.15 -0.77,-15.26 0.15,-10.23 0.77,-20.33 0.77,-30.59z"/>
  <g id="_2219132278768">
   <polygon class="fil1" points="8561.43,5889.16 8294.98,6315.73 8215.74,6266.24 8440.71,5906.09 8350.52,5849.76 8391.99,5783.34 "/>
   <path class="fil1" d="M8901.8 6169.54c9.44,56.72 -7.13,119.24 -49.75,187.48 -29.93,47.92 -64.32,83.39 -102.9,106.42 -38.65,23.01 -79.27,33.51 -121.75,31.52 -42.58,-1.99 -84.54,-15.93 -125.99,-41.82 -21.94,-13.69 -41.1,-28.91 -57.46,-45.65 -16.37,-16.71 -28.9,-33.98 -37.52,-51.79l66.56 -41.46c12.47,27 35.21,50.81 68.11,71.34 41,25.63 80.96,33.07 119.86,22.36 38.89,-10.71 73.2,-39.86 102.9,-87.38l0.38 -0.61c-21.77,6.76 -44.72,7.79 -68.9,3.14 -24.22,-4.65 -48.51,-14.61 -72.87,-29.84 -28.04,-17.51 -49.85,-38.62 -65.45,-63.35 -15.64,-24.7 -23.53,-50.96 -23.71,-78.72 -0.13,-27.77 7.89,-54.68 24.16,-80.65 17.22,-27.63 39.27,-47.61 66.17,-59.91 26.88,-12.3 55.68,-16.75 86.3,-13.42 30.67,3.32 60.64,14.14 89.92,32.4 58.5,36.55 92.47,83.18 101.94,139.94zm-149.86 89.37l0 0c24.67,-3.79 43.58,-16.26 56.77,-37.38 12.92,-20.74 15.89,-42.74 8.72,-66.12 -7.16,-23.39 -24.53,-43.71 -52.16,-60.97 -24.8,-15.49 -48.99,-21.43 -72.69,-17.88 -23.7,3.54 -42.37,16.32 -56.09,38.25 -13.95,22.34 -17.29,44.84 -9.92,67.49 7.31,22.62 23.95,42.05 49.96,58.31 25.59,15.99 50.71,22.08 75.41,18.3z"/>
   <path class="fil1" d="M9121.7 6738.89l-41.86 67.04 -314.43 -196.38 33.14 -53.01 269.89 -55.05c30.45,-6.35 53.33,-14.24 68.56,-23.66 15.19,-9.44 26.97,-20.86 35.34,-34.27 12.44,-19.89 15.27,-39.31 8.48,-58.25 -6.82,-18.93 -23.22,-36.52 -49.23,-52.75 -43.48,-27.18 -86.06,-33.14 -127.71,-17.95l-28.8 -77.27c30.59,-11.96 63.87,-15.31 99.84,-10.06 36,5.24 71.45,18.74 106.38,40.58 46.31,28.94 76.42,62.98 90.37,102.2 13.88,39.19 9.06,77.67 -14.54,115.46 -14.47,23.16 -32.9,41.83 -55.33,56.07 -22.46,14.21 -55.64,25.69 -99.46,34.44l-181.69 37.3 201.05 125.56z"/>
   <polygon class="fil1" points="9563.26,6973.19 9487.71,6925.99 9427.18,7022.9 9350.42,6974.94 9410.95,6878.03 9176.93,6731.85 9211.17,6677.04 9593.06,6533.53 9677.77,6586.43 9315.69,6725.38 9455.22,6812.54 9508.9,6726.58 9583.24,6773.02 9529.57,6858.98 9605.12,6906.18 "/>
  </g>
  <polygon class="fil1" points="5049.15,6580.38 4932.65,7169.61 4753.14,7206.91 4411.51,6712.86 4608.06,6672.04 4803.05,6961.66 4869.6,6617.67 "/>
  <polygon class="fil1" points="5069.25,6574.17 5243.09,6506.54 5443.69,7022.11 5269.89,7089.73 "/>
  <polygon class="fil1" points="5315.12,6473.66 5482.14,6390.66 5728.33,6886.09 5561.27,6969.09 "/>
  <polygon class="fil1" points="5556.73,6350.18 5718.54,6257.41 5993.74,6737.3 5831.92,6830.11 "/>
  <polygon class="fil1" points="5995.84,6085.17 6150.01,5980.21 6379.97,6317.97 6586.4,6177.43 6667.8,6296.99 6307.17,6542.49 "/>
  <path class="fil1" d="M6797.93 6172.23c-52.92,7.97 -103.18,2.13 -150.83,-17.52 -47.68,-19.67 -87.81,-51.83 -120.47,-96.5 -32.63,-44.66 -51.1,-92.69 -55.37,-144.07 -4.24,-51.37 5.44,-101.05 29.11,-149.02 23.7,-47.97 59.57,-89.52 107.63,-124.66 48.06,-35.12 98.56,-56.69 151.44,-64.68 52.92,-7.98 103.19,-2.14 150.83,17.52 47.68,19.67 87.81,51.83 120.44,96.49 32.66,44.67 51.13,92.69 55.36,144.06 4.28,51.38 -5.4,101.06 -29.11,149.04 -23.66,47.97 -59.53,89.52 -107.59,124.66 -48.09,35.14 -98.56,56.68 -151.44,64.68zm103.07 -237.35l0 0c8.41,-20.17 10.96,-41.95 7.58,-65.29 -3.34,-23.32 -13.23,-46.25 -29.73,-68.81 -16.46,-22.53 -35.31,-38.95 -56.53,-49.23 -21.19,-10.27 -42.72,-14.46 -64.49,-12.58 -21.78,1.91 -42.03,9.68 -60.78,23.36 -18.7,13.69 -32.28,30.63 -40.68,50.8 -8.41,20.18 -10.96,41.94 -7.62,65.27 3.38,23.34 13.27,46.28 29.74,68.81 16.5,22.57 35.34,38.96 56.56,49.23 21.19,10.29 42.69,14.47 64.49,12.58 21.78,-1.88 42.03,-9.67 60.74,-23.36 18.71,-13.68 32.28,-30.59 40.72,-50.78z"/>
  <path class="fil1" d="M7424.45 5075.31c37.93,-8.79 73.35,-7.1 106.25,5.05 32.9,12.16 61.56,34.43 85.99,66.83 24.08,31.99 37.52,65.58 40.27,100.75 2.79,35.21 -5.27,69.82 -24.19,103.84 -18.87,34.02 -47.47,65.47 -85.78,94.33l-99.73 75.13 96.08 127.5 -82.06 61.84 -332.94 -441.85 181.8 -136.97c38.31,-28.86 76.42,-47.68 114.31,-56.45zm130.74 220.12l0 0c7.1,-29.09 0.04,-57.73 -21.19,-85.94 -21.25,-28.18 -46.85,-42.89 -76.79,-44.08 -29.93,-1.2 -62.77,11.68 -98.53,38.62l-95.94 72.3 132.22 175.48 95.95 -72.3c35.76,-26.94 57.19,-54.96 64.28,-84.08z"/>
  <path class="fil1" d="M7992.47 5275.3c-51.03,7.13 -99.81,0.84 -146.35,-18.87 -46.58,-19.7 -85.77,-51.19 -117.64,-94.48 -31.83,-43.29 -50.26,-90.07 -55.22,-140.38 -5,-50.32 3.51,-98.77 25.49,-145.37 21.94,-46.58 55.64,-86.59 101.03,-120.01 45.41,-33.42 93.61,-53.69 144.63,-60.82 51.02,-7.13 99.74,-0.94 146.14,18.55 46.4,19.5 85.71,51.09 117.86,94.79 32.17,43.72 50.68,90.62 55.5,140.72 4.82,50.1 -3.76,98.44 -25.74,145.03 -21.98,46.6 -55.67,86.6 -101.08,120.01 -45.4,33.44 -93.6,53.71 -144.62,60.83zm156.68 -212.46l0 0c13.92,-30.85 18.85,-63.27 14.78,-97.24 -4.06,-33.97 -17.02,-65.8 -38.9,-95.52 -21.87,-29.69 -48.4,-51.53 -79.65,-65.52 -31.21,-13.97 -63.63,-18.91 -97.21,-14.78 -33.63,4.12 -65.25,17.12 -94.99,38.96 -29.69,21.88 -51.5,48.24 -65.41,79.09 -13.95,30.86 -18.84,63.28 -14.78,97.25 4.07,33.97 17.02,65.8 38.89,95.5 21.84,29.71 48.4,51.56 79.61,65.53 31.25,13.98 63.63,18.91 97.26,14.79 33.59,-4.13 65.25,-17.12 94.95,-38.98 29.69,-21.86 51.5,-48.21 65.45,-79.08z"/>
  <polygon class="fil1" points="8763.69,4653.97 8813.12,4725.48 8425.07,4993.85 8385.93,4937.3 8427.65,4425.12 8164.38,4607.17 8114.94,4535.67 8490.01,4276.29 8529.11,4332.84 8487.42,4845.02 "/>
  <polygon class="fil1" points="9021.07,3943.58 9310.66,4414.97 9238.59,4459.24 8782.57,4299.73 8978.66,4618.92 8891.78,4672.28 8602.18,4200.91 8674.25,4156.64 9130.28,4316.15 8934.19,3996.94 "/>
  <path class="fil1" d="M9702.75 4073.82l-249.25 119.97 6.41 139.02 -95.43 45.92 -15.61 -606.46 91.13 -43.87 464.98 390.17 -96.84 46.63 -105.39 -91.38zm-65.59 -57.9l0 0 -198.89 -172.66 11.61 262.81 187.28 -90.15z"/>
  <path class="fil1" d="M10291.14 3439.56l139.35 535.4 -81.82 21.31 -389.6 -285.7 94.36 362.54 -98.67 25.69 -139.35 -535.41 81.82 -21.3 389.6 285.7 -94.36 -362.55 98.67 -25.68zm-237.47 -96.62l0 0 112.41 -29.26 -105.8 139.42 -82.61 21.5 76 -131.66z"/>
 </g>
</svg>
