<?xml version="1.0" encoding="UTF-8"?>
<!DOCTYPE svg PUBLIC "-//W3C//DTD SVG 1.1//EN" "http://www.w3.org/Graphics/SVG/1.1/DTD/svg11.dtd">
<!-- Creator: CorelDRAW 2018 (64-Bit) -->
<svg xmlns="http://www.w3.org/2000/svg" xml:space="preserve" width="210mm" height="297mm" version="1.1" style="shape-rendering:geometricPrecision; text-rendering:geometricPrecision; image-rendering:optimizeQuality; fill-rule:evenodd; clip-rule:evenodd"
viewBox="0 0 21000 29700"
 xmlns:xlink="http://www.w3.org/1999/xlink">
 <defs>
  <style type="text/css">
   <![CDATA[
    .fil1 {fill:#FEFEFE;fill-rule:nonzero}
    .fil0 {fill:#064169;fill-rule:nonzero}
   ]]>
  </style>
 </defs>
 <g id="Warstwa_x0020_1">
  <metadata id="CorelCorpID_0Corel-Layer"/>
  <polygon class="fil0" points="20780.26,22060.88 780.26,22060.88 780.26,2060.88 20780.26,2060.88 "/>
  <g id="_2220460264768">
   <path class="fil1" d="M3954.16 13721.94c-1438.63,0 -2609.03,-1170.4 -2609.03,-2608.99 0,-1438.62 1170.4,-2609.03 2609.03,-2609.03 1438.62,0 2609.02,1170.41 2609.02,2609.03 0,1438.59 -1170.4,2608.99 -2609.02,2608.99z"/>
   <path class="fil0" d="M3954.16 8574.48c-1399.71,0 -2538.47,1138.76 -2538.47,2538.47 0,1399.7 1138.76,2538.44 2538.47,2538.44 1399.72,0 2538.46,-1138.74 2538.46,-2538.44 0,-1399.71 -1138.74,-2538.47 -2538.46,-2538.47z"/>
   <g>
    <path class="fil1" d="M5036.5 11223.98c0,0 85.15,-8.86 115.14,-17.2 68.66,-19.08 -53.37,-56.91 -53.37,-56.91 0,0 5.84,23.88 -15.12,41.66 -20.95,17.78 -46.65,32.45 -46.65,32.45z"/>
    <path class="fil1" d="M3585.5 9960.95c13.41,0.67 228.07,-78.5 267.01,-100.72 197.76,-82.26 227.98,-194.5 438.77,-175.15 155.26,14.26 182.74,158.53 350.08,235.12 -33.8,-18.05 -219.95,-125.57 -75.26,-233.64 158.59,-118.44 30.86,-208.5 -198.12,-316.97 -228.98,-108.46 -509.64,-19.15 -509.64,-19.15 0,0 0.55,-0.5 1.5,-1.32 -16.07,4.61 -31.98,9.57 -47.82,14.73 89.08,-6.07 173.83,-9.11 239.96,-9.78 174.79,-1.77 240.26,140.34 240.26,140.34 0,0 -109.31,-78.06 -185.31,-81.42 -82.12,-3.64 -114.97,57.55 -114.97,57.55 0,0 -33.43,111.61 -123.04,146.93 -99.22,39.11 -169.9,-0.86 -402.41,-2.03 -232.5,-1.17 -367.06,83.11 -367.06,83.11 0,0 254.95,-18.19 214.17,90.51 -17.57,46.8 -81.03,106.9 -318.02,110.17 -103.45,1.43 -182.26,22.59 -238.27,45.96 -71.84,82.53 -135.48,172.39 -188.72,268.97 64.78,-35.65 131.01,-62.94 193.29,-79.12 219.38,-57.02 304.58,-105.78 370.46,-141.22 65.86,-35.43 166.92,-21.51 337.82,19.59 170.9,41.1 101.91,-53.14 115.32,-52.46z"/>
    <path class="fil1" d="M5158.91 10946.06c-94.09,-75.62 -211.24,-80.13 -289.02,-23.88 -77.79,56.24 -1.02,202.69 -1.02,202.69 0,0 59.82,-41.43 137.31,-38.06 77.49,3.37 187.67,24.8 255.87,96.68 -17.53,-71.63 -20.63,-171.12 -103.14,-237.43z"/>
    <path class="fil1" d="M2508.1 11698.72c186.19,-171.72 283.56,-369.69 283.56,-369.69 0,0 9.23,290.68 -139.56,535.86 -148.79,245.16 164.76,345.51 164.76,345.51 0,0 -3.25,0.49 -8.97,1.26 3.92,1.85 7.84,3.72 11.75,5.6 -0.97,12.61 -3.91,24.65 -3.97,37.5 -0.31,62.75 10.95,122.72 30.85,178.61 53.89,-26.42 169.69,-95.4 274.76,-239.72 142.68,-196.01 25.59,-370.98 56.73,-616.75 31.14,-245.76 -158.3,-251.19 -179.4,-501.69 -21.09,-250.5 139.87,-249.69 292.3,-329.41 54.7,-28.61 73.42,-63.12 75.34,-95.66 95.03,93.93 -107.55,166.96 -198.85,352.88 -96.38,196.26 -1.53,304.05 69.17,519.16 70.7,215.1 -1.76,349.59 33.12,476.98 34.89,127.38 184.81,0.93 160.52,90.22 -21.75,79.92 -86.03,193.16 -78.61,322.98 -110.69,61.03 -129.81,72.43 -232.33,179.23 -63.01,65.63 -132.91,39.16 -189.75,-8.02 37.71,47.52 83.58,88.06 135.35,120.17 127.55,-60.71 53.13,-179.57 306.41,-160.03 65.18,-0.57 195.27,49.74 324.37,99.42 0.48,-0.44 1.02,-0.83 1.5,-1.27 1.22,1.15 2.58,2.15 3.8,3.3 75.74,29.14 150.84,57.82 211.96,75.62 166.68,48.53 247.24,34.03 378.38,37.67 131.14,3.65 363.93,-51.82 426.75,-96.21 62.82,-44.4 51.35,-133.89 42.72,-196.53 -8.62,-62.64 -74.2,-62.97 -196.43,-60.6 -122.23,2.36 -250.26,58.35 -250.26,58.35 0,0 -21.93,-96.52 54.72,-145.54 53.41,-34.17 93.91,-30.05 136.52,-32.34 66.05,-3.57 152.01,3.74 232.58,-13.74 80.57,-17.48 -23.5,-68.68 -118.87,-72.14 -95.37,-3.46 -116.32,14.32 -271.34,16.52 -155.02,2.2 -146.17,20.13 -205.82,25.79 -59.64,5.66 -122.42,41.12 -122.42,41.12 0,0 51.25,-113.02 111.01,-142.53 59.77,-29.51 66.93,-7.67 148.56,-20.12 132.53,-20.19 212.36,-25.76 212.36,-25.76 0,0 29.55,50.83 73.56,45.09 44,-5.74 72.49,-41.37 72.49,-41.37 0,0 110.16,24.41 169.78,24.7 59.62,0.31 48.72,-59.5 78,-97.96 29.28,-38.47 89.57,-29.36 119.49,-49.94 29.91,-20.58 21.01,-29.84 30.27,-92.39 9.26,-62.55 134.96,-163.26 227.67,-222.42 92.7,-59.15 48.43,-145.82 12.96,-206.74 -35.46,-60.91 -74.27,-49.92 -74.27,-49.92 0,0 -10.35,-58.9 -26.3,-68.21 -15.95,-9.32 -62.6,-36.57 -107.33,-33.81 -44.72,2.75 -95.2,-36.26 -139.8,-57.35 -44.61,-21.09 -163.71,-48.51 -181.67,-33.7 -17.96,14.82 17.51,74.61 49.99,134.39 32.5,59.78 -39.6,169.71 -67.53,184.6 -27.92,14.89 -0.58,115.72 0.32,139.98 0.9,24.26 113.06,42.3 113.06,42.3 0,0 20.25,122.32 14.05,169.98 -6.2,47.66 -51.15,95.13 -98.83,91.91 -47.68,-3.22 -69.05,-85.41 -118.42,-57.23 -49.37,28.17 -93.2,53.18 -102.03,29.29 -8.82,-23.89 -11.53,-77.56 -23.85,-109.44 -12.33,-31.88 -73.74,-43.08 -139.29,-49.37 -65.55,-6.29 -113.38,20.3 -113.38,20.3 0,0 0.42,-83.46 20.82,-107.21 20.4,-23.74 134.6,24.53 229.87,48.85 95.26,24.33 167.16,-46.85 167.37,-88.58 0.21,-41.73 0.42,-83.46 -28.96,-167.07 -29.39,-83.62 1.02,-202.7 1.02,-202.7 0.39,-77.5 1.29,-256.35 1.68,-333.85 0.39,-77.5 143.89,-160.24 311.21,-236.91 167.31,-76.65 161.74,-154.18 162.13,-231.69 0.39,-77.49 4.58,-180.73 -58.11,-298.37 -54.27,-101.84 -195.7,-177.62 -299.64,-221.92 -170.76,7.43 -307.76,81.73 -307.76,81.73 0,0 -184.3,-102.28 -458.77,-55.96 -274.48,46.31 -439.14,118.81 -602.79,128.12 -93.26,5.3 -126.94,58.6 -154.25,125.41 -48.97,-19.98 -416.73,-130.11 -559.33,104.22 -43.8,71.97 -176.11,341.19 -320.09,520.98 -93,116.11 -153.66,144.2 -185.09,149.63 -0.15,1.03 -0.41,2.02 -0.55,3.04 -138.5,46.53 -239.23,175.61 -240.01,329.86 -0.21,41.94 7.37,81.89 20.95,119 -1.11,-49.21 1.12,-100.54 8.97,-153.58 48.6,-328.39 541.92,-178.35 718.07,-528.46 0,0 286.02,618.72 -222.87,750.05 -404.94,104.51 -410.93,289.71 -398.92,355.53 44.54,97.53 116.32,179.76 205.92,237.12 -52.85,-74.67 -11.55,-206.76 236.92,-435.93zm1789.43 -770.48l0 0c-29.55,-50.83 -41.27,-92.62 -187.4,-78.45 -146.13,14.17 -319.68,144.45 -319.68,144.45 0,0 128.67,-154.86 224.41,-168.78 95.75,-13.92 131.28,-23.18 101.61,-50.16 -29.68,-26.98 -267.94,-66.93 -267.94,-66.93 0,0 325,-19.23 414.32,2.09 89.32,21.32 184.35,93.34 190.22,111.25 5.87,17.91 -69.11,109.94 -69.11,109.94l-53.66 -0.27c0,0 29.57,46.98 20.36,101.02 -9.22,54.05 -97.24,104.27 -97.24,104.27l-58.51 44.89c0,0 -5.61,-72.04 -71.11,-87.27 -16.78,-3.9 -37.35,-5.82 -59.68,-6.13 5.49,11.67 9.08,24.34 9.01,38.1 -0.24,49.44 -40.52,89.31 -89.95,89.06 -49.44,-0.25 -89.31,-40.53 -89.06,-89.96 0.02,-5.25 2.16,-9.79 3.05,-14.78 -9.68,2.88 -18.72,5.97 -26.87,9.26 -65.72,26.5 -176.09,43.83 -176.09,43.83 0,0 194.38,-125.08 304.72,-133.04 110.33,-7.95 181.73,19.23 193.59,31.22 11.87,11.98 104.48,-29.72 104.48,-29.72 0,0 30.08,-53.07 0.53,-103.89zm-1368.38 -264.74l0 0c2.99,-402.43 363.97,-355.88 363.97,-355.88l-0.5 98.37c0,0 -119.42,36.66 -219.85,150.92 -89.25,101.53 -122.47,345.43 -122.47,345.43 0,0 -22.71,-28.65 -21.15,-238.84z"/>
   </g>
  </g>
  <g id="_2218975361376">
   <polygon class="fil1" points="8576.87,9468.32 8259.87,10207.57 8014.34,10206.33 7704.83,9463.93 7973.62,9465.29 8148.18,9899.04 8331.34,9467.1 "/>
   <polygon class="fil1" points="8617.09,9468.53 8866.86,9469.78 8863.13,10210.6 8613.35,10209.34 "/>
   <polygon class="fil1" points="9003.36,9470.48 9253.11,9471.73 9249.37,10212.55 8999.62,10211.29 "/>
   <polygon class="fil1" points="9389.62,9472.42 9639.39,9473.68 9635.65,10214.49 9385.88,10213.24 "/>
   <polygon class="fil1" points="10109.25,9476.06 10359.02,9477.31 10356.26,10024.46 10690.68,10026.15 10689.7,10219.82 10105.51,10216.87 "/>
   <polygon class="fil1" points="10778.09,9479.43 11027.88,9480.69 11024.12,10221.5 10774.35,10220.25 "/>
   <path class="fil1" d="M11332.21 10190.77c-62.63,-33.12 -111.62,-79.22 -146.96,-138.32 -35.28,-59.08 -52.78,-126.02 -52.37,-200.81 0.35,-74.78 18.5,-141.54 54.4,-200.3 35.93,-58.7 85.4,-104.35 148.38,-136.82 62.91,-32.5 133.53,-48.54 211.87,-48.14 72,0.36 136.08,13.36 192.45,39.06 56.29,25.67 102.69,62.6 139.14,110.76l-158.4 139.98c-45.58,-58.09 -99.43,-87.28 -161.51,-87.61 -52.19,-0.26 -94.29,16.29 -126.19,49.64 -31.91,33.35 -48.03,78.26 -48.3,134.71 -0.28,56.44 15.36,101.5 46.95,135.18 31.56,33.66 73.49,50.63 125.65,50.88 62.08,0.33 116.23,-28.33 162.4,-85.95l156.99 141.54c-36.93,47.8 -83.68,84.25 -140.25,109.35 -56.6,25.11 -120.85,37.5 -192.82,37.14 -78.34,-0.4 -148.79,-17.16 -211.43,-50.29z"/>
   <polygon class="fil1" points="12580.75,10040.98 12579.82,10229.34 11963.84,10226.24 11967.59,9485.43 12569.8,9488.46 12568.87,9676.84 12212.16,9675.03 12211.75,9761.81 12525.01,9763.39 12524.08,9943.31 12210.85,9941.73 12210.33,10039.1 "/>
   <path class="fil1" d="M12781.29 10155.24c-63.22,-61.72 -94.53,-147.95 -93.98,-258.73l2.06 -407.45 249.77 1.26 -2.03 400.04c-0.24,54.35 9.24,93.9 28.49,118.69 19.33,24.8 47.3,37.27 84,37.46 36.65,0.19 64.76,-12 84.3,-36.6 19.53,-24.62 29.45,-64.06 29.69,-118.41l2.03 -400.04 245.54 1.24 -2.07 407.45c-0.55,110.77 -32.73,196.69 -96.53,257.76 -63.8,61.03 -152.55,91.29 -266.14,90.71 -113.58,-0.57 -201.95,-31.71 -265.13,-93.38z"/>
   <polygon class="fil1" points="14199.02,10237.51 14198.6,9899.91 14036.34,10170.02 13926.27,10169.47 13766.76,9909.36 13765.14,10235.32 13537.59,10234.17 13541.31,9493.35 13746.64,9494.38 13985.9,9890.36 14222.86,9496.78 14428.15,9497.83 14426.57,10238.65 "/>
   <path class="fil1" d="M7949.55 11302.11c-63.33,-33.47 -112.84,-79.77 -148.53,-138.87 -35.69,-59.08 -53.31,-125.68 -52.95,-199.76 0.38,-74.09 18.67,-140.5 54.97,-199.23 36.27,-58.72 86.24,-104.51 149.91,-137.34 63.68,-32.85 135.36,-49.08 215.11,-48.68 79.72,0.41 151.25,17.36 214.58,50.83 63.32,33.49 112.84,79.77 148.53,138.85 35.67,59.12 53.33,125.7 52.95,199.79 -0.36,74.08 -18.69,140.5 -54.96,199.21 -36.28,58.74 -86.27,104.54 -149.92,137.35 -63.66,32.85 -135.37,49.08 -215.09,48.67 -79.75,-0.4 -151.26,-17.35 -214.6,-50.82zm299.87 -173.65l0 0c25.11,-15.03 45.16,-36.45 60.11,-64.25 14.97,-27.79 22.53,-60.39 22.72,-97.79 0.19,-37.4 -7.04,-70.06 -21.74,-98 -14.67,-27.95 -34.5,-49.57 -59.46,-64.86 -24.97,-15.28 -52.97,-23.02 -84.01,-23.19 -31.05,-0.16 -59.15,7.3 -84.26,22.34 -25.13,15.06 -45.17,36.47 -60.12,64.25 -14.95,27.8 -22.53,60.39 -22.72,97.79 -0.19,37.4 7.06,70.07 21.74,98 14.67,27.97 34.48,49.59 59.46,64.87 24.96,15.29 52.97,23.01 84.02,23.16 31.05,0.18 59.12,-7.26 84.26,-22.32z"/>
   <path class="fil1" d="M9181.12 10950.59l216.96 1.1 -1.57 313.27c-43.91,30.11 -94.83,53.14 -152.76,69.07 -57.94,15.93 -114.79,23.77 -170.49,23.48 -79.03,-0.4 -149.85,-17.14 -212.49,-50.28 -62.64,-33.13 -111.63,-79.24 -146.94,-138.32 -35.33,-59.09 -52.81,-126.04 -52.43,-200.84 0.38,-74.77 18.53,-141.52 54.45,-200.28 35.91,-58.72 85.9,-104.35 149.93,-136.82 64.01,-32.5 136.25,-48.54 216.68,-48.13 72.63,0.37 137.66,12.86 195.06,37.5 57.37,24.64 105,60.33 142.87,107.08l-160.53 139.95c-46.28,-54.55 -101.54,-81.99 -165.73,-82.32 -55.03,-0.27 -98.87,16.09 -131.48,49.08 -32.64,33 -49.07,78.07 -49.36,135.22 -0.28,55.74 15.53,100.63 47.47,134.65 31.92,34.04 74.7,51.18 128.33,51.46 31.73,0.15 62.1,-5.69 91.09,-17.56l0.94 -187.31z"/>
   <path class="fil1" d="M9692.6 11310.9c-63.34,-33.47 -112.85,-79.77 -148.54,-138.87 -35.69,-59.09 -53.33,-125.68 -52.96,-199.77 0.38,-74.09 18.68,-140.49 54.98,-199.23 36.28,-58.72 86.25,-104.51 149.91,-137.34 63.68,-32.85 135.36,-49.07 215.11,-48.68 79.73,0.42 151.26,17.37 214.58,50.84 63.33,33.48 112.85,79.77 148.54,138.85 35.67,59.12 53.33,125.69 52.95,199.78 -0.36,74.09 -18.69,140.51 -54.97,199.21 -36.28,58.74 -86.26,104.55 -149.91,137.36 -63.66,32.85 -135.38,49.08 -215.09,48.66 -79.76,-0.39 -151.26,-17.35 -214.6,-50.81zm299.86 -173.65l0 0c25.12,-15.04 45.16,-36.45 60.12,-64.25 14.97,-27.79 22.53,-60.4 22.72,-97.79 0.19,-37.4 -7.05,-70.06 -21.74,-98 -14.68,-27.96 -34.5,-49.57 -59.46,-64.87 -24.98,-15.28 -52.97,-23.02 -84.01,-23.18 -31.06,-0.16 -59.15,7.3 -84.27,22.34 -25.13,15.05 -45.16,36.46 -60.12,64.25 -14.95,27.8 -22.52,60.39 -22.72,97.78 -0.19,37.4 7.07,70.08 21.74,98 14.68,27.97 34.49,49.59 59.47,64.87 24.96,15.3 52.96,23.02 84.02,23.17 31.04,0.17 59.12,-7.27 84.25,-22.32zm-51.71 -762.82l0 0 227.53 1.14 -209.36 168.29 -158.75 -0.79 140.58 -168.64z"/>
   <polygon class="fil1" points="10435.95,10606.6 10685.7,10607.86 10682.94,11155.01 11017.37,11156.69 11016.37,11350.38 10432.21,11347.43 "/>
   <polygon class="fil1" points="11835.02,10613.65 11831.27,11354.48 11625.94,11353.44 11346.13,11015.48 11344.41,11352.03 11101.05,11350.81 11104.77,10609.98 11310.06,10611.01 11589.91,10948.97 11591.59,10612.42 "/>
   <path class="fil1" d="M12141.54 11323.23c-63.36,-33.45 -112.87,-79.75 -148.56,-138.85 -35.69,-59.09 -53.33,-125.68 -52.98,-199.77 0.41,-74.08 18.7,-140.49 55.02,-199.25 36.27,-58.7 86.23,-104.49 149.89,-137.33 63.67,-32.84 135.39,-49.06 215.11,-48.67 79.72,0.4 151.24,17.35 214.56,50.84 63.36,33.46 112.87,79.77 148.56,138.85 35.69,59.1 53.36,125.68 52.98,199.76 -0.37,74.09 -18.71,140.51 -55.02,199.24 -36.24,58.73 -86.23,104.52 -149.89,137.35 -63.67,32.83 -135.39,49.06 -215.12,48.66 -79.71,-0.39 -151.23,-17.34 -214.55,-50.83zm299.86 -173.63l0 0c25.08,-15.04 45.13,-36.45 60.08,-64.27 14.95,-27.78 22.53,-60.38 22.74,-97.77 0.17,-37.4 -7.06,-70.07 -21.74,-98.01 -14.68,-27.94 -34.52,-49.56 -59.43,-64.86 -25.01,-15.3 -53.02,-23.03 -84.06,-23.18 -31.04,-0.16 -59.12,7.3 -84.27,22.32 -25.11,15.05 -45.16,36.47 -60.11,64.27 -14.95,27.8 -22.54,60.37 -22.7,97.77 -0.21,37.4 7.02,70.09 21.7,98.01 14.67,27.96 34.52,49.58 59.49,64.85 24.98,15.32 52.96,23.04 84.03,23.19 31.01,0.16 59.12,-7.29 84.27,-22.32z"/>
   <polygon class="fil1" points="13183.95,11115.77 13127.56,11177.92 13126.63,11361 12881.1,11359.78 12884.85,10618.95 13130.38,10620.17 13129.04,10888.99 13373.81,10621.41 13645.8,10622.78 13347.8,10947.25 13656.86,11363.69 13367.92,11362.23 "/>
   <path class="fil1" d="M13787.6 11360.65c-58.15,-14.06 -105.83,-32.82 -143.14,-56.3l81.37 -181.63c35.18,20.66 74.59,37.25 118.31,49.82 43.61,12.58 85.57,18.95 125.78,19.16 34.59,0.17 59.29,-3.05 74.14,-9.68 14.84,-6.64 22.32,-16.64 22.39,-30.06 0.07,-15.51 -9.58,-27.2 -28.94,-35.06 -19.36,-7.87 -51.26,-16.48 -95.64,-25.89 -57.11,-12.28 -104.62,-25.4 -142.66,-39.36 -38.03,-13.93 -71.07,-36.69 -99.15,-68.23 -28.04,-31.54 -41.96,-74.12 -41.68,-127.74 0.24,-46.58 13.5,-88.83 39.79,-126.8 26.28,-37.98 65.42,-67.74 117.41,-89.38 51.95,-21.6 114.96,-32.21 189.03,-31.85 50.82,0.26 100.7,6 149.69,17.16 48.95,11.19 92.09,27.45 129.4,48.81l-76.07 180.59c-72.49,-37.03 -141.18,-55.74 -206.09,-56.07 -64.21,-0.32 -96.39,15.04 -96.53,46.07 -0.1,14.83 9.41,25.99 28.42,33.5 18.98,7.49 50.37,15.61 94.06,24.27 56.39,10.89 103.93,23.29 142.69,37.24 38.73,13.96 72.31,36.52 100.74,67.72 28.42,31.19 42.47,73.6 42.23,127.21 -0.24,46.57 -13.5,88.67 -39.82,126.27 -26.29,37.63 -65.43,67.41 -117.38,89.39 -51.99,21.94 -115.03,32.75 -189.1,32.37 -61.39,-0.32 -121.09,-7.48 -179.25,-21.53z"/>
   <polygon class="fil1" points="15056.91,11177.06 15055.91,11370.74 14375.41,11367.31 14376.2,11213.85 14716.85,10821.85 14388.77,10820.19 14389.74,10626.53 15042.76,10629.82 15041.96,10783.28 14701.31,11175.26 "/>
   <polygon class="fil1" points="15308.47,10824.83 15091.54,10823.74 15092.5,10630.08 15776.18,10633.52 15775.22,10827.19 15558.24,10826.08 15555.45,11373.25 15305.68,11371.99 "/>
   <path class="fil1" d="M16321.33 11247.99l-281.53 -1.41 -50.4 128.86 -254.01 -1.27 327.63 -739.2 245.53 1.22 320.05 742.47 -258.21 -1.29 -49.06 -129.38zm-67.87 -180.27l0 0 -71.03 -186.62 -72.9 185.9 143.93 0.72z"/>
   <path class="fil1" d="M16587.91 11056.72l472.74 -346.87 73.52 106.19 -472.74 346.87 -73.52 -106.19zm121.68 -418.5l0 0 249.78 1.26 -2.76 547.15 334.45 1.69 -1 193.68 -584.22 -2.94 3.75 -740.84z"/>
   <path class="fil1" d="M17535.76 11350.95c-62.63,-33.13 -111.62,-79.22 -146.97,-138.32 -35.31,-59.09 -52.77,-126.03 -52.39,-200.82 0.37,-74.77 18.5,-141.54 54.43,-200.3 35.93,-58.7 85.37,-104.35 148.34,-136.84 62.95,-32.49 133.57,-48.54 211.91,-48.14 71.97,0.36 136.08,13.38 192.44,39.08 56.3,25.67 102.7,62.6 139.15,110.76l-158.4 139.98c-45.58,-58.09 -99.43,-87.3 -161.51,-87.61 -52.19,-0.26 -94.29,16.29 -126.19,49.63 -31.9,33.36 -48.03,78.25 -48.3,134.7 -0.31,56.45 15.36,101.53 46.95,135.19 31.56,33.67 73.49,50.64 125.68,50.89 62.08,0.31 116.2,-28.33 162.37,-85.95l156.99 141.54c-36.93,47.8 -83.71,84.25 -140.25,109.37 -56.6,25.11 -120.85,37.48 -192.82,37.12 -78.34,-0.4 -148.83,-17.14 -211.43,-50.28z"/>
   <path class="fil1" d="M18662.28 11259.79l-281.54 -1.42 -50.4 128.87 -254.01 -1.28 327.63 -739.21 245.54 1.24 320.08 742.47 -258.25 -1.31 -49.05 -129.36zm-67.87 -180.27l0 0 -71.04 -186.62 -72.9 185.9 143.94 0.72zm158.16 528.91l0 0c-29.49,-23.44 -44.16,-55.24 -43.96,-95.46 0.21,-38.81 15.71,-73.31 46.58,-103.49 30.83,-30.16 74.48,-53.94 131.05,-71.3l83.34 52.28c-44.51,19.52 -75.83,37.19 -93.92,52.99 -18.08,15.76 -27.14,32.14 -27.25,49.07 -0.03,12.7 4.66,23.12 14.16,31.28 9.48,8.17 23.36,12.3 41.72,12.39 20.47,0.1 41.31,-4.74 62.53,-14.51l28.08 98.57c-12.75,6.96 -30.22,12.69 -52.5,17.17 -22.23,4.48 -44.65,6.67 -67.22,6.57 -52.23,-0.26 -93.09,-12.12 -122.61,-35.56z"/>
   <path class="fil1" d="M19186.72 11359.28c-62.63,-33.14 -111.62,-79.23 -146.96,-138.33 -35.32,-59.09 -52.78,-126.03 -52.41,-200.82 0.38,-74.77 18.5,-141.54 54.44,-200.3 35.93,-58.7 85.37,-104.35 148.34,-136.82 62.94,-32.5 133.53,-48.54 211.88,-48.16 71.96,0.38 136.08,13.38 192.44,39.08 56.29,25.67 102.7,62.6 139.15,110.76l-158.41 139.98c-45.58,-58.09 -99.43,-87.3 -161.5,-87.61 -52.2,-0.26 -94.3,16.29 -126.2,49.62 -31.87,33.37 -47.99,78.26 -48.26,134.71 -0.31,56.45 15.36,101.53 46.92,135.18 31.56,33.68 73.48,50.64 125.67,50.91 62.09,0.31 116.21,-28.34 162.37,-85.96l157 141.54c-36.94,47.8 -83.72,84.25 -140.25,109.37 -56.61,25.11 -120.86,37.49 -192.83,37.12 -78.34,-0.38 -148.79,-17.14 -211.39,-50.27z"/>
   <polygon class="fil1" points="20435.22,11209.47 20434.26,11397.85 19818.31,11394.73 19822.07,10653.9 20424.27,10656.95 20423.3,10845.32 20066.64,10843.52 20066.22,10930.3 20379.48,10931.89 20378.55,11111.81 20065.29,11110.22 20064.81,11207.6 "/>
   <polygon class="fil1" points="7787.08,11827.99 7857.64,11828.33 7855.16,12322.21 7784.6,12321.87 "/>
   <polygon class="fil1" points="8468.3,12325.31 8469.4,11965.48 8289.4,12264.44 8256.94,12264.26 8079.93,11965.64 8078.12,12323.35 8010.39,12323.01 8012.87,11829.13 8070.74,11829.42 8275.01,12177.59 8479.95,11831.48 8537.8,11831.78 8536.03,12325.66 "/>
   <path class="fil1" d="M8663.76 12316.77c-9.37,-9.2 -14.01,-20.88 -13.94,-35 0.07,-13.65 4.82,-25.02 14.28,-34.15 9.46,-9.13 20.77,-13.64 33.94,-13.6 13.17,0.06 24.21,4.62 33.1,13.57 8.87,9.03 13.3,20.53 13.23,34.66 -0.07,14.12 -4.72,25.73 -13.94,34.86 -9.21,9.13 -20.16,13.65 -32.88,13.58 -13.16,-0.04 -24.44,-4.69 -33.79,-13.92z"/>
   <path class="fil1" d="M9370.57 12206.39l-262.47 -1.35 -54.93 123.24 -72.67 -0.38 226.12 -492.76 69.85 0.36 221.9 495.01 -74.09 -0.37 -53.71 -123.75zm-24.41 -56.57l0 0 -105.33 -242.54 -107.75 241.47 213.08 1.07z"/>
   <path class="fil1" d="M9581.29 11837.03l208.13 1.05c52.22,0.26 98.48,10.86 138.84,31.73 40.34,20.91 71.61,50.11 93.76,87.63 22.15,37.5 33.11,80.49 32.87,128.92 -0.24,48.44 -11.65,91.29 -34.16,128.57 -22.53,37.31 -54.09,66.18 -94.64,86.68 -40.57,20.5 -86.93,30.59 -139.15,30.35l-208.13 -1.07 2.48 -493.86zm201.73 433.5l0 0c39.98,0.21 75.19,-7.37 105.61,-22.73 30.4,-15.37 53.91,-37 70.52,-64.91 16.6,-27.9 24.99,-60.18 25.18,-96.89 0.19,-36.68 -7.89,-69.05 -24.2,-97.12 -16.33,-28.06 -39.62,-49.96 -69.87,-65.64 -30.26,-15.67 -65.38,-23.61 -105.37,-23.82l-133.34 -0.67 -1.88 371.13 133.35 0.65z"/>
   <path class="fil1" d="M10476.89 12211.97l-262.44 -1.35 -54.95 123.2 -72.68 -0.34 226.14 -492.76 69.85 0.34 221.88 495 -74.09 -0.34 -53.71 -123.75zm-24.39 -56.57l0 0 -105.33 -242.54 -107.75 241.44 213.08 1.1z"/>
   <polygon class="fil1" points="11143.01,12338.78 11144.04,11978.95 10964.1,12277.91 10931.65,12277.73 10754.65,11979.11 10752.85,12336.82 10685.11,12336.47 10687.6,11842.61 10745.46,11842.89 10949.74,12191.06 11154.65,11844.96 11212.53,11845.25 11210.74,12339.13 "/>
   <path class="fil1" d="M11681.24 12218.03l-262.49 -1.31 -54.94 123.2 -72.66 -0.38 226.13 -492.76 69.84 0.36 221.89 495.02 -74.1 -0.38 -53.67 -123.75zm-24.43 -56.56l0 0 -105.35 -242.55 -107.69 241.48 213.04 1.07z"/>
   <polygon class="fil1" points="12544.2,12345.84 12545.3,11986.01 12365.3,12284.97 12332.84,12284.8 12155.8,11986.17 12154.01,12343.88 12086.28,12343.54 12088.76,11849.66 12146.63,11849.95 12350.93,12198.12 12555.84,11852.02 12613.72,11852.31 12611.93,12346.19 "/>
   <polygon class="fil1" points="12769.61,11853.1 12840.17,11853.45 12837.69,12347.33 12767.13,12346.98 "/>
   <path class="fil1" d="M13080.22 12321.39c-39.65,-22.09 -70.66,-52.33 -93.05,-90.78 -22.36,-38.45 -33.45,-81.65 -33.21,-129.64 0.24,-47.98 11.75,-91.06 34.52,-129.29 22.77,-38.22 54.19,-68.16 94.29,-89.84 40.07,-21.68 84.85,-32.39 134.22,-32.13 38.59,0.19 73.83,6.84 105.73,19.95 31.9,13.09 59.12,32.38 81.58,57.91l-46.09 44.2c-36.97,-39.22 -83.2,-58.96 -138.7,-59.26 -36.69,-0.17 -69.87,7.89 -99.64,24.19 -29.69,16.33 -52.95,38.91 -69.83,67.75 -16.84,28.83 -25.35,61.14 -25.53,96.86 -0.17,35.76 8,68.15 24.57,97.15 16.57,29.01 39.58,51.82 69.14,68.46 29.59,16.6 62.67,24.97 99.36,25.18 55.05,0.28 101.45,-19.26 139.32,-58.57l45.64 44.69c-22.73,25.28 -50.23,44.44 -82.5,57.43 -32.29,13.02 -67.74,19.43 -106.29,19.22 -49.4,-0.24 -93.91,-11.4 -133.53,-33.48z"/>
   <polygon class="fil1" points="13672.05,12132.11 13581.27,12223.37 13580.62,12351.08 13510.07,12350.74 13512.55,11856.84 13583.1,11857.2 13581.72,12133.04 13851.23,11858.55 13931.64,11858.96 13719.6,12080.13 13942.56,12352.91 13860.02,12352.49 "/>
   <polygon class="fil1" points="14026.86,11859.44 14097.42,11859.79 14094.94,12353.67 14024.38,12353.32 "/>
   <polygon class="fil1" points="14608.91,12294.86 14608.6,12356.25 14250.18,12354.46 14252.66,11860.58 14601.23,11862.34 14600.92,11923.71 14322.9,11922.3 14322.14,12073.99 14569.81,12075.25 14569.5,12135.21 14321.83,12133.97 14321.04,12293.41 "/>
   <polygon class="fil1" points="15423.23,11866.47 15255.66,12359.52 15181.56,12359.14 15048.82,11964.07 14912.05,12357.8 14836.56,12357.42 14673.92,11862.7 14746.61,11863.06 14877.98,12265.2 15018.95,11864.44 15083.85,11864.76 15218,12269.02 15356.22,11866.14 "/>
   <polygon class="fil1" points="15516.32,11866.93 15586.87,11867.3 15584.39,12361.18 15513.84,12360.83 "/>
   <path class="fil1" d="M15826.89 12335.23c-39.65,-22.08 -70.66,-52.33 -93.05,-90.77 -22.36,-38.45 -33.45,-81.69 -33.21,-129.64 0.24,-47.98 11.75,-91.07 34.52,-129.29 22.77,-38.24 54.19,-68.18 94.29,-89.84 40.07,-21.68 84.86,-32.39 134.22,-32.15 38.59,0.21 73.83,6.86 105.73,19.95 31.9,13.11 59.12,32.4 81.58,57.91l-46.09 44.22c-36.97,-39.22 -83.2,-58.98 -138.7,-59.26 -36.69,-0.19 -69.87,7.89 -99.64,24.19 -29.69,16.31 -52.94,38.91 -69.83,67.75 -16.84,28.83 -25.35,61.12 -25.53,96.86 -0.17,35.76 8,68.15 24.57,97.15 16.57,29.01 39.58,51.82 69.14,68.42 29.59,16.64 62.67,25.01 99.36,25.22 55.05,0.28 101.45,-19.26 139.32,-58.57l45.64 44.69c-22.73,25.28 -50.22,44.44 -82.5,57.43 -32.29,13.02 -67.74,19.43 -106.28,19.22 -49.41,-0.24 -93.92,-11.4 -133.54,-33.49z"/>
   <polygon class="fil1" points="16626.05,12305.02 16625.74,12366.41 16213.05,12364.34 16213.29,12316.36 16525.66,11933.41 16220.15,11931.86 16220.46,11870.48 16619.06,11872.5 16618.82,11920.47 16307.9,12303.44 "/>
   <path class="fil1" d="M17042.67 12245.04l-262.48 -1.31 -54.95 123.2 -72.66 -0.38 226.13 -492.74 69.84 0.34 221.9 495.02 -74.11 -0.38 -53.67 -123.75zm-24.43 -56.57l0 0 -105.31 -242.52 -107.77 241.46 213.08 1.06z"/>
   <polygon class="fil1" points="8480.62,12678.16 8313.03,13171.19 8238.94,13170.84 8106.18,12775.76 7969.42,13169.46 7893.91,13169.09 7731.34,12674.37 7804,12674.75 7935.31,13076.86 8076.33,12676.13 8141.26,12676.44 8275.39,13080.68 8413.59,12677.82 "/>
   <path class="fil1" d="M9124.52 12727.25c36.54,30.8 54.67,72.97 54.4,126.57 -0.26,53.61 -18.83,95.64 -55.67,126.03 -36.83,30.38 -87.23,45.4 -151.19,45.09l-122.06 -0.62 -0.76 149.59 -70.56 -0.38 2.5 -493.86 192.62 0.97c63.96,0.34 114.2,15.88 150.72,46.61zm-51.83 208.22l0 0c23.61,-18.91 35.5,-46.26 35.67,-81.99 0.19,-35.76 -11.42,-63.22 -34.85,-82.37 -23.42,-19.19 -57.46,-28.87 -102.14,-29.11l-119.94 -0.59 -1.12 221.52 119.94 0.62c44.68,0.21 78.82,-9.13 102.44,-28.08z"/>
   <path class="fil1" d="M9383.47 13149.41c-39.86,-22.05 -71.12,-52.43 -93.72,-91.12 -22.64,-38.69 -33.82,-81.78 -33.59,-129.29 0.24,-47.51 11.87,-90.47 34.88,-128.92 23.01,-38.45 54.55,-68.52 94.65,-90.19 40.07,-21.67 85.05,-32.38 134.91,-32.14 49.39,0.24 94.02,11.4 133.92,33.48 39.84,22.08 71,52.33 93.36,90.78 22.39,38.48 33.47,81.65 33.21,129.64 -0.25,47.96 -11.73,91.09 -34.51,129.29 -22.77,38.24 -54.2,68.18 -94.29,89.85 -40.1,21.67 -84.83,32.39 -134.22,32.14 -49.87,-0.27 -94.74,-11.43 -134.6,-33.52zm232.75 -53.5l0 0c29.03,-16.29 51.95,-38.89 68.78,-67.73 16.85,-28.84 25.36,-61.15 25.53,-96.88 0.19,-35.76 -8.01,-68.14 -24.54,-97.15 -16.56,-28.97 -39.24,-51.81 -68.1,-68.42 -28.83,-16.6 -61.37,-25.01 -97.6,-25.18 -36.22,-0.17 -69.05,7.89 -98.54,24.18 -29.49,16.33 -52.66,38.94 -69.49,67.77 -16.85,28.83 -25.36,61.12 -25.55,96.84 -0.17,35.76 8.03,68.15 24.57,97.15 16.55,29.01 39.48,51.82 68.8,68.46 29.31,16.6 62.07,24.97 98.3,25.18 36.23,0.17 68.84,-7.89 97.84,-24.22z"/>
   <polygon class="fil1" points="10258.51,13119.61 10258.2,13181 9845.44,13178.94 9845.68,13130.95 10158.08,12747.99 9852.57,12746.44 9852.88,12685.08 10251.51,12687.08 10251.27,12735.07 9940.3,13117.99 "/>
   <polygon class="fil1" points="10787.05,12689.77 10784.55,13183.66 10726.7,13183.35 10432.25,12813.59 10430.38,13181.87 10359.83,13181.52 10362.32,12687.63 10420.19,12687.94 10714.64,13057.7 10716.5,12689.43 "/>
   <path class="fil1" d="M11255.04 13062.56l-262.44 -1.34 -54.99 123.2 -72.65 -0.35 226.17 -492.75 69.79 0.34 221.9 495 -74.1 -0.35 -53.68 -123.75zm-24.39 -56.57l0 0 -105.35 -242.53 -107.76 241.43 213.11 1.1z"/>
   <polygon class="fil1" points="11890.46,12695.35 11887.98,13189.21 11830.14,13188.93 11535.65,12819.17 11533.79,13187.45 11463.23,13187.07 11465.75,12693.21 11523.62,12693.49 11818.04,13063.29 11819.9,12695.01 "/>
   <polygon class="fil1" points="12045.69,12696.14 12116.25,12696.49 12113.73,13190.34 12043.18,13190 "/>
   <path class="fil1" d="M12320.06 13140.59c-36.52,-37.79 -54.57,-92.02 -54.22,-162.57l1.44 -280.77 70.56 0.34 -1.45 277.98c-0.52,105.84 45.55,158.99 138.22,159.44 45.13,0.25 79.78,-12.64 103.9,-38.62 24.12,-26.01 36.31,-65.8 36.59,-119.4l1.38 -277.99 68.45 0.35 -1.41 280.81c-0.35,71.04 -18.98,125.12 -55.88,162.33 -36.86,37.2 -88.2,55.67 -154.07,55.33 -65.87,-0.35 -117.03,-19.4 -153.51,-57.23z"/>
  </g>
 </g>
</svg>
