<?xml version="1.0" encoding="UTF-8"?>
<!DOCTYPE svg PUBLIC "-//W3C//DTD SVG 1.1//EN" "http://www.w3.org/Graphics/SVG/1.1/DTD/svg11.dtd">
<!-- Creator: CorelDRAW 2018 (64-Bit) -->
<svg xmlns="http://www.w3.org/2000/svg" xml:space="preserve" width="210mm" height="297mm" version="1.1" style="shape-rendering:geometricPrecision; text-rendering:geometricPrecision; image-rendering:optimizeQuality; fill-rule:evenodd; clip-rule:evenodd"
viewBox="0 0 21000 29700"
 xmlns:xlink="http://www.w3.org/1999/xlink">
 <defs>
  <style type="text/css">
   <![CDATA[
    .fil0 {fill:#FEFEFE;fill-rule:nonzero}
    .fil1 {fill:#064169;fill-rule:nonzero}
   ]]>
  </style>
 </defs>
 <g id="Warstwa_x0020_1">
  <metadata id="CorelCorpID_0Corel-Layer"/>
  <path class="fil0" d="M10606.45 12068.64c-1438.61,0 -2609.02,-1170.41 -2609.02,-2609.01 0,-1438.62 1170.41,-2609.02 2609.02,-2609.02 1438.62,0 2609.02,1170.4 2609.02,2609.02 0,1438.6 -1170.4,2609.01 -2609.02,2609.01z"/>
  <path class="fil1" d="M10606.45 6921.17c-1399.7,0 -2538.46,1138.75 -2538.46,2538.46 0,1399.71 1138.76,2538.45 2538.46,2538.45 1399.72,0 2538.46,-1138.74 2538.46,-2538.45 0,-1399.71 -1138.74,-2538.46 -2538.46,-2538.46z"/>
  <g id="_2218974997664">
   <polygon class="fil1" points="8085.28,13686.74 7768.26,14426.06 7522.76,14424.82 7213.19,13682.33 7482.04,13683.71 7656.57,14117.51 7839.71,13685.5 "/>
   <polygon class="fil1" points="8125.52,13687.02 8375.15,13688.25 8371.43,14429.09 8121.79,14427.85 "/>
   <polygon class="fil1" points="8511.78,13688.95 8761.48,13690.18 8757.76,14431.02 8508.06,14429.78 "/>
   <polygon class="fil1" points="8898.04,13690.87 9147.74,13692.11 9144.02,14432.95 8894.32,14431.71 "/>
   <polygon class="fil1" points="9617.72,13694.46 9867.42,13695.7 9864.67,14242.92 10199.12,14244.57 10198.15,14438.32 9614,14435.29 "/>
   <polygon class="fil1" points="10286.56,13697.9 10536.26,13699.14 10532.53,14439.97 10282.83,14438.74 "/>
   <path class="fil1" d="M10840.65 14409.24c-62.56,-33.21 -111.55,-79.23 -146.89,-138.35 -35.28,-59.12 -52.85,-125.95 -52.44,-200.78 0.35,-74.83 18.54,-141.66 54.5,-200.37 35.9,-58.7 85.3,-104.32 148.28,-136.83 62.97,-32.53 133.53,-48.51 211.94,-48.1 71.94,0.41 136.02,13.37 192.38,39 56.36,25.77 102.66,62.7 139.18,110.93l-158.48 139.87c-45.61,-58.01 -99.35,-87.23 -161.5,-87.64 -52.23,-0.28 -94.26,16.26 -126.09,49.75 -31.98,33.34 -48.1,78.13 -48.37,134.63 -0.28,56.36 15.43,101.56 46.99,135.18 31.56,33.63 73.45,50.58 125.67,50.85 62.02,0.42 116.17,-28.24 162.34,-85.99l156.96 141.67c-36.94,47.81 -83.65,84.2 -140.29,109.28 -56.5,25.08 -120.71,37.62 -192.65,37.2 -78.41,-0.41 -148.82,-17.22 -211.53,-50.3z"/>
   <polygon class="fil1" points="12089.3,14259.45 12088.33,14447.83 11472.35,14444.66 11476.07,13703.83 12078.27,13706.86 12077.31,13895.24 11720.67,13893.44 11720.26,13980.26 12033.48,13981.91 12032.66,14161.75 11719.29,14160.23 11718.88,14257.52 "/>
   <path class="fil1" d="M12289.8 14373.69c-63.25,-61.73 -94.53,-148 -93.98,-258.66l2.07 -407.48 249.69 1.24 -1.92 400.04c-0.28,54.3 9.23,93.85 28.52,118.65 19.16,24.81 47.13,37.35 83.92,37.49 36.66,0.13 64.77,-12 84.34,-36.66 19.43,-24.53 29.35,-63.94 29.63,-118.37l2.07 -400.05 245.56 1.24 -2.07 407.49c-0.55,110.79 -32.79,196.64 -96.6,257.69 -63.8,61.05 -152.41,91.36 -266.09,90.81 -113.56,-0.55 -202.03,-31.83 -265.14,-93.43z"/>
   <polygon class="fil1" points="13707.52,14455.96 13707.11,14118.34 13544.92,14388.44 13434.81,14387.89 13275.23,14127.85 13273.58,14453.75 13046.07,14452.65 13049.79,13711.82 13255.11,13712.78 13494.34,14108.83 13731.36,13715.27 13936.69,13716.23 13935.04,14457.06 "/>
   <path class="fil1" d="M4463.45 15505.47c-63.39,-33.48 -112.93,-79.78 -148.55,-138.9 -35.69,-59.12 -53.4,-125.68 -53.06,-199.68 0.41,-74.14 18.81,-140.56 55.05,-199.26 36.25,-58.71 86.27,-104.46 149.93,-137.39 63.6,-32.8 135.33,-49.06 215.12,-48.65 79.72,0.41 151.17,17.36 214.56,50.85 63.32,33.49 112.79,79.79 148.48,138.91 35.76,59.11 53.4,125.67 52.99,199.68 -0.35,74.13 -18.68,140.56 -54.99,199.26 -36.31,58.7 -86.26,104.59 -149.86,137.39 -63.73,32.8 -135.39,49.06 -215.11,48.65 -79.79,-0.42 -151.31,-17.37 -214.56,-50.86zm299.79 -173.63l0 0c25.15,-15.02 45.2,-36.52 60.15,-64.21 14.95,-27.84 22.53,-60.36 22.67,-97.85 0.21,-37.34 -7.03,-70 -21.7,-97.97 -14.61,-27.98 -34.52,-49.61 -59.46,-64.91 -25.02,-15.3 -52.99,-23.01 -84,-23.15 -31.07,-0.14 -59.18,7.3 -84.27,22.32 -25.14,15.03 -45.13,36.52 -60.14,64.22 -14.96,27.84 -22.54,60.36 -22.74,97.84 -0.14,37.34 7.09,70 21.77,97.98 14.67,27.98 34.52,49.61 59.46,64.9 24.95,15.3 52.99,23.02 84.06,23.16 31.01,0.13 59.05,-7.31 84.2,-22.33z"/>
   <path class="fil1" d="M5694.93 15153.94l216.97 1.1 -1.58 313.37c-43.89,30.04 -94.81,53.05 -152.76,68.9 -57.94,15.98 -114.79,23.84 -170.53,23.56 -79.03,-0.41 -149.86,-17.09 -212.42,-50.3 -62.7,-33.07 -111.69,-79.23 -146.97,-138.21 -35.35,-59.12 -52.85,-126.09 -52.5,-200.92 0.41,-74.69 18.6,-141.53 54.5,-200.23 35.9,-58.84 85.92,-104.32 149.93,-136.98 64.01,-32.38 136.29,-48.5 216.7,-48.09 72.69,0.41 137.66,12.95 195.06,37.62 57.32,24.53 105,60.22 142.83,107.07l-160.47 139.87c-46.3,-54.56 -101.56,-81.99 -165.78,-82.27 -54.98,-0.27 -98.81,16.13 -131.47,49.06 -32.58,32.94 -49.12,78.14 -49.4,135.19 -0.27,55.81 15.57,100.59 47.48,134.77 31.96,33.9 74.75,51.13 128.36,51.4 31.76,0.14 62.08,-5.65 91.09,-17.5l0.96 -187.41z"/>
   <path class="fil1" d="M6206.53 15514.29c-63.39,-33.48 -112.93,-79.79 -148.55,-138.9 -35.7,-59.12 -53.4,-125.68 -53.06,-199.82 0.42,-74 18.81,-140.42 55.05,-199.12 36.25,-58.71 86.27,-104.46 149.94,-137.4 63.59,-32.79 135.32,-49.05 215.11,-48.64 79.72,0.41 151.17,17.36 214.56,50.85 63.32,33.49 112.79,79.79 148.48,138.91 35.76,58.98 53.4,125.54 52.99,199.68 -0.35,73.99 -18.68,140.41 -54.99,199.26 -36.31,58.7 -86.26,104.46 -149.86,137.39 -63.73,32.8 -135.39,49.06 -215.11,48.65 -79.79,-0.42 -151.31,-17.37 -214.56,-50.86zm299.79 -173.63l0 0c25.15,-15.02 45.2,-36.52 60.15,-64.35 14.95,-27.7 22.53,-60.36 22.67,-97.71 0.21,-37.48 -7.03,-70 -21.7,-98.11 -14.61,-27.84 -34.52,-49.47 -59.47,-64.77 -25.01,-15.3 -52.98,-23.01 -83.99,-23.15 -31.07,-0.14 -59.18,7.3 -84.26,22.32 -25.15,15.02 -45.13,36.38 -60.16,64.22 -14.95,27.84 -22.53,60.36 -22.73,97.84 -0.14,37.34 7.09,70 21.77,97.98 14.68,27.84 34.52,49.61 59.46,64.9 24.94,15.3 52.99,23.02 84.06,23.16 31.01,0.13 59.05,-7.31 84.2,-22.33zm-51.75 -762.88l0 0 227.59 1.24 -209.33 168.12 -158.75 -0.69 140.49 -168.67z"/>
   <polygon class="fil1" points="6949.78,14809.98 7199.47,14811.22 7196.72,15358.44 7531.17,15360.09 7530.2,15553.7 6946.05,15550.81 "/>
   <polygon class="fil1" points="8348.83,14817.01 8345.11,15557.84 8139.85,15556.88 7860.04,15218.84 7858.32,15555.36 7614.95,15554.12 7618.67,14813.29 7823.93,14814.39 8103.81,15152.28 8105.46,14815.77 "/>
   <path class="fil1" d="M8655.37 15526.56c-63.39,-33.35 -112.93,-79.79 -148.55,-138.91 -35.69,-58.98 -53.4,-125.67 -53.05,-199.68 0.41,-74.13 18.81,-140.42 55.05,-199.26 36.24,-58.71 86.26,-104.45 149.93,-137.39 63.59,-32.8 135.32,-49.06 215.11,-48.64 79.72,0.41 151.17,17.36 214.56,50.85 63.32,33.48 112.79,79.78 148.48,138.9 35.77,59.12 53.4,125.68 52.99,199.82 -0.34,74 -18.67,140.42 -54.99,199.12 -36.31,58.71 -86.26,104.6 -149.86,137.39 -63.73,32.8 -135.39,49.06 -215.11,48.65 -79.79,-0.41 -151.31,-17.37 -214.56,-50.85zm299.8 -173.64l0 0c25.14,-15.02 45.19,-36.51 60.14,-64.21 14.96,-27.84 22.54,-60.36 22.67,-97.84 0.21,-37.35 -7.02,-70.01 -21.7,-97.98 -14.61,-27.97 -34.52,-49.47 -59.46,-64.91 -25.02,-15.29 -52.99,-23.01 -83.99,-23.15 -31.08,-0.14 -59.19,7.31 -84.27,22.33 -25.15,15.15 -45.13,36.52 -60.15,64.35 -14.95,27.7 -22.53,60.36 -22.74,97.7 -0.14,37.49 7.1,70.01 21.77,98.12 14.68,27.84 34.52,49.47 59.46,64.77 24.95,15.3 52.99,23.01 84.06,23.15 31.01,0.14 59.06,-7.3 84.21,-22.33z"/>
   <polygon class="fil1" points="9697.72,15319.03 9641.36,15381.31 9640.39,15564.32 9394.9,15563.08 9398.62,14822.24 9644.12,14823.48 9642.8,15092.34 9887.54,14824.72 10159.5,14826.1 9861.64,15150.63 10170.59,15567.07 9881.69,15565.56 "/>
   <path class="fil1" d="M10301.37 15564.04c-58.15,-14.05 -105.83,-32.8 -143.04,-56.36l81.3 -181.63c35.14,20.67 74.56,37.35 118.24,49.89 43.68,12.54 85.71,18.88 125.88,19.15 34.59,0.14 59.26,-3.17 74.14,-9.78 14.81,-6.48 22.32,-16.54 22.4,-30.04 0.06,-15.44 -9.58,-27.15 -28.94,-35.01 -19.37,-7.85 -51.2,-16.53 -95.71,-25.9 -57.05,-12.27 -104.59,-25.36 -142.63,-39.41 -38.03,-13.92 -71.1,-36.66 -99.15,-68.22 -28.11,-31.41 -41.96,-74 -41.68,-127.74 0.27,-46.58 13.5,-88.74 39.82,-126.78 26.26,-37.9 65.46,-67.66 117.34,-89.3 52.02,-21.63 115.07,-32.24 189.14,-31.97 50.78,0.28 100.65,6.07 149.57,17.23 49.06,11.16 92.13,27.42 129.47,48.78l-76.07 180.66c-72.48,-37.07 -141.16,-55.81 -206.07,-56.08 -64.22,-0.42 -96.32,15.02 -96.53,46.02 -0.07,14.89 9.37,26.05 28.39,33.49 19.01,7.58 50.36,15.57 94.05,24.25 56.36,10.89 103.96,23.43 142.68,37.35 38.73,13.91 72.35,36.51 100.8,67.66 28.32,31.14 42.38,73.59 42.1,127.19 -0.13,46.58 -13.5,88.75 -39.68,126.23 -26.32,37.62 -65.46,67.39 -117.48,89.43 -51.88,21.92 -114.92,32.8 -189.06,32.39 -61.32,-0.28 -121.13,-7.44 -179.28,-21.5z"/>
   <polygon class="fil1" points="11570.6,15380.49 11569.64,15574.1 10889.16,15570.66 10889.99,15417.28 11230.64,15025.23 10902.53,15023.58 10903.49,14829.96 11556.41,14833.13 11555.72,14986.64 11215.07,15378.56 "/>
   <polygon class="fil1" points="11822.23,15028.26 11605.19,15027.16 11606.15,14833.41 12289.94,14836.85 12288.97,15030.6 12071.93,15029.5 12069.17,15576.58 11819.47,15575.34 "/>
   <path class="fil1" d="M12834.95 15451.32l-281.53 -1.38 -50.3 128.85 -254.11 -1.24 327.56 -739.18 245.57 1.24 320.11 742.48 -258.24 -1.37 -49.06 -129.4zm-67.8 -180.25l0 0 -71.1 -186.58 -72.9 185.89 144 0.69z"/>
   <path class="fil1" d="M13101.6 15260.05l472.67 -346.86 73.58 106.25 -472.8 346.85 -73.45 -106.24zm121.68 -418.52l0 0 249.7 1.25 -2.75 547.21 334.45 1.66 -0.97 193.75 -584.15 -3.03 3.72 -740.84z"/>
   <path class="fil1" d="M14049.56 15554.4c-62.71,-33.21 -111.76,-79.24 -147.04,-138.36 -35.28,-59.12 -52.78,-126.09 -52.51,-200.92 0.42,-74.69 18.61,-141.52 54.58,-200.23 35.82,-58.7 85.3,-104.31 148.27,-136.84 62.98,-32.52 133.67,-48.5 211.94,-48.23 71.94,0.42 136.15,13.51 192.38,39.14 56.36,25.77 102.66,62.56 139.18,110.79l-158.34 140.01c-45.61,-58.15 -99.49,-87.37 -161.5,-87.64 -52.23,-0.28 -94.26,16.26 -126.23,49.61 -31.83,33.35 -48.1,78.27 -48.37,134.77 -0.28,56.36 15.43,101.42 46.99,135.05 31.56,33.76 73.45,50.71 125.68,50.99 62.15,0.27 116.17,-28.39 162.33,-85.99l157.1 141.52c-37.07,47.82 -83.79,84.34 -140.29,109.42 -56.64,25.08 -120.85,37.48 -192.79,37.06 -78.4,-0.27 -148.82,-17.08 -211.38,-50.15z"/>
   <path class="fil1" d="M15175.96 15463.17l-281.53 -1.38 -50.3 128.85 -254.11 -1.38 327.56 -739.18 245.57 1.24 320.12 742.49 -258.25 -1.24 -49.06 -129.4zm-67.93 -180.25l0 0 -71.11 -186.58 -72.76 185.89 143.87 0.69zm158.19 528.89l0 0c-29.49,-23.42 -44.23,-55.26 -43.96,-95.5 0.14,-38.72 15.72,-73.31 46.58,-103.49 30.87,-30.18 74.55,-53.88 131.05,-71.24l83.38 52.23c-44.51,19.56 -75.94,37.2 -93.99,53.05 -18.05,15.71 -27.14,32.11 -27.14,49.06 -0.14,12.68 4.54,23.01 14.05,31.28 9.51,8.13 23.43,12.27 41.76,12.4 20.53,0.14 41.34,-4.82 62.56,-14.47l27.97 98.53c-12.67,6.89 -30.17,12.68 -52.36,17.23 -22.33,4.41 -44.65,6.62 -67.25,6.48 -52.23,-0.28 -93.16,-12.13 -122.65,-35.56z"/>
   <path class="fil1" d="M15700.44 15562.66c-62.7,-33.21 -111.62,-79.24 -146.89,-138.35 -35.42,-59.12 -52.92,-125.95 -52.51,-200.78 0.41,-74.83 18.6,-141.67 54.44,-200.37 35.96,-58.7 85.43,-104.32 148.41,-136.84 62.84,-32.52 133.53,-48.5 211.94,-48.09 71.94,0.27 136.01,13.37 192.37,39 56.23,25.77 102.67,62.7 139.19,110.79l-158.48 140.01c-45.61,-58.02 -99.36,-87.23 -161.5,-87.64 -52.23,-0.28 -94.26,16.26 -126.23,49.74 -31.83,33.35 -47.96,78.14 -48.23,134.64 -0.28,56.36 15.43,101.56 46.85,135.18 31.7,33.63 73.59,50.58 125.81,50.86 62.02,0.41 116.17,-28.26 162.34,-85.99l156.96 141.52c-36.93,47.95 -83.65,84.33 -140.29,109.41 -56.5,25.09 -120.85,37.49 -192.79,37.21 -78.27,-0.41 -148.82,-17.23 -211.39,-50.3z"/>
   <polygon class="fil1" points="16948.95,15412.87 16947.98,15601.25 16332.14,15598.08 16335.86,14857.24 16937.92,14860.28 16937.09,15048.65 16580.46,15046.86 16579.91,15133.68 16893.27,15135.34 16892.31,15315.17 16579.08,15313.65 16578.53,15410.94 "/>
   <polygon class="fil1" points="5948.7,16039.6 6019.25,16040.02 6016.77,16533.9 5946.22,16533.49 "/>
   <polygon class="fil1" points="6629.86,16536.94 6630.96,16177.13 6450.92,16476.03 6418.47,16475.89 6241.46,16177.27 6239.67,16535.01 6171.94,16534.59 6174.42,16040.7 6232.3,16040.98 6436.59,16389.21 6641.51,16043.05 6699.38,16043.32 6697.59,16537.21 "/>
   <path class="fil1" d="M6825.41 16528.39c-9.44,-9.23 -14.06,-20.81 -13.99,-35 0.07,-13.64 4.82,-25.08 14.33,-34.18 9.37,-9.09 20.74,-13.64 33.9,-13.5 13.16,0 24.18,4.55 33.14,13.5 8.82,8.96 13.23,20.54 13.16,34.73 -0.07,14.06 -4.68,25.63 -13.85,34.87 -9.3,9.09 -20.19,13.5 -32.93,13.5 -13.16,-0.14 -24.46,-4.68 -33.76,-13.92z"/>
   <path class="fil1" d="M7532.2 16418.01l-262.44 -1.38 -54.99 123.2 -72.62 -0.28 226.13 -492.78 69.87 0.27 221.87 495.13 -74.07 -0.41 -53.75 -123.75zm-24.39 -56.5l0 0 -105.28 -242.67 -107.83 241.57 213.11 1.1z"/>
   <path class="fil1" d="M7742.9 16048.7l208.16 0.96c52.22,0.28 98.46,10.89 138.83,31.84 40.31,20.8 71.53,50.02 93.64,87.5 22.19,37.62 33.21,80.62 32.94,128.98 -0.28,48.51 -11.72,91.37 -34.18,128.57 -22.53,37.35 -54.02,66.15 -94.6,86.69 -40.51,20.53 -86.89,30.59 -139.11,30.31l-208.16 -0.96 2.48 -493.89zm201.75 433.53l0 0c39.96,0.14 75.17,-7.44 105.56,-22.88 30.45,-15.29 53.95,-36.93 70.55,-64.76 16.61,-27.98 24.94,-60.36 25.15,-97.02 0.21,-36.66 -7.86,-69.04 -24.18,-97.01 -16.33,-28.11 -39.55,-50.03 -69.87,-65.73 -30.25,-15.58 -65.32,-23.57 -105.28,-23.71l-133.4 -0.69 -1.92 371.11 133.39 0.69z"/>
   <path class="fil1" d="M8638.42 16423.52l-262.45 -1.24 -54.98 123.2 -72.62 -0.41 226.14 -492.79 69.86 0.41 221.87 494.99 -74.07 -0.41 -53.75 -123.75zm-24.39 -56.5l0 0 -105.28 -242.53 -107.83 241.43 213.11 1.1z"/>
   <polygon class="fil1" points="9304.63,16550.44 9305.74,16190.63 9125.69,16489.53 9093.24,16489.39 8916.23,16190.77 8914.44,16548.51 8846.71,16548.1 8849.19,16054.21 8907.07,16054.48 9111.36,16402.71 9316.28,16056.55 9374.16,16056.83 9372.36,16550.72 "/>
   <path class="fil1" d="M9842.83 16429.73l-262.45 -1.38 -54.98 123.19 -72.63 -0.41 226.14 -492.79 69.87 0.42 221.86 494.99 -74.07 -0.41 -53.74 -123.61zm-24.39 -56.64l0 0 -105.29 -242.54 -107.83 241.43 213.12 1.11z"/>
   <polygon class="fil1" points="10705.88,16557.47 10706.99,16197.66 10526.95,16496.7 10494.5,16496.42 10317.49,16197.8 10315.7,16555.54 10247.97,16555.13 10250.45,16061.24 10308.33,16061.51 10512.62,16409.74 10717.53,16063.58 10775.4,16063.99 10773.61,16557.88 "/>
   <polygon class="fil1" points="10931.19,16064.68 11001.75,16065.1 10999.27,16558.98 10928.71,16558.57 "/>
   <path class="fil1" d="M11241.8 16533.08c-39.55,-22.19 -70.55,-52.37 -93.02,-90.82 -22.46,-38.44 -33.34,-81.71 -33.21,-129.67 0.28,-47.95 11.72,-91.09 34.46,-129.26 22.87,-38.17 54.29,-68.21 94.39,-89.85 40.1,-21.63 84.75,-32.38 134.22,-32.1 38.45,0.13 73.73,6.75 105.7,19.84 31.97,13.23 59.11,32.52 81.58,57.88l-46.03 44.23c-37.07,-39.14 -83.23,-58.98 -138.77,-59.25 -36.65,-0.14 -69.86,7.99 -99.63,24.25 -29.63,16.26 -53.06,38.86 -69.87,67.8 -16.81,28.8 -25.22,61.04 -25.49,96.88 -0.14,35.69 7.99,68.07 24.53,97.15 16.54,28.94 39.69,51.67 69.17,68.35 29.63,16.67 62.71,25.08 99.36,25.21 54.98,0.28 101.56,-19.29 139.32,-58.56l45.61 44.65c-22.73,25.35 -50.15,44.51 -82.54,57.46 -32.25,12.96 -67.66,19.43 -106.25,19.3 -49.33,-0.28 -93.84,-11.44 -133.53,-33.49z"/>
   <polygon class="fil1" points="11833.67,16343.74 11742.85,16434.96 11742.17,16562.71 11671.61,16562.29 11674.09,16068.4 11744.65,16068.82 11743.27,16344.7 12012.81,16070.2 12093.29,16070.61 11881.21,16291.78 12104.18,16564.5 12021.63,16564.09 "/>
   <polygon class="fil1" points="12188.52,16071.02 12259.07,16071.43 12256.59,16565.32 12186.03,16564.91 "/>
   <polygon class="fil1" points="12770.46,16506.48 12770.18,16567.94 12411.76,16566.01 12414.24,16072.12 12762.74,16073.91 12762.47,16135.38 12484.52,16134 12483.69,16285.58 12731.32,16286.82 12731.05,16346.9 12483.41,16345.67 12482.59,16505.1 "/>
   <polygon class="fil1" points="13584.74,16078.05 13417.04,16571.11 13343.03,16570.84 13210.19,16175.75 13073.49,16569.46 12997.97,16569.05 12835.37,16074.33 12907.99,16074.74 13039.45,16476.85 13180.42,16076.12 13245.33,16076.39 13379.42,16480.58 13517.63,16077.77 "/>
   <polygon class="fil1" points="13677.9,16078.6 13748.45,16078.88 13745.97,16572.77 13675.42,16572.49 "/>
   <path class="fil1" d="M13988.37 16546.86c-39.55,-22.05 -70.56,-52.23 -93.02,-90.81 -22.46,-38.45 -33.35,-81.72 -33.21,-129.68 0.28,-47.95 11.71,-91.09 34.45,-129.26 22.88,-38.17 54.3,-68.07 94.4,-89.85 40.1,-21.63 84.75,-32.38 134.22,-32.1 38.44,0.13 73.72,6.89 105.69,19.98 31.97,13.09 59.12,32.38 81.58,57.87l-46.02 44.24c-37.07,-39.28 -83.24,-58.98 -138.77,-59.26 -36.66,-0.27 -69.87,7.86 -99.63,24.26 -29.63,16.26 -53.06,38.86 -69.87,67.66 -16.81,28.8 -25.22,61.19 -25.49,96.88 -0.14,35.82 7.99,68.07 24.53,97.15 16.53,29.07 39.68,51.81 69.17,68.49 29.63,16.53 62.71,24.94 99.36,25.22 54.98,0.27 101.56,-19.3 139.32,-58.71l45.61 44.78c-22.73,25.22 -50.16,44.38 -82.54,57.33 -32.25,13.09 -67.66,19.43 -106.25,19.29 -49.33,-0.27 -93.84,-11.43 -133.53,-33.48z"/>
   <polygon class="fil1" points="14787.63,16516.68 14787.36,16578 14374.5,16575.93 14374.77,16527.98 14687.17,16145.02 14381.66,16143.51 14381.94,16082.05 14780.6,16084.11 14780.47,16132.07 14469.3,16515.02 "/>
   <path class="fil1" d="M15204.07 16456.73l-262.37 -1.37 -54.99 123.19 -72.62 -0.41 226.14 -492.65 69.86 0.28 221.87 494.99 -74.14 -0.28 -53.75 -123.75zm-24.39 -56.63l0 0 -105.28 -242.54 -107.76 241.44 213.04 1.1z"/>
   <polygon class="fil1" points="8848.44,16900.87 8680.8,17393.94 8606.73,17393.53 8473.95,16998.58 8337.25,17392.28 8261.73,17391.87 8099.2,16897.16 8171.75,16897.43 8303.14,17299.68 8444.12,16898.81 8509.02,16899.22 8643.18,17303.4 8781.39,16900.6 "/>
   <path class="fil1" d="M9492.39 16950.07c36.59,30.73 54.64,72.9 54.43,126.51 -0.27,53.6 -18.81,95.63 -55.74,126.09 -36.79,30.31 -87.23,45.33 -151.17,45.06l-122.09 -0.69 -0.76 149.65 -70.56 -0.41 2.48 -493.89 192.65 0.97c63.94,0.41 114.24,15.85 150.76,46.71zm-51.81 208.22l0 0c23.56,-19.01 35.48,-46.3 35.69,-81.99 0.14,-35.83 -11.51,-63.25 -34.86,-82.4 -23.5,-19.16 -57.54,-28.95 -102.19,-29.08l-119.95 -0.69 -1.18 221.59 119.96 0.55c44.65,0.27 78.82,-9.1 102.53,-27.98z"/>
   <path class="fil1" d="M9751.26 17372.16c-39.83,-22.04 -71.11,-52.36 -93.71,-91.08 -22.67,-38.73 -33.76,-81.72 -33.56,-129.26 0.28,-47.54 11.86,-90.54 34.87,-128.99 22.94,-38.45 54.57,-68.48 94.6,-90.26 40.1,-21.63 85.1,-32.38 134.98,-32.11 49.4,0.28 93.98,11.44 133.88,33.49 39.89,22.18 70.97,52.36 93.43,90.81 22.32,38.45 33.42,81.72 33.14,129.67 -0.21,47.96 -11.78,91.09 -34.45,129.27 -22.81,38.3 -54.23,68.21 -94.33,89.84 -40.17,21.64 -84.82,32.39 -134.22,32.11 -49.88,-0.27 -94.81,-11.44 -134.63,-33.49zm232.75 -53.46l0 0c29.01,-16.4 51.95,-38.86 68.83,-67.8 16.81,-28.8 25.29,-61.05 25.49,-96.88 0.21,-35.69 -7.99,-68.07 -24.53,-97.15 -16.6,-28.94 -39.27,-51.81 -68.14,-68.35 -28.87,-16.67 -61.32,-25.08 -97.56,-25.22 -36.25,-0.27 -69.11,7.86 -98.53,24.26 -29.49,16.26 -52.71,38.85 -69.53,67.66 -16.81,28.93 -25.28,61.18 -25.49,96.87 -0.21,35.83 7.99,68.21 24.53,97.15 16.54,29.08 39.48,51.82 68.83,68.49 29.29,16.54 62.01,24.95 98.26,25.22 36.24,0.14 68.83,-7.99 97.84,-24.25z"/>
   <polygon class="fil1" points="10626.44,17342.4 10626.09,17403.72 10213.31,17401.65 10213.59,17353.7 10525.99,16970.74 10220.48,16969.23 10220.76,16907.76 10619.41,16909.83 10619.2,16957.79 10308.19,17340.75 "/>
   <polygon class="fil1" points="11154.85,16912.59 11152.37,17406.48 11094.49,17406.06 10800.07,17036.34 10798.21,17404.69 10727.66,17404.27 10730.14,16910.39 10788.01,16910.66 11082.5,17280.53 11084.29,16912.17 "/>
   <path class="fil1" d="M11622.83 17285.35l-262.38 -1.38 -54.98 123.2 -72.63 -0.28 226.14 -492.79 69.87 0.28 221.86 494.99 -74.14 -0.27 -53.74 -123.75zm-24.39 -56.64l0 0 -105.28 -242.53 -107.77 241.57 213.05 0.96z"/>
   <polygon class="fil1" points="12258.38,16918.1 12255.9,17411.99 12198.02,17411.71 11903.53,17041.85 11901.74,17410.2 11831.19,17409.79 11833.67,16915.9 11891.55,16916.31 12186.03,17286.04 12187.82,16917.69 "/>
   <polygon class="fil1" points="12413.55,16918.93 12484.1,16919.21 12481.62,17413.09 12411.07,17412.82 "/>
   <path class="fil1" d="M12687.91 17363.35c-36.51,-37.76 -54.57,-91.92 -54.15,-162.48l1.38 -280.84 70.55 0.28 -1.38 278.08c-0.55,105.84 45.48,158.89 138.22,159.45 45.06,0.27 79.79,-12.68 103.9,-38.73 24.12,-25.91 36.39,-65.73 36.66,-119.34l1.38 -278.08 68.35 0.41 -1.38 280.84c-0.41,70.97 -19.02,125.13 -55.81,162.34 -36.93,37.2 -88.33,55.67 -154.06,55.25 -65.87,-0.27 -117.14,-19.29 -153.66,-57.18z"/>
  </g>
  <g id="_2218974994624">
   <path class="fil0" d="M11688.78 9570.66c0,0 85.16,-8.86 115.15,-17.19 68.66,-19.09 -53.37,-56.91 -53.37,-56.91 0,0 5.84,23.88 -15.11,41.66 -20.96,17.78 -46.67,32.44 -46.67,32.44z"/>
   <path class="fil0" d="M10237.8 8307.63c13.41,0.68 228.07,-78.5 267.01,-100.71 197.75,-82.27 227.97,-194.51 438.77,-175.15 155.25,14.25 182.73,158.52 350.07,235.12 -33.8,-18.06 -219.95,-125.58 -75.26,-233.64 158.58,-118.44 30.86,-208.51 -198.12,-316.97 -228.98,-108.47 -509.63,-19.16 -509.63,-19.16 0,0 0.55,-0.49 1.5,-1.32 -16.07,4.62 -31.98,9.58 -47.82,14.73 89.08,-6.07 173.82,-9.1 239.95,-9.77 174.79,-1.78 240.26,140.33 240.26,140.33 0,0 -109.31,-78.05 -185.31,-81.42 -82.12,-3.63 -114.96,57.55 -114.96,57.55 0,0 -33.44,111.62 -123.04,146.94 -99.22,39.11 -169.9,-0.86 -402.41,-2.03 -232.5,-1.17 -367.06,83.1 -367.06,83.1 0,0 254.95,-18.18 214.17,90.51 -17.57,46.8 -81.03,106.9 -318.02,110.18 -103.44,1.43 -182.26,22.58 -238.27,45.96 -71.85,82.52 -135.48,172.39 -188.72,268.96 64.78,-35.64 131.01,-62.93 193.29,-79.12 219.38,-57.02 304.58,-105.77 370.46,-141.21 65.87,-35.44 166.92,-21.52 337.82,19.59 170.9,41.1 101.91,-53.15 115.32,-52.47z"/>
   <path class="fil0" d="M11811.2 9292.74c-94.09,-75.62 -211.23,-80.12 -289.02,-23.88 -77.79,56.25 -1.02,202.7 -1.02,202.7 0,0 59.82,-41.43 137.31,-38.06 77.48,3.37 187.67,24.79 255.87,96.68 -17.53,-71.64 -20.63,-171.13 -103.14,-237.44z"/>
   <path class="fil0" d="M9160.4 10045.41c186.19,-171.72 283.56,-369.69 283.56,-369.69 0,0 9.23,290.68 -139.56,535.85 -148.79,245.18 164.76,345.52 164.76,345.52 0,0 -3.25,0.49 -8.97,1.26 3.92,1.86 7.84,3.73 11.75,5.6 -0.97,12.62 -3.91,24.65 -3.97,37.51 -0.31,62.75 10.95,122.71 30.85,178.6 53.89,-26.42 169.69,-95.39 274.75,-239.72 142.69,-196.02 25.6,-370.99 56.74,-616.75 31.13,-245.77 -158.3,-251.2 -179.4,-501.7 -21.09,-250.5 139.88,-249.69 292.3,-329.4 54.71,-28.61 73.42,-63.12 75.34,-95.67 95.02,93.93 -107.55,166.96 -198.85,352.89 -96.38,196.25 -1.53,304.04 69.17,519.15 70.7,215.11 -1.76,349.59 33.13,476.98 34.88,127.39 184.8,0.93 160.51,90.24 -21.75,79.91 -86.03,193.16 -78.61,322.97 -110.69,61.04 -129.81,72.43 -232.33,179.23 -63.01,65.64 -132.91,39.17 -189.75,-8.02 37.71,47.52 83.58,88.06 135.35,120.17 127.55,-60.7 53.13,-179.56 306.41,-160.02 65.18,-0.58 195.27,49.74 324.37,99.41 0.48,-0.44 1.02,-0.82 1.5,-1.27 1.22,1.16 2.58,2.16 3.8,3.31 75.74,29.13 150.84,57.82 211.95,75.61 166.69,48.54 247.24,34.04 378.38,37.68 131.14,3.64 363.93,-51.82 426.75,-96.22 62.82,-44.4 51.35,-133.88 42.73,-196.52 -8.63,-62.64 -74.21,-62.97 -196.44,-60.61 -122.23,2.37 -250.26,58.36 -250.26,58.36 0,0 -21.93,-96.52 54.71,-145.55 53.42,-34.17 93.92,-30.05 136.53,-32.34 66.05,-3.57 152.01,3.75 232.58,-13.73 80.57,-17.48 -23.5,-68.69 -118.87,-72.14 -95.37,-3.47 -116.32,14.31 -271.34,16.51 -155.02,2.2 -146.17,20.13 -205.81,25.8 -59.65,5.66 -122.42,41.11 -122.42,41.11 0,0 51.24,-113.01 111,-142.52 59.77,-29.51 66.93,-7.68 148.57,-20.12 132.52,-20.2 212.35,-25.76 212.35,-25.76 0,0 29.56,50.83 73.56,45.09 43.99,-5.75 72.49,-41.37 72.49,-41.37 0,0 110.17,24.4 169.78,24.7 59.62,0.3 48.71,-59.51 78,-97.98 29.28,-38.46 89.57,-29.35 119.49,-49.94 29.91,-20.58 21.01,-29.83 30.27,-92.38 9.26,-62.56 134.96,-163.27 227.67,-222.42 92.7,-59.15 48.43,-145.82 12.96,-206.74 -35.46,-60.92 -74.27,-49.93 -74.27,-49.93 0,0 -10.35,-58.9 -26.3,-68.21 -15.95,-9.32 -62.6,-36.57 -107.33,-33.81 -44.72,2.76 -95.2,-36.25 -139.81,-57.34 -44.6,-21.09 -163.7,-48.52 -181.66,-33.71 -17.96,14.82 17.51,74.61 49.99,134.4 32.5,59.78 -39.6,169.71 -67.53,184.6 -27.92,14.89 -0.58,115.71 0.32,139.97 0.9,24.26 113.06,42.3 113.06,42.3 0,0 20.25,122.33 14.05,169.99 -6.2,47.66 -51.15,95.13 -98.83,91.91 -47.68,-3.23 -69.05,-85.41 -118.42,-57.24 -49.37,28.17 -93.2,53.19 -102.03,29.3 -8.82,-23.89 -11.53,-77.56 -23.85,-109.45 -12.33,-31.88 -73.75,-43.07 -139.3,-49.36 -65.54,-6.29 -113.37,20.29 -113.37,20.29 0,0 0.42,-83.46 20.82,-107.2 20.4,-23.75 134.61,24.52 229.87,48.85 95.26,24.32 167.16,-46.85 167.37,-88.58 0.21,-41.73 0.42,-83.47 -28.96,-167.08 -29.39,-83.61 1.02,-202.7 1.02,-202.7 0.39,-77.5 1.29,-256.34 1.68,-333.84 0.39,-77.51 143.89,-160.25 311.2,-236.91 167.32,-76.66 161.75,-154.19 162.14,-231.69 0.39,-77.5 4.58,-180.74 -58.12,-298.38 -54.26,-101.84 -195.69,-177.62 -299.63,-221.92 -170.76,7.44 -307.76,81.74 -307.76,81.74 0,0 -184.3,-102.28 -458.77,-55.97 -274.46,46.31 -439.13,118.81 -602.78,128.12 -93.26,5.31 -126.94,58.61 -154.25,125.42 -48.97,-19.99 -416.73,-130.12 -559.33,104.21 -43.8,71.97 -176.11,341.2 -320.09,520.98 -93,116.12 -153.66,144.21 -185.09,149.64 -0.15,1.03 -0.41,2.01 -0.55,3.04 -138.5,46.52 -239.23,175.6 -240.01,329.86 -0.21,41.94 7.37,81.89 20.95,119 -1.1,-49.22 1.12,-100.55 8.97,-153.58 48.6,-328.4 541.93,-178.36 718.07,-528.47 0,0 286.02,618.72 -222.87,750.06 -404.93,104.51 -410.93,289.7 -398.92,355.53 44.54,97.52 116.32,179.76 205.92,237.13 -52.85,-74.68 -11.55,-206.77 236.92,-435.94zm1789.42 -770.49l0 0c-29.55,-50.83 -41.27,-92.62 -187.4,-78.45 -146.13,14.17 -319.67,144.46 -319.67,144.46 0,0 128.67,-154.86 224.4,-168.78 95.75,-13.93 131.28,-23.19 101.61,-50.17 -29.68,-26.97 -267.93,-66.93 -267.93,-66.93 0,0 325,-19.23 414.31,2.09 89.32,21.32 184.35,93.34 190.22,111.25 5.87,17.92 -69.11,109.94 -69.11,109.94l-53.66 -0.26c0,0 29.57,46.98 20.36,101.02 -9.22,54.04 -97.24,104.27 -97.24,104.27l-58.52 44.89c0,0 -5.6,-72.04 -71.09,-87.27 -16.79,-3.91 -37.36,-5.82 -59.69,-6.14 5.49,11.67 9.08,24.35 9.02,38.1 -0.25,49.44 -40.53,89.31 -89.96,89.07 -49.43,-0.25 -89.3,-40.53 -89.05,-89.97 0.02,-5.24 2.16,-9.78 3.06,-14.78 -9.68,2.88 -18.72,5.98 -26.88,9.27 -65.72,26.49 -176.09,43.82 -176.09,43.82 0,0 194.38,-125.07 304.71,-133.03 110.33,-7.96 181.73,19.23 193.6,31.21 11.86,11.98 104.48,-29.71 104.48,-29.71 0,0 30.07,-53.08 0.52,-103.9zm-1368.37 -264.74l0 0c2.99,-402.43 363.97,-355.87 363.97,-355.87l-0.5 98.37c0,0 -119.42,36.66 -219.85,150.91 -89.25,101.53 -122.47,345.44 -122.47,345.44 0,0 -22.71,-28.65 -21.15,-238.85z"/>
  </g>
 </g>
</svg>
