<?xml version="1.0" encoding="UTF-8"?>
<!DOCTYPE svg PUBLIC "-//W3C//DTD SVG 1.1//EN" "http://www.w3.org/Graphics/SVG/1.1/DTD/svg11.dtd">
<!-- Creator: CorelDRAW 2018 (64-Bit) -->
<svg xmlns="http://www.w3.org/2000/svg" xml:space="preserve" width="210mm" height="297mm" version="1.1" style="shape-rendering:geometricPrecision; text-rendering:geometricPrecision; image-rendering:optimizeQuality; fill-rule:evenodd; clip-rule:evenodd"
viewBox="0 0 21000 29700"
 xmlns:xlink="http://www.w3.org/1999/xlink">
 <defs>
  <style type="text/css">
   <![CDATA[
    .fil0 {fill:#064169;fill-rule:nonzero}
   ]]>
  </style>
 </defs>
 <g id="Warstwa_x0020_1">
  <metadata id="CorelCorpID_0Corel-Layer"/>
  <path class="fil0" d="M7321.08 4569.74c0,-637.72 -516.97,-1154.7 -1154.69,-1154.7 -12.65,0 -25.16,0.55 -37.71,0.96 -11.61,-0.27 -22.88,-0.96 -34.7,-0.96 -491.93,0 -1024.74,374.83 -1587,799.14l-465.99 364.69c0.09,0.07 0.19,0.13 0.28,0.21 -2.91,2.16 -5.87,4.29 -8.8,6.45l-15.21 11.91 -0.36 -0.46c-335.83,247.43 -706.31,473.14 -968.97,540.5 -10.73,3.84 -22,6.85 -33.86,8.87 -12.66,2.15 -24.28,3.81 -36.36,5.68 0.01,0 0.02,0 0.03,-0.01 -7.12,1.08 -14.52,2.57 -21.42,3.34 -158.03,23.03 -267.66,22.23 -361.37,16.91 -431.67,-24.47 -818.78,-277.67 -818.78,-601.61 0,-47.36 9.44,-90.78 25.36,-131.14 87.99,-258.37 425.11,-448.31 795.86,-469.33 104.77,-5.94 228.99,-6.48 419.11,25.92 2.45,0.42 4.6,1.33 7.01,1.83 -0.43,-0.09 -0.83,-0.12 -1.26,-0.2 268.57,55.3 621.54,289.26 973.57,547.88l465.8 -364.54c-546,-410.45 -1063.87,-766.04 -1542.91,-766.04 -11.82,0 -23.09,0.69 -34.7,0.96 -12.55,-0.41 -25.06,-0.96 -37.7,-0.96 -637.72,0 -1154.7,516.98 -1154.7,1154.7 0,5.55 0.34,11.03 0.42,16.57 -0.08,2.77 -0.42,5.48 -0.42,8.27 0,7.22 0.77,14.25 0.89,21.44l0.23 10.99c0.01,6.36 0.57,12.59 0.99,18.85 0.1,2.49 0.77,5.01 1.24,7.53 42.74,596.22 537.86,1067.11 1144.12,1070.85 38.84,2.67 78.45,4.53 119.77,4.53 469.57,0 993.32,-366.57 1547.5,-785.65 0.49,0.37 0.98,0.74 1.48,1.11l465.13 -364.02c-0.51,-0.38 -1.03,-0.75 -1.54,-1.13 366.93,-271.68 738.89,-523.66 1019.02,-581.34 -0.43,0.08 -0.82,0.11 -1.26,0.2 2.41,-0.5 4.56,-1.41 7.01,-1.83 190.12,-32.4 314.34,-31.86 419.12,-25.92 370.74,21.02 707.86,210.96 795.85,469.33 15.92,40.36 25.36,83.78 25.36,131.14 0,323.94 -387.11,577.14 -818.78,601.61 -93.71,5.32 -203.33,6.12 -361.36,-16.91 -6.91,-0.77 -14.31,-2.26 -21.43,-3.34 0.01,0.01 0.02,0.01 0.03,0.01 -12.08,-1.87 -23.7,-3.53 -36.35,-5.68 -11.87,-2.02 -23.14,-5.03 -33.87,-8.87 -256.83,-65.86 -616.76,-283.12 -946.57,-524.05l-465.66 364.43c537.06,404.31 1044.82,750.91 1501.31,750.91 41.32,0 80.93,-1.86 119.77,-4.53 606.26,-3.74 1101.38,-474.63 1144.12,-1070.85 0.47,-2.52 1.14,-5.04 1.24,-7.53 0.42,-6.26 0.98,-12.49 1,-18.85l0.22 -10.99c0.12,-7.19 0.89,-14.22 0.89,-21.44 0,-2.79 -0.34,-5.5 -0.42,-8.27 0.08,-5.54 0.42,-11.02 0.42,-16.57z"/>
  <g id="_2219134696000">
   <polygon class="fil0" points="9358.4,4168.94 8948.97,5123.58 8631.94,5122.01 8232.23,4163.25 8579.41,4165 8804.73,4725.16 9041.31,4167.34 "/>
   <polygon class="fil0" points="9410.35,4169.2 9732.87,4170.83 9728.01,5127.53 9405.49,5125.9 "/>
   <polygon class="fil0" points="9909.27,4171.72 10231.79,4173.35 10226.93,5130.05 9904.4,5128.41 "/>
   <polygon class="fil0" points="10408.13,4174.23 10730.61,4175.84 10725.75,5132.53 10403.26,5130.93 "/>
   <polygon class="fil0" points="11337.5,4178.9 11660.02,4180.53 11656.42,4887.11 12088.33,4889.28 12087.07,5139.4 11332.63,5135.6 "/>
   <path class="fil0" d="M12407.08 5098.66c-81.76,-43.25 -145.73,-103.01 -191.79,-179.34 -46.11,-76.3 -68.88,-162.29 -68.42,-257.98 0.51,-95.67 24.14,-181.43 71,-257.24 46.86,-75.84 111.4,-135 193.61,-177.4 82.28,-42.43 174.8,-63.39 277.78,-62.85 102.93,0.51 195.34,22.4 277.16,65.63 81.76,43.25 145.72,103.04 191.78,179.34 46.06,76.32 68.89,162.32 68.37,257.98 -0.45,95.7 -24.14,181.46 -70.94,257.24 -46.86,75.87 -111.4,135 -193.62,177.4 -82.27,42.42 -174.85,63.36 -277.78,62.85 -102.99,-0.55 -195.33,-22.4 -277.15,-65.63zm387.29 -224.22l0 0c32.44,-19.46 58.3,-47.09 77.58,-83 19.34,-35.87 29.13,-77.98 29.36,-126.3 0.28,-48.26 -9.1,-90.42 -28.04,-126.56 -18.94,-36.07 -44.57,-63.99 -76.78,-83.73 -32.27,-19.77 -68.49,-29.73 -108.54,-29.92 -40.11,-0.23 -76.32,9.38 -108.82,28.8 -32.44,19.46 -58.31,47.09 -77.59,82.99 -19.39,35.91 -29.12,78.02 -29.41,126.28 -0.23,48.31 9.1,90.48 28.1,126.58 18.94,36.08 44.57,64 76.78,83.74 32.27,19.74 68.43,29.7 108.54,29.92 40.05,0.2 76.32,-9.41 108.82,-28.8z"/>
   <path class="fil0" d="M14528.05 4284.15c70.72,59.56 105.79,141.23 105.28,245.08 -0.52,103.81 -36.39,185.17 -107.74,244.05 -71.4,58.85 -169.01,87.94 -292.83,87.31l-236.41 -1.2 -1.49 289.62 -136.63 -0.69 4.86 -956.38 373.05 1.89c123.81,0.63 221.14,30.72 291.91,90.32zm-100.47 403.22l0 0c45.72,-36.67 68.77,-89.6 69.12,-158.83 0.34,-69.23 -22.14,-122.41 -67.51,-159.52 -45.38,-37.13 -111.29,-55.89 -197.8,-56.35l-232.29 -1.18 -2.18 429.03 232.3 1.18c86.51,0.45 152.65,-17.68 198.36,-54.33z"/>
   <path class="fil0" d="M15029.43 5101.64c-77.18,-42.74 -137.72,-101.59 -181.54,-176.51 -43.77,-74.84 -65.46,-158.32 -65,-250.32 0.46,-91.97 23,-175.22 67.51,-249.72 44.58,-74.43 105.68,-132.65 183.32,-174.62 77.64,-41.96 164.73,-62.7 261.25,-62.22 95.66,0.46 182.11,22.12 259.35,64.83 77.13,42.77 137.44,101.38 180.8,175.79 43.37,74.5 64.83,158.17 64.31,251.06 -0.45,92.92 -22.71,176.37 -66.82,250.35 -44.12,74.03 -104.99,132.02 -182.58,173.96 -77.69,42 -164.32,62.71 -259.99,62.25 -96.52,-0.48 -183.43,-22.11 -260.61,-64.85zm450.74 -103.62l0 0c56.19,-31.58 100.59,-75.32 133.2,-131.17 32.61,-55.84 49.09,-118.37 49.43,-187.6 0.35,-69.2 -15.5,-131.94 -47.54,-188.13 -32.04,-56.15 -75.98,-100.33 -131.83,-132.51 -55.89,-32.16 -118.89,-48.4 -189.04,-48.75 -70.14,-0.37 -133.77,15.25 -190.81,46.83 -57.1,31.62 -101.96,75.33 -134.57,131.17 -32.61,55.87 -49.15,118.44 -49.49,187.64 -0.34,69.23 15.56,131.94 47.6,188.09 32.04,56.16 76.44,100.36 133.2,132.51 56.76,32.19 120.21,48.41 190.36,48.78 70.14,0.35 133.31,-15.25 189.49,-46.86z"/>
   <polygon class="fil0" points="16723.98,5043.91 16723.35,5162.77 15924.11,5158.74 15924.56,5065.82 16529.5,4324.25 15937.9,4321.28 15938.52,4202.41 16710.47,4206.31 16709.96,4299.22 16107.83,5040.82 "/>
   <polygon class="fil0" points="17747.45,4211.54 17742.58,5167.92 17630.55,5167.35 17060.29,4451.3 17056.69,5164.46 16920.05,5163.77 16924.92,4207.39 17037,4207.94 17607.21,4924.04 17610.81,4210.85 "/>
   <path class="fil0" d="M18653.68 4933.4l-508.3 -2.58 -106.37 238.59 -140.75 -0.72 437.99 -954.2 135.25 0.68 429.63 958.59 -143.49 -0.74 -103.96 -239.62zm-47.26 -109.51l0 0 -203.97 -469.69 -208.67 467.6 412.64 2.09z"/>
   <path class="fil0" d="M19884.27 4222.3l-4.87 956.38 -112.02 -0.57 -570.27 -716.05 -3.6 713.16 -136.63 -0.69 4.86 -956.38 112.08 0.57 570.21 716.08 3.61 -713.19 136.63 0.69zm-328.02 -257.16l0 0 166.67 0.83 -230.46 176.48 -122.96 -0.63 186.75 -176.68z"/>
  </g>
 </g>
</svg>
