<?xml version="1.0" encoding="UTF-8"?>
<!DOCTYPE svg PUBLIC "-//W3C//DTD SVG 1.1//EN" "http://www.w3.org/Graphics/SVG/1.1/DTD/svg11.dtd">
<!-- Creator: CorelDRAW 2018 (64-Bit) -->
<svg xmlns="http://www.w3.org/2000/svg" xml:space="preserve" width="210mm" height="297mm" version="1.1" style="shape-rendering:geometricPrecision; text-rendering:geometricPrecision; image-rendering:optimizeQuality; fill-rule:evenodd; clip-rule:evenodd"
viewBox="0 0 21000 29700"
 xmlns:xlink="http://www.w3.org/1999/xlink">
 <defs>
  <style type="text/css">
   <![CDATA[
    .fil0 {fill:#064169;fill-rule:nonzero}
   ]]>
  </style>
 </defs>
 <g id="Warstwa_x0020_1">
  <metadata id="CorelCorpID_0Corel-Layer"/>
  <g id="_2218974992960">
   <polygon class="fil0" points="9951.18,9376.76 9949.19,9771.86 9875.81,9771.48 9877.5,9437.91 9793.95,9437.5 9794.26,9375.96 "/>
   <path class="fil0" d="M10292.69 9423.65c29.76,34 44.47,82.63 44.13,145.84 -0.21,44.39 -8.51,82.26 -24.84,113.61 -16.33,31.33 -39.14,55.1 -68.38,71.32 -29.21,16.23 -63.04,24.24 -101.38,24.05 -20.33,-0.1 -39.42,-2.36 -57.29,-6.78 -17.85,-4.41 -33.32,-10.79 -46.45,-19.14l27.36 -55.17c19.5,12.88 44.51,19.41 75,19.56 37.96,0.19 67.73,-11.33 89.33,-34.55 21.52,-23.22 32.44,-56.85 32.65,-100.85l0.03 -0.58c-11.74,13.49 -26.65,23.66 -44.77,30.53 -18.09,6.87 -38.42,10.25 -60.98,10.13 -25.94,-0.12 -49.27,-5.22 -69.9,-15.3 -20.67,-10.07 -36.76,-24.35 -48.34,-42.84 -11.57,-18.5 -17.29,-39.81 -17.19,-63.89 0.14,-25.58 6.65,-48.02 19.54,-67.35 12.88,-19.31 30.28,-34.17 52.19,-44.61 21.84,-10.41 46.34,-15.56 73.41,-15.42 54.16,0.28 96.14,17.41 125.88,51.44zm-63.25 121.59l0 0c14.92,-12.71 22.42,-28.85 22.53,-48.42 0.1,-19.19 -7.09,-35.12 -21.49,-47.8 -14.4,-12.7 -34.42,-19.11 -60.01,-19.23 -22.92,-0.12 -41.59,5.91 -55.95,18.07 -14.37,12.15 -21.57,28.39 -21.67,48.7 -0.11,20.71 6.92,37.1 21.18,49.23 14.23,12.13 33.39,18.23 57.44,18.35 23.73,0.12 43.02,-6.17 57.97,-18.9z"/>
   <path class="fil0" d="M10673.06 9713.41l-0.31 62.08 -291.28 -1.46 0.27 -49.11 157.65 -148.21c17.78,-16.85 29.8,-31.54 36.1,-44.11 6.27,-12.6 9.45,-25.08 9.48,-37.5 0.1,-18.44 -6.03,-32.58 -18.4,-42.43 -12.37,-9.84 -30.59,-14.83 -54.67,-14.95 -40.27,-0.21 -71.18,13.38 -92.78,40.75l-51.19 -39.77c15.53,-20.62 36.41,-36.61 62.63,-47.95 26.22,-11.34 55.5,-16.94 87.85,-16.76 42.89,0.2 77.1,10.52 102.59,30.98 25.5,20.45 38.14,48.16 37.93,83.17 -0.1,21.44 -4.72,41.56 -13.81,60.32 -9.13,18.78 -26.56,40.14 -52.26,64.08l-106.07 99.94 186.27 0.93z"/>
   <polygon class="fil0" points="11063.25,9687.73 10993.25,9687.37 10992.76,9777.11 10921.66,9776.75 10922.14,9687.01 10705.37,9685.92 10705.62,9635.12 10901.64,9381.55 10980.09,9381.94 10795.43,9624.27 10924.69,9624.92 10925.07,9545.36 10993.94,9545.7 10993.56,9625.27 11063.56,9625.63 "/>
  </g>
  <path class="fil0" d="M13726.54 7980.46c0,-767.98 -622.57,-1390.55 -1390.55,-1390.55 -15.23,0 -30.29,0.66 -45.4,1.15 -13.99,-0.32 -27.55,-1.15 -41.79,-1.15 -592.42,0 -1234.05,451.38 -1911.15,962.37l-561.17 439.18c0.12,0.08 0.23,0.16 0.34,0.24 -3.5,2.61 -7.08,5.18 -10.59,7.78l-18.32 14.34 -0.44 -0.56c-404.42,297.98 -850.57,569.79 -1166.89,650.9 -12.92,4.63 -26.49,8.25 -40.78,10.69 -15.23,2.59 -29.23,4.58 -43.78,6.83 0.02,0 0.03,0 0.04,0 -8.57,1.3 -17.49,3.08 -25.8,4.02 -190.31,27.73 -322.34,26.77 -435.17,20.37 -519.85,-29.48 -986.03,-334.39 -986.03,-724.51 0,-57.02 11.37,-109.31 30.54,-157.92 105.97,-311.14 511.94,-539.88 958.41,-565.19 126.18,-7.16 275.77,-7.81 504.72,31.22 2.96,0.5 5.54,1.6 8.44,2.2 -0.52,-0.11 -1,-0.14 -1.52,-0.25 323.43,66.6 748.51,348.35 1172.43,659.79l560.94 -439c-657.51,-494.29 -1281.17,-922.5 -1858.05,-922.5 -14.24,0 -27.8,0.83 -41.79,1.15 -15.11,-0.49 -30.17,-1.15 -45.4,-1.15 -767.98,0 -1390.55,622.57 -1390.55,1390.55 0,6.69 0.41,13.28 0.5,19.95 -0.1,3.34 -0.5,6.61 -0.5,9.97 0,8.7 0.92,17.15 1.06,25.82l0.28 13.23c0.02,7.67 0.69,15.16 1.2,22.7 0.12,2.99 0.93,6.04 1.49,9.06 51.47,718.01 647.73,1285.09 1377.81,1289.59 46.78,3.22 94.48,5.46 144.24,5.46 565.49,0 1196.21,-441.43 1863.57,-946.14 0.6,0.45 1.18,0.89 1.78,1.34l560.15 -438.37c-0.62,-0.46 -1.24,-0.91 -1.86,-1.37 441.87,-327.16 889.81,-630.61 1227.17,-700.08 -0.52,0.11 -1,0.14 -1.52,0.25 2.89,-0.6 5.48,-1.7 8.44,-2.2 228.95,-39.03 378.54,-38.38 504.72,-31.22 446.46,25.31 852.44,254.05 958.41,565.19 19.18,48.61 30.54,100.9 30.54,157.92 0,390.12 -466.18,695.03 -986.03,724.51 -112.84,6.4 -244.86,7.36 -435.17,-20.37 -8.31,-0.94 -17.22,-2.72 -25.8,-4.02 0.01,0 0.02,0 0.04,0 -14.55,-2.25 -28.55,-4.24 -43.79,-6.83 -14.28,-2.44 -27.85,-6.06 -40.77,-10.69 -309.3,-79.31 -742.74,-340.94 -1139.92,-631.09l-560.78 438.87c646.76,486.91 1258.24,904.3 1807.97,904.3 49.76,0 97.45,-2.24 144.24,-5.46 730.08,-4.5 1326.34,-571.58 1377.81,-1289.59 0.56,-3.02 1.37,-6.07 1.49,-9.06 0.51,-7.54 1.18,-15.03 1.2,-22.7l0.28 -13.23c0.14,-8.67 1.06,-17.12 1.06,-25.82 0,-3.36 -0.4,-6.63 -0.5,-9.97 0.09,-6.67 0.5,-13.26 0.5,-19.95z"/>
  <g id="_2218982307120">
   <polygon class="fil0" points="8437.75,11151.67 7888.26,12433 7462.69,12430.86 6926.18,11144.06 7392.13,11146.4 7694.68,11898.21 8012.15,11149.52 "/>
   <polygon class="fil0" points="8507.45,11152.01 8940.39,11154.2 8933.92,12438.27 8500.97,12436.1 "/>
   <polygon class="fil0" points="9176.97,11155.39 9609.91,11157.58 9603.44,12441.64 9170.49,12439.47 "/>
   <polygon class="fil0" points="9846.52,11158.77 10279.42,11160.96 10272.95,12445.02 9840.04,12442.85 "/>
   <polygon class="fil0" points="11205.05,11165.62 11638,11167.79 11633.21,12116.15 12212.88,12119.08 12211.19,12454.77 11198.57,12449.67 "/>
   <path class="fil0" d="M12640.79 12400.09c-109.79,-58.05 -195.61,-138.25 -257.45,-240.7 -61.87,-102.43 -92.46,-217.84 -91.84,-346.27 0.65,-128.4 32.41,-243.5 95.32,-345.3 62.88,-101.77 149.52,-181.15 259.87,-238.09 110.34,-56.89 234.57,-85.02 372.79,-84.31 138.18,0.69 262.17,30.07 371.97,88.06 109.76,58.05 195.57,138.29 257.45,240.71 61.84,102.42 92.43,217.84 91.78,346.23 -0.62,128.43 -32.39,243.54 -95.26,345.34 -62.91,101.8 -149.55,181.14 -259.86,238.09 -110.38,56.91 -234.68,85.02 -372.87,84.33 -138.21,-0.68 -262.13,-30.07 -371.9,-88.09zm519.7 -300.99l0 0c43.55,-26.08 78.27,-63.19 104.21,-111.38 25.94,-48.16 39.07,-104.67 39.38,-169.5 0.35,-64.8 -12.23,-121.41 -37.66,-169.88 -25.46,-48.4 -59.8,-85.89 -103.07,-112.41 -43.31,-26.5 -91.85,-39.9 -145.66,-40.17 -53.81,-0.28 -102.49,12.64 -146,38.69 -43.51,26.11 -78.28,63.25 -104.22,111.38 -25.91,48.23 -39.03,104.69 -39.37,169.49 -0.31,64.84 12.26,121.48 37.65,169.88 25.46,48.47 59.84,85.92 103.08,112.41 43.27,26.53 91.81,39.9 145.62,40.17 53.81,0.28 102.49,-12.6 146.04,-38.68z"/>
   <path class="fil0" d="M7786.77 13072.61c73.07,61.53 109.31,145.9 108.8,253.15 -0.56,107.24 -37.66,191.23 -111.35,252.04 -73.69,60.77 -174.53,90.81 -302.45,90.16l-244.08 -1.21 -1.48 299.18 -141.11 -0.73 4.96 -987.78 385.19 1.93c127.92,0.66 228.45,31.77 301.52,93.26zm-103.7 416.48l0 0c47.2,-37.86 71.01,-92.54 71.38,-164.06 0.35,-71.48 -22.91,-126.4 -69.73,-164.74 -46.88,-38.34 -114.96,-57.74 -204.32,-58.19l-239.85 -1.2 -2.24 443.1 239.85 1.21c89.36,0.45 157.64,-18.26 204.91,-56.12z"/>
   <path class="fil0" d="M8368.89 13917.28c-79.76,-44.13 -142.25,-104.87 -187.49,-182.24 -45.27,-77.38 -67.62,-163.58 -67.14,-258.59 0.48,-95.02 23.7,-180.98 69.76,-257.91 46,-76.86 109.11,-137 189.28,-180.38 80.17,-43.34 170.12,-64.77 269.85,-64.25 98.77,0.48 188.03,22.81 267.79,66.97 79.72,44.17 142,104.66 186.76,181.59 44.78,76.9 66.9,163.3 66.42,259.25 -0.48,95.94 -23.5,182.17 -69.04,258.62 -45.51,76.45 -108.42,136.32 -188.55,179.66 -80.24,43.34 -169.71,64.77 -268.48,64.29 -99.73,-0.52 -189.48,-22.85 -269.16,-67.01zm465.5 -107l0 0c58.01,-32.63 103.87,-77.8 137.56,-135.5 33.66,-57.67 50.68,-122.27 51.06,-193.75 0.34,-71.49 -16.02,-136.29 -49.13,-194.3 -33.07,-57.99 -78.48,-103.63 -136.18,-136.88 -57.68,-33.18 -122.75,-49.99 -195.2,-50.33 -72.46,-0.38 -138.12,15.78 -197.1,48.37 -58.98,32.62 -105.28,77.82 -138.97,135.49 -33.66,57.67 -50.71,122.3 -51.06,193.79 -0.38,71.49 16.02,136.25 49.13,194.27 33.07,58.01 78.92,103.63 137.6,136.87 58.63,33.25 124.12,49.99 196.57,50.37 72.45,0.34 137.7,-15.74 195.72,-48.4z"/>
   <polygon class="fil0" points="10183.18,13857.99 10182.56,13980.77 9357.08,13976.6 9357.56,13880.66 9982.33,13114.71 9371.31,13111.65 9371.93,12988.9 10169.15,12992.89 10168.67,13088.84 9546.8,13854.79 "/>
   <polygon class="fil0" points="11304.41,12998.61 11299.45,13986.39 11183.73,13985.8 10594.75,13246.24 10591.07,13982.84 10449.96,13982.12 10454.92,12994.34 10570.64,12994.93 11159.57,13734.52 11163.3,12997.92 "/>
   <path class="fil0" d="M12304.73 13744.51l-524.93 -2.66 -109.9 246.4 -145.35 -0.72 452.27 -985.51 139.7 0.69 443.8 990.05 -148.18 -0.76 -107.41 -247.49zm-48.86 -113.14l0 0 -210.63 -485.07 -215.52 482.93 426.15 2.14z"/>
   <path class="fil0" d="M13639.77 13010.39l-4.96 987.78 -115.72 -0.58 -588.98 -739.6 -3.68 736.6 -141.08 -0.69 4.96 -987.78 115.69 0.59 588.94 739.55 3.72 -736.59 141.11 0.72zm-338.76 -265.61l0 0 172.19 0.86 -238.02 182.28 -126.99 -0.66 192.82 -182.48z"/>
  </g>
 </g>
</svg>
