<svg xmlns="http://www.w3.org/2000/svg" xmlns:xlink="http://www.w3.org/1999/xlink" width="193.167" height="209.998" viewBox="0 0 193.167 209.998">
  <defs>
    <clipPath id="clip-path">
      <rect id="Rectangle_477" data-name="Rectangle 477" width="193.167" height="209.998" fill="none"/>
    </clipPath>
  </defs>
  <g id="Group_843" data-name="Group 843" opacity="0.6">
    <path id="Path_1759" data-name="Path 1759" d="M85.748,79l-.056,11.2-2.08-.011.047-9.456-2.368-.011.009-1.745Z" fill="#064169"/>
    <g id="Group_840" data-name="Group 840">
      <g id="Group_839" data-name="Group 839" clip-path="url(#clip-path)">
        <path id="Path_1760" data-name="Path 1760" d="M95.429,80.326A6.038,6.038,0,0,1,96.68,84.46a6.97,6.97,0,0,1-.7,3.221A4.772,4.772,0,0,1,94.037,89.7a5.754,5.754,0,0,1-2.873.681,6.9,6.9,0,0,1-1.624-.192,4.421,4.421,0,0,1-1.317-.542L89,88.086a3.818,3.818,0,0,0,2.126.554,3.267,3.267,0,0,0,2.532-.979,4.091,4.091,0,0,0,.925-2.859v-.016a3.112,3.112,0,0,1-1.269.865,4.75,4.75,0,0,1-1.729.287A4.5,4.5,0,0,1,89.6,85.5a3.256,3.256,0,0,1-1.37-1.214,3.322,3.322,0,0,1-.488-1.811A3.4,3.4,0,0,1,88.3,80.57a3.6,3.6,0,0,1,1.48-1.265,4.719,4.719,0,0,1,2.081-.437A4.522,4.522,0,0,1,95.429,80.326Zm-1.793,3.447h0a1.738,1.738,0,0,0,.639-1.373,1.716,1.716,0,0,0-.61-1.354,2.506,2.506,0,0,0-1.7-.546,2.353,2.353,0,0,0-1.586.513,1.889,1.889,0,0,0-.013,2.776,2.452,2.452,0,0,0,1.628.52,2.427,2.427,0,0,0,1.643-.536" fill="#064169"/>
        <path id="Path_1761" data-name="Path 1761" d="M106.211,88.54,106.2,90.3l-8.257-.042.008-1.392,4.469-4.2a4.906,4.906,0,0,0,1.023-1.25,2.382,2.382,0,0,0,.269-1.063,1.435,1.435,0,0,0-.522-1.2,2.472,2.472,0,0,0-1.549-.424,3.129,3.129,0,0,0-2.63,1.155l-1.451-1.127a4.3,4.3,0,0,1,1.775-1.359,6.114,6.114,0,0,1,2.49-.475,4.543,4.543,0,0,1,2.908.878,2.837,2.837,0,0,1,1.075,2.357,3.9,3.9,0,0,1-.391,1.71,6.688,6.688,0,0,1-1.481,1.817l-3.007,2.833Z" fill="#064169"/>
        <path id="Path_1762" data-name="Path 1762" d="M117.271,87.812l-1.984-.01-.014,2.544-2.016-.011.014-2.543-6.145-.031.007-1.44,5.557-7.188,2.224.011-5.235,6.869,3.664.019.011-2.256,1.952.01-.01,2.255,1.984.011Z" fill="#064169"/>
        <path id="Path_1763" data-name="Path 1763" d="M192.766,39.417A39.417,39.417,0,0,0,153.349,0c-.432,0-.859.019-1.287.032-.4-.009-.781-.032-1.185-.032C134.084,0,115.9,12.8,96.7,27.28L80.8,39.729l.009.007c-.1.074-.2.146-.3.22l-.519.407-.013-.016C68.51,48.793,55.863,56.5,46.9,58.8a6.827,6.827,0,0,1-1.156.3c-.431.073-.828.129-1.241.193h0c-.243.037-.495.087-.731.114a57.89,57.89,0,0,1-12.335.577C16.7,59.15,3.483,50.507,3.483,39.448a12.063,12.063,0,0,1,.866-4.476c3-8.82,14.511-15.3,27.167-16.021a59.475,59.475,0,0,1,14.307.885c.084.014.157.045.24.062l-.043-.007c9.168,1.888,21.217,9.874,33.234,18.7l15.9-12.445C76.516,12.138,58.838,0,42.485,0c-.4,0-.788.023-1.184.032C40.872.019,40.445,0,40.014,0A39.417,39.417,0,0,0,.6,39.417c0,.19.011.376.014.566,0,.094-.014.187-.014.282,0,.247.026.486.03.732l.008.375c0,.218.019.43.034.644a1.773,1.773,0,0,0,.042.256A39.41,39.41,0,0,0,39.767,78.828c1.326.091,2.678.154,4.089.154,16.029,0,33.908-12.513,52.825-26.819l.051.038L112.61,39.774l-.053-.038c12.526-9.274,25.223-17.876,34.786-19.845l-.043.007c.082-.017.155-.048.239-.062a59.477,59.477,0,0,1,14.307-.885c12.656.717,24.164,7.2,27.168,16.021a12.063,12.063,0,0,1,.866,4.476c0,11.059-13.215,19.7-27.951,20.537a57.885,57.885,0,0,1-12.335-.577c-.236-.027-.489-.077-.732-.114h0c-.412-.064-.809-.12-1.241-.193a6.852,6.852,0,0,1-1.156-.3c-8.767-2.248-21.054-9.664-32.312-17.889l-15.9,12.441c18.333,13.8,35.666,25.633,51.249,25.633,1.411,0,2.762-.063,4.089-.154a39.41,39.41,0,0,0,39.056-36.556,1.773,1.773,0,0,0,.042-.256c.015-.214.034-.427.034-.644l.008-.375c0-.246.03-.485.03-.732,0-.1-.011-.188-.014-.282C192.754,39.793,192.766,39.607,192.766,39.417Z" fill="#064169"/>
        <path id="Path_1764" data-name="Path 1764" d="M42.848,129.31,27.272,165.631l-12.064-.06L0,129.094l13.208.067,8.577,21.311,9-21.223Z" fill="#064169"/>
        <rect id="Rectangle_474" data-name="Rectangle 474" width="36.399" height="12.273" transform="matrix(0.005, -1, 1, 0.005, 44.639, 165.718)" fill="#064169"/>
        <rect id="Rectangle_475" data-name="Rectangle 475" width="36.399" height="12.273" transform="matrix(0.005, -1, 1, 0.005, 63.618, 165.814)" fill="#064169"/>
        <rect id="Rectangle_476" data-name="Rectangle 476" width="36.399" height="12.272" transform="matrix(0.005, -1, 1, 0.005, 82.597, 165.91)" fill="#064169"/>
        <path id="Path_1765" data-name="Path 1765" d="M121.291,129.705l12.273.062-.136,26.882,16.431.083-.047,9.516-28.705-.145Z" fill="#064169"/>
        <path id="Path_1766" data-name="Path 1766" d="M161.989,164.7a18.66,18.66,0,0,1,.168-33.176,24.03,24.03,0,0,1,21.111.107A18.661,18.661,0,0,1,183.1,164.8a24.023,24.023,0,0,1-21.112-.107Zm14.732-8.532h0a8.005,8.005,0,0,0,2.954-3.157,11.144,11.144,0,0,0,.049-9.62A8.021,8.021,0,0,0,176.8,140.2a8.2,8.2,0,0,0-8.267-.042,8.035,8.035,0,0,0-2.955,3.157,11.14,11.14,0,0,0-.048,9.62,8.006,8.006,0,0,0,2.921,3.187,8.209,8.209,0,0,0,8.268.042Z" fill="#064169"/>
        <path id="Path_1767" data-name="Path 1767" d="M24.4,183.761a9.776,9.776,0,0,1-.073,14.321q-3.134,2.583-8.573,2.555L8.83,200.6l-.042,8.481-4-.021.141-28,10.919.055Q21.287,181.145,24.4,183.761Zm-2.94,11.806h0a6.43,6.43,0,0,0,.047-9.32,9.03,9.03,0,0,0-5.792-1.65l-6.8-.034-.063,12.56,6.8.035A9.03,9.03,0,0,0,21.455,195.567Z" fill="#064169"/>
        <path id="Path_1768" data-name="Path 1768" d="M40.9,207.705a13.741,13.741,0,0,1-5.315-5.166,14.782,14.782,0,0,1,.074-14.641,13.771,13.771,0,0,1,5.366-5.113,16.542,16.542,0,0,1,15.24.077,13.649,13.649,0,0,1,5.294,5.148,14.988,14.988,0,0,1-.074,14.679,13.641,13.641,0,0,1-5.345,5.093,16.528,16.528,0,0,1-15.24-.077Zm13.195-3.033h0a10.271,10.271,0,0,0,3.9-3.841,11.358,11.358,0,0,0,.055-11,10.279,10.279,0,0,0-3.86-3.88,11.013,11.013,0,0,0-5.533-1.427,11.233,11.233,0,0,0-5.587,1.372,10.19,10.19,0,0,0-3.94,3.84,11.362,11.362,0,0,0-.054,11,10.174,10.174,0,0,0,3.9,3.88,11.211,11.211,0,0,0,5.572,1.428,11,11,0,0,0,5.548-1.372" fill="#064169"/>
        <path id="Path_1769" data-name="Path 1769" d="M92.324,206.024l-.018,3.48-23.4-.118.014-2.719,17.71-21.712-17.321-.087.018-3.48,22.6.113-.013,2.72L74.285,205.933Z" fill="#064169"/>
        <path id="Path_1770" data-name="Path 1770" d="M124.107,181.664l-.141,28-3.28-.017-16.695-20.964-.1,20.88-4-.02.141-28,3.28.017L120,202.524l.106-20.88Z" fill="#064169"/>
        <path id="Path_1771" data-name="Path 1771" d="M152.463,202.808l-14.88-.075-3.115,6.984-4.12-.02,12.82-27.936,3.96.02,12.58,28.064-4.2-.021Zm-1.385-3.207h0l-5.971-13.75L139,199.54Z" fill="#064169"/>
        <path id="Path_1772" data-name="Path 1772" d="M190.307,182l-.141,28-3.28-.016-16.7-20.965-.1,20.88-4-.02.14-28,3.28.017L186.2,202.857l.106-20.879Zm-9.6-7.529h0l4.881.024-6.747,5.167-3.6-.018Z" fill="#064169"/>
      </g>
    </g>
  </g>
</svg>
