<svg id="Group_820" data-name="Group 820" xmlns="http://www.w3.org/2000/svg" xmlns:xlink="http://www.w3.org/1999/xlink" width="281.704" height="77" viewBox="0 0 281.704 77">
  <defs>
    <clipPath id="clip-path">
      <rect id="Rectangle_448" data-name="Rectangle 448" width="281.704" height="77" fill="#184773"/>
    </clipPath>
  </defs>
  <g id="Group_819" data-name="Group 819" clip-path="url(#clip-path)">
    <path id="Path_1702" data-name="Path 1702" d="M38.5,77A38.5,38.5,0,1,1,77,38.5,38.544,38.544,0,0,1,38.5,77" fill="#184773"/>
    <path id="Path_1703" data-name="Path 1703" d="M39.459,2A37.459,37.459,0,1,0,76.918,39.459,37.5,37.5,0,0,0,39.459,2Z" transform="translate(-0.959 -0.959)" fill="#064169"/>
    <path id="Path_1704" data-name="Path 1704" d="M104.637,76.1a16.71,16.71,0,0,0,1.7-.254c1.013-.281-.788-.84-.788-.84a.644.644,0,0,1-.223.615,5.232,5.232,0,0,1-.688.479" transform="translate(-50.165 -35.958)" fill="#fefefe"/>
    <path id="Path_1705" data-name="Path 1705" d="M49.688,32.534a32.093,32.093,0,0,0,3.94-1.486c2.918-1.214,3.364-2.87,6.474-2.585,2.291.21,2.7,2.339,5.166,3.47-.5-.267-3.246-1.853-1.11-3.448,2.34-1.748.455-3.077-2.924-4.677s-7.521-.283-7.521-.283l.022-.019c-.237.068-.472.141-.706.217,1.314-.09,2.565-.134,3.541-.144a3.89,3.89,0,0,1,3.546,2.071,6.918,6.918,0,0,0-2.735-1.2,1.83,1.83,0,0,0-1.7.85,3.654,3.654,0,0,1-1.816,2.168c-1.464.577-2.507-.013-5.938-.03a10.788,10.788,0,0,0-5.417,1.226s3.762-.269,3.16,1.336c-.259.69-1.2,1.577-4.693,1.625a9.423,9.423,0,0,0-3.516.678,22.873,22.873,0,0,0-2.785,3.969A12.567,12.567,0,0,1,37.534,35.1,20.71,20.71,0,0,0,43,33.02c.972-.523,2.463-.318,4.985.289S49.49,32.525,49.688,32.534Z" transform="translate(-16.627 -11.034)" fill="#fefefe"/>
    <path id="Path_1706" data-name="Path 1706" d="M103.706,68.384a3.528,3.528,0,0,0-4.265-.352c-1.148.83-.015,2.991-.015,2.991a3.63,3.63,0,0,1,2.027-.562,5.641,5.641,0,0,1,3.776,1.426C104.969,70.831,104.923,69.363,103.706,68.384Z" transform="translate(-47.427 -32.346)" fill="#fefefe"/>
    <path id="Path_1707" data-name="Path 1707" d="M25.233,67.04a20.881,20.881,0,0,0,4.184-5.456,16.113,16.113,0,0,1-2.059,7.908c-2.2,3.618,2.431,5.1,2.431,5.1l-.132.019.173.083c-.015.186-.058.363-.059.553a7.724,7.724,0,0,0,.456,2.636,11.348,11.348,0,0,0,4.054-3.538c2.106-2.892.378-5.474.837-9.1s-2.336-3.707-2.647-7.4,2.064-3.684,4.314-4.861A1.735,1.735,0,0,0,37.9,51.566c1.4,1.386-1.587,2.464-2.934,5.207-1.422,2.9-.023,4.487,1.02,7.661s-.026,5.159.489,7.039,2.727.014,2.369,1.332c-.321,1.179-1.269,2.85-1.16,4.766a10.351,10.351,0,0,0-3.429,2.645c-.93.968-1.961.578-2.8-.119a7.8,7.8,0,0,0,2,1.774c1.882-.9.784-2.65,4.522-2.362a18.873,18.873,0,0,1,4.787,1.467l.022-.018c.018.017.038.031.056.048,1.118.43,2.226.853,3.128,1.116a17.3,17.3,0,0,0,5.584.555,15.244,15.244,0,0,0,6.3-1.42c.927-.655.757-1.976.63-2.9s-1.1-.929-2.9-.894a11.3,11.3,0,0,0-3.693.861,2.1,2.1,0,0,1,.807-2.147,3.442,3.442,0,0,1,2.015-.477,20.488,20.488,0,0,0,3.432-.2c1.189-.258-.347-1.014-1.754-1.065s-1.716.211-4,.244a12.291,12.291,0,0,0-3.037.381,5.38,5.38,0,0,0-1.806.607,5.279,5.279,0,0,1,1.638-2.1c.882-.436.988-.113,2.192-.3,1.956-.3,3.133-.38,3.133-.38s.436.75,1.086.665a1.82,1.82,0,0,0,1.069-.611,16.354,16.354,0,0,0,2.506.365c.88,0,.719-.878,1.151-1.446s1.322-.433,1.763-.737.31-.44.447-1.363,1.992-2.409,3.36-3.282.715-2.152.191-3.051-1.1-.737-1.1-.737-.153-.869-.388-1.006a3.065,3.065,0,0,0-1.584-.5c-.66.041-1.405-.535-2.063-.846s-2.415-.716-2.68-.5.258,1.1.738,1.983-.585,2.5-1,2.724-.008,1.708,0,2.066,1.668.624,1.668.624a13.617,13.617,0,0,1,.208,2.509A1.549,1.549,0,0,1,58.423,71.1c-.7-.047-1.019-1.26-1.748-.844s-1.375.785-1.506.432-.17-1.144-.352-1.615-1.088-.636-2.055-.729a3.12,3.12,0,0,0-1.673.3,3.7,3.7,0,0,1,.307-1.582c.3-.35,1.986.362,3.392.72a1.946,1.946,0,0,0,2.47-1.307,6.222,6.222,0,0,0-.427-2.465,6.233,6.233,0,0,1,.015-2.991c.006-1.144.019-3.783.025-4.927s2.123-2.364,4.593-3.5,2.386-2.275,2.392-3.419a8.4,8.4,0,0,0-.857-4.4c-.8-1.5-2.888-2.621-4.422-3.274a11.633,11.633,0,0,0-4.541,1.206,11.1,11.1,0,0,0-6.77-.826c-4.051.684-6.48,1.753-8.9,1.891a2.419,2.419,0,0,0-2.276,1.851c-.723-.295-6.15-1.92-8.254,1.538a61.744,61.744,0,0,1-4.724,7.688c-1.372,1.714-2.268,2.128-2.731,2.208,0,.015-.006.03-.008.045a5.167,5.167,0,0,0-3.542,4.867,5.02,5.02,0,0,0,.309,1.756,13.372,13.372,0,0,1,.133-2.267c.717-4.846,8-2.632,10.6-7.8,0,0,4.221,9.13-3.289,11.068C18.609,66.27,18.521,69,18.7,69.974a8.2,8.2,0,0,0,3.039,3.5C20.957,72.371,21.566,70.422,25.233,67.04ZM51.639,55.67h0c-.436-.75-.609-1.367-2.765-1.157a11.827,11.827,0,0,0-4.717,2.131s1.9-2.285,3.311-2.49,1.937-.342,1.5-.74-3.954-.988-3.954-.988a39.485,39.485,0,0,1,6.114.031A5.837,5.837,0,0,1,53.934,54.1c.086.264-1.02,1.622-1.02,1.622l-.792,0a2.356,2.356,0,0,1,.3,1.491c-.136.8-1.435,1.539-1.435,1.539l-.863.662a1.468,1.468,0,0,0-1.049-1.288,4.268,4.268,0,0,0-.881-.09,1.292,1.292,0,0,1,.133.562,1.321,1.321,0,0,1-2.642-.014,1.277,1.277,0,0,1,.045-.218c-.143.043-.276.088-.4.137a15.106,15.106,0,0,1-2.6.647s2.868-1.846,4.5-1.963a4.779,4.779,0,0,1,2.857.461c.175.176,1.542-.439,1.542-.439A1.65,1.65,0,0,0,51.639,55.67ZM31.446,51.764h0c.044-5.938,5.371-5.252,5.371-5.252l-.007,1.452a7.9,7.9,0,0,0-3.244,2.227c-1.317,1.5-1.807,5.1-1.807,5.1s-.335-.423-.312-3.524" transform="translate(-8.071 -19.896)" fill="#fefefe"/>
    <path id="Path_1708" data-name="Path 1708" d="M193.143,27.277l-4.678,10.909-3.623-.018-4.567-10.955,3.966.02,2.576,6.4,2.7-6.374Z" transform="translate(-86.428 -13.046)" fill="#184773"/>
    <rect id="Rectangle_439" data-name="Rectangle 439" width="10.932" height="3.686" transform="translate(107.255 25.166) rotate(-89.717)" fill="#184773"/>
    <rect id="Rectangle_440" data-name="Rectangle 440" width="10.932" height="3.686" transform="translate(112.955 25.195) rotate(-89.717)" fill="#184773"/>
    <rect id="Rectangle_441" data-name="Rectangle 441" width="10.932" height="3.686" transform="translate(118.654 25.223) rotate(-89.709)" fill="#184773"/>
    <path id="Path_1709" data-name="Path 1709" d="M248.381,27.556l3.686.018-.041,8.074,4.935.025-.014,2.858-8.621-.044Z" transform="translate(-119.052 -13.211)" fill="#184773"/>
    <rect id="Rectangle_442" data-name="Rectangle 442" width="10.932" height="3.686" transform="translate(139.143 25.327) rotate(-89.709)" fill="#184773"/>
    <path id="Path_1710" data-name="Path 1710" d="M280.389,37.971a5.433,5.433,0,0,1-2.169-2.041,5.954,5.954,0,0,1,.03-5.919,5.428,5.428,0,0,1,2.19-2.019,6.632,6.632,0,0,1,3.127-.711,6.857,6.857,0,0,1,2.84.576,5.28,5.28,0,0,1,2.053,1.635l-2.337,2.066a2.988,2.988,0,0,0-2.383-1.293,2.44,2.44,0,0,0-1.862.733,3.171,3.171,0,0,0-.02,3.982,2.441,2.441,0,0,0,1.854.751,2.986,2.986,0,0,0,2.4-1.268l2.317,2.089a5.274,5.274,0,0,1-2.07,1.614,6.852,6.852,0,0,1-2.845.548A6.642,6.642,0,0,1,280.389,37.971Z" transform="translate(-133.014 -13.079)" fill="#184773"/>
    <path id="Path_1711" data-name="Path 1711" d="M310.106,36.02l-.014,2.779L301,38.753l.055-10.932,8.887.045-.014,2.78-5.264-.027-.006,1.281,4.623.023-.014,2.655-4.622-.023-.008,1.437Z" transform="translate(-144.307 -13.338)" fill="#184773"/>
    <path id="Path_1712" data-name="Path 1712" d="M322.9,37.756a5.052,5.052,0,0,1-1.387-3.818l.03-6.013,3.686.019-.03,5.9a2.849,2.849,0,0,0,.42,1.751,1.684,1.684,0,0,0,2.484.012,2.836,2.836,0,0,0,.438-1.747l.03-5.9,3.624.018-.031,6.013a5.056,5.056,0,0,1-1.424,3.8,6.336,6.336,0,0,1-7.84-.04Z" transform="translate(-154.139 -13.388)" fill="#184773"/>
    <path id="Path_1713" data-name="Path 1713" d="M355.374,39.028l-.006-4.982-2.394,3.986-1.624-.008-2.354-3.838L348.971,39l-3.358-.017.055-10.932,3.03.015,3.531,5.844,3.5-5.808,3.029.016-.023,10.932Z" transform="translate(-165.694 -13.446)" fill="#184773"/>
    <path id="Path_1714" data-name="Path 1714" d="M184.473,69.481a5.6,5.6,0,0,1,.05-9.963,7.211,7.211,0,0,1,6.341.032,5.6,5.6,0,0,1-.05,9.963,7.211,7.211,0,0,1-6.341-.032Zm4.425-2.562h0a2.4,2.4,0,0,0,.887-.948,3.346,3.346,0,0,0,.015-2.889,2.406,2.406,0,0,0-.878-.957,2.463,2.463,0,0,0-2.483-.012,2.409,2.409,0,0,0-.887.948,3.346,3.346,0,0,0-.015,2.889,2.4,2.4,0,0,0,.878.957,2.463,2.463,0,0,0,2.483.013Z" transform="translate(-87.015 -28.189)" fill="#184773"/>
    <path id="Path_1715" data-name="Path 1715" d="M215.06,64.356l3.2.016L218.239,69a7.431,7.431,0,0,1-2.255,1.019,9.277,9.277,0,0,1-2.515.347,6.676,6.676,0,0,1-3.136-.742,5.43,5.43,0,0,1-2.168-2.041,5.95,5.95,0,0,1,.03-5.92,5.391,5.391,0,0,1,2.212-2.019,6.883,6.883,0,0,1,3.2-.71,7.323,7.323,0,0,1,2.879.553,5.413,5.413,0,0,1,2.108,1.58l-2.369,2.065a3.135,3.135,0,0,0-2.446-1.215,2.588,2.588,0,0,0-1.94.725,2.733,2.733,0,0,0-.728,2,2.765,2.765,0,0,0,.7,1.987,2.491,2.491,0,0,0,1.894.759,3.466,3.466,0,0,0,1.344-.259Z" transform="translate(-99.427 -28.252)" fill="#184773"/>
    <path id="Path_1716" data-name="Path 1716" d="M233.882,66.841a5.6,5.6,0,0,1,.05-9.964,7.211,7.211,0,0,1,6.341.032,5.6,5.6,0,0,1-.05,9.964,7.216,7.216,0,0,1-6.341-.032Zm4.425-2.563h0a2.4,2.4,0,0,0,.887-.948,3.346,3.346,0,0,0,.015-2.889,2.4,2.4,0,0,0-.878-.957,2.463,2.463,0,0,0-2.483-.012,2.407,2.407,0,0,0-.887.948,3.344,3.344,0,0,0-.015,2.889,2.4,2.4,0,0,0,.878.957,2.463,2.463,0,0,0,2.483.012m-.763-11.256h0l3.358.017-3.09,2.484-2.343-.012Z" transform="translate(-110.702 -25.42)" fill="#184773"/>
    <path id="Path_1717" data-name="Path 1717" d="M257.642,59.6l3.686.019-.041,8.074,4.935.025-.015,2.859-8.62-.044Z" transform="translate(-123.492 -28.575)" fill="#184773"/>
    <path id="Path_1718" data-name="Path 1718" d="M287.377,59.753l-.055,10.932-3.03-.016-4.129-4.987-.026,4.966-3.591-.018L276.6,59.7l3.029.015,4.13,4.987.025-4.966Z" transform="translate(-132.582 -28.621)" fill="#184773"/>
    <path id="Path_1719" data-name="Path 1719" d="M303.3,70.08a5.6,5.6,0,0,1,.05-9.964,7.212,7.212,0,0,1,6.34.032,5.6,5.6,0,0,1-.049,9.963,7.211,7.211,0,0,1-6.341-.032m4.425-2.562h0a2.4,2.4,0,0,0,.887-.949,3.34,3.34,0,0,0,.015-2.889,2.411,2.411,0,0,0-.877-.957,2.465,2.465,0,0,0-2.484-.012,2.4,2.4,0,0,0-.887.948,3.35,3.35,0,0,0-.015,2.889,2.4,2.4,0,0,0,.878.957,2.463,2.463,0,0,0,2.484.013Z" transform="translate(-143.983 -28.477)" fill="#184773"/>
    <path id="Path_1720" data-name="Path 1720" d="M331.473,67.285l-.832.917-.014,2.7L327,70.885l.056-10.932,3.623.018-.019,3.967,3.612-3.949,4.014.02-4.4,4.788,4.56,6.145-4.264-.022Z" transform="translate(-156.772 -28.743)" fill="#184773"/>
    <path id="Path_1721" data-name="Path 1721" d="M350.755,70.745a7.1,7.1,0,0,1-2.112-.831l1.2-2.68a7.574,7.574,0,0,0,1.746.735,6.833,6.833,0,0,0,1.856.283,2.878,2.878,0,0,0,1.094-.143.477.477,0,0,0,.33-.444q0-.343-.427-.517a9.206,9.206,0,0,0-1.411-.382,15.947,15.947,0,0,1-2.105-.581,3.592,3.592,0,0,1-1.463-1.007,2.711,2.711,0,0,1-.615-1.885,3.244,3.244,0,0,1,.587-1.871,3.814,3.814,0,0,1,1.733-1.319,7.176,7.176,0,0,1,2.789-.47,10.151,10.151,0,0,1,2.209.254,6.943,6.943,0,0,1,1.909.72l-1.123,2.665a6.783,6.783,0,0,0-3.041-.827q-1.421-.007-1.424.68c0,.219.139.384.42.494a8.838,8.838,0,0,0,1.388.358,14.415,14.415,0,0,1,2.106.55,3.664,3.664,0,0,1,1.486,1,2.663,2.663,0,0,1,.624,1.877,3.2,3.2,0,0,1-.588,1.863,3.888,3.888,0,0,1-1.732,1.319,7.069,7.069,0,0,1-2.79.477A11.483,11.483,0,0,1,350.755,70.745Z" transform="translate(-167.146 -28.589)" fill="#184773"/>
    <path id="Path_1722" data-name="Path 1722" d="M379.419,68.292,379.4,71.15l-10.042-.05.011-2.265L374.4,63.05l-4.841-.024.014-2.858,9.636.049-.012,2.265-5.027,5.784Z" transform="translate(-177.08 -28.846)" fill="#184773"/>
    <path id="Path_1723" data-name="Path 1723" d="M392.863,63.143l-3.2-.016.014-2.857,10.089.05-.014,2.858-3.2-.017-.041,8.075-3.686-.019Z" transform="translate(-186.812 -28.894)" fill="#184773"/>
    <path id="Path_1724" data-name="Path 1724" d="M416.559,69.453l-4.155-.021-.743,1.9-3.748-.019,4.835-10.908,3.623.018,4.723,10.956-3.81-.019Zm-1-2.66h0l-1.048-2.754-1.076,2.743Z" transform="translate(-195.562 -28.96)" fill="#184773"/>
    <path id="Path_1725" data-name="Path 1725" d="M432.079,66.675l6.976-5.119,1.085,1.567-6.976,5.118Zm1.8-6.176h0l3.686.019-.041,8.074,4.936.025-.015,2.858-8.621-.044Z" transform="translate(-207.147 -29.004)" fill="#184773"/>
    <path id="Path_1726" data-name="Path 1726" d="M456.238,70.858a5.433,5.433,0,0,1-2.169-2.041,5.951,5.951,0,0,1,.03-5.919,5.43,5.43,0,0,1,2.189-2.019,6.641,6.641,0,0,1,3.127-.711,6.855,6.855,0,0,1,2.839.577,5.279,5.279,0,0,1,2.054,1.635l-2.337,2.066a2.987,2.987,0,0,0-2.383-1.293,2.442,2.442,0,0,0-1.862.732,3.171,3.171,0,0,0-.02,3.982,2.439,2.439,0,0,0,1.855.751,2.985,2.985,0,0,0,2.4-1.268l2.317,2.089a5.278,5.278,0,0,1-2.07,1.614,6.861,6.861,0,0,1-2.845.548A6.639,6.639,0,0,1,456.238,70.858Z" transform="translate(-217.319 -28.846)" fill="#184773"/>
    <path id="Path_1727" data-name="Path 1727" d="M482.917,69.788l-4.155-.021-.744,1.9-3.748-.019L479.1,60.742l3.623.018,4.723,10.956L483.64,71.7Zm-1-2.66h0l-1.048-2.754-1.076,2.743Zm2.334,7.805h0a1.691,1.691,0,0,1-.649-1.409A2.1,2.1,0,0,1,484.288,72a4.691,4.691,0,0,1,1.934-1.052l1.23.771a5.76,5.76,0,0,0-1.386.782.988.988,0,0,0-.4.724.579.579,0,0,0,.209.462.923.923,0,0,0,.616.183,2.166,2.166,0,0,0,.922-.214l.414,1.455a2.8,2.8,0,0,1-.775.254,4.894,4.894,0,0,1-.992.1A2.862,2.862,0,0,1,484.249,74.933Z" transform="translate(-227.375 -29.121)" fill="#184773"/>
    <path id="Path_1728" data-name="Path 1728" d="M503.037,71.094a5.433,5.433,0,0,1-2.169-2.041,5.95,5.95,0,0,1,.03-5.919,5.43,5.43,0,0,1,2.189-2.019,6.639,6.639,0,0,1,3.127-.711,6.859,6.859,0,0,1,2.84.577,5.274,5.274,0,0,1,2.053,1.634l-2.337,2.066a2.988,2.988,0,0,0-2.383-1.293,2.445,2.445,0,0,0-1.863.732,3.175,3.175,0,0,0-.02,3.983,2.441,2.441,0,0,0,1.855.751,2.984,2.984,0,0,0,2.4-1.269l2.317,2.089A5.279,5.279,0,0,1,509,71.288a6.862,6.862,0,0,1-2.846.548A6.636,6.636,0,0,1,503.037,71.094Z" transform="translate(-239.756 -28.959)" fill="#184773"/>
    <path id="Path_1729" data-name="Path 1729" d="M532.753,69.142l-.014,2.78-9.089-.046.055-10.932,8.887.045-.015,2.78-5.263-.027-.006,1.281,4.623.023-.014,2.655-4.623-.023-.007,1.437Z" transform="translate(-251.048 -29.218)" fill="#184773"/>
    <rect id="Rectangle_443" data-name="Rectangle 443" width="7.288" height="1.041" transform="translate(95.025 56.34) rotate(-89.713)" fill="#184773"/>
    <path id="Path_1730" data-name="Path 1730" d="M195.694,101.579l.016-5.31-2.656,4.412-.479,0-2.612-4.406-.027,5.278-1,0,.036-7.288.854,0,3.014,5.138,3.024-5.107.854,0-.026,7.288Z" transform="translate(-90.58 -45.189)" fill="#184773"/>
    <path id="Path_1731" data-name="Path 1731" d="M207.268,106.955a.688.688,0,0,1-.206-.516.675.675,0,0,1,.211-.5.691.691,0,0,1,.5-.2.666.666,0,0,1,.488.2.757.757,0,0,1-.01,1.026.662.662,0,0,1-.485.2A.689.689,0,0,1,207.268,106.955Z" transform="translate(-99.27 -50.691)" fill="#184773"/>
    <path id="Path_1732" data-name="Path 1732" d="M222.192,99.907l-3.873-.02-.811,1.819-1.072-.006,3.337-7.271,1.031.005,3.274,7.3-1.094-.006Zm-.36-.835h0l-1.554-3.579-1.59,3.563Z" transform="translate(-103.764 -45.271)" fill="#184773"/>
    <path id="Path_1733" data-name="Path 1733" d="M233.432,94.482l3.071.016a4.44,4.44,0,0,1,2.049.468,3.365,3.365,0,0,1,1.384,1.293,3.895,3.895,0,0,1-.019,3.8,3.362,3.362,0,0,1-1.4,1.279,4.446,4.446,0,0,1-2.054.448l-3.071-.016Zm2.977,6.4h0a3.377,3.377,0,0,0,1.559-.335,2.489,2.489,0,0,0,1.041-.958,3,3,0,0,0,.014-2.863,2.484,2.484,0,0,0-1.031-.968,3.37,3.37,0,0,0-1.555-.352l-1.968-.01-.028,5.477Z" transform="translate(-111.894 -45.297)" fill="#184773"/>
    <path id="Path_1734" data-name="Path 1734" d="M253.552,100.065l-3.873-.02-.811,1.818-1.072-.005,3.337-7.271,1.031.005,3.274,7.3-1.093-.005Zm-.36-.835h0l-1.554-3.579-1.59,3.563Z" transform="translate(-118.798 -45.346)" fill="#184773"/>
    <path id="Path_1735" data-name="Path 1735" d="M271.512,101.961l.015-5.31-2.655,4.412-.479,0-2.612-4.406-.027,5.278-1-.005.037-7.288.854,0,3.015,5.138,3.024-5.107.854,0-.027,7.288Z" transform="translate(-126.929 -45.372)" fill="#184773"/>
    <path id="Path_1736" data-name="Path 1736" d="M287.691,100.236l-3.873-.019-.811,1.818-1.072-.005,3.337-7.271,1.03.005,3.274,7.3-1.093-.006Zm-.36-.834h0l-1.554-3.579-1.589,3.563Z" transform="translate(-135.165 -45.429)" fill="#184773"/>
    <path id="Path_1737" data-name="Path 1737" d="M311.231,102.161l.016-5.31-2.656,4.412-.479,0L305.5,96.854l-.026,5.278-1,0,.036-7.288.854,0,3.015,5.138,3.024-5.107.854,0-.027,7.288Z" transform="translate(-145.971 -45.468)" fill="#184773"/>
    <rect id="Rectangle_444" data-name="Rectangle 444" width="7.288" height="1.041" transform="translate(168.55 56.71) rotate(-89.713)" fill="#184773"/>
    <path id="Path_1738" data-name="Path 1738" d="M330.932,101.8a3.564,3.564,0,0,1-1.373-1.339,3.9,3.9,0,0,1,.019-3.821,3.561,3.561,0,0,1,1.391-1.326,4.049,4.049,0,0,1,1.981-.474,4.113,4.113,0,0,1,1.56.294,3.2,3.2,0,0,1,1.2.855l-.68.652a2.715,2.715,0,0,0-2.047-.875,2.978,2.978,0,0,0-1.47.357,2.647,2.647,0,0,0-1.03,1,2.956,2.956,0,0,0-.015,2.863,2.647,2.647,0,0,0,1.02,1.01,2.978,2.978,0,0,0,1.466.372,2.724,2.724,0,0,0,2.056-.864l.674.659a3.241,3.241,0,0,1-1.218.848,4.1,4.1,0,0,1-1.568.284A4.02,4.02,0,0,1,330.932,101.8Z" transform="translate(-157.762 -45.469)" fill="#184773"/>
    <path id="Path_1739" data-name="Path 1739" d="M347.223,99.1l-1.339,1.347-.01,1.885-1.041-.005.037-7.288,1.041.005-.021,4.07,3.977-4.05,1.186.006-3.129,3.264,3.29,4.025L350,102.357Z" transform="translate(-165.32 -45.565)" fill="#184773"/>
    <rect id="Rectangle_445" data-name="Rectangle 445" width="7.288" height="1.041" transform="translate(187.103 56.804) rotate(-89.713)" fill="#184773"/>
    <path id="Path_1740" data-name="Path 1740" d="M371.106,101.558l0,.906-5.289-.027.037-7.288,5.143.026,0,.905-4.1-.021-.011,2.238,3.655.019,0,.884-3.655-.018-.011,2.353Z" transform="translate(-175.378 -45.617)" fill="#184773"/>
    <path id="Path_1741" data-name="Path 1741" d="M388.881,95.265l-2.473,7.276-1.094-.006-1.958-5.829-2.018,5.81-1.114-.005-2.4-7.3,1.072.005,1.939,5.935,2.08-5.914.958.005,1.979,5.965,2.04-5.945Z" transform="translate(-181.137 -45.645)" fill="#184773"/>
    <rect id="Rectangle_446" data-name="Rectangle 446" width="7.288" height="1.041" transform="translate(209.082 56.914) rotate(-89.713)" fill="#184773"/>
    <path id="Path_1742" data-name="Path 1742" d="M408.791,102.194a3.564,3.564,0,0,1-1.373-1.339,3.9,3.9,0,0,1,.02-3.821,3.547,3.547,0,0,1,1.391-1.325,4.051,4.051,0,0,1,1.981-.475,4.133,4.133,0,0,1,1.56.295,3.2,3.2,0,0,1,1.2.854l-.68.653a2.716,2.716,0,0,0-2.047-.875,2.978,2.978,0,0,0-1.47.357,2.645,2.645,0,0,0-1.03,1,2.957,2.957,0,0,0-.015,2.863,2.641,2.641,0,0,0,1.02,1.009,2.973,2.973,0,0,0,1.466.372,2.724,2.724,0,0,0,2.056-.864l.674.66a3.252,3.252,0,0,1-1.218.848,4.1,4.1,0,0,1-1.569.283A4.015,4.015,0,0,1,408.791,102.194Z" transform="translate(-195.089 -45.657)" fill="#184773"/>
    <path id="Path_1743" data-name="Path 1743" d="M427.547,101.842l0,.906-6.09-.03,0-.709,4.609-5.651-4.508-.023,0-.906,5.882.03,0,.707-4.588,5.651Z" transform="translate(-202.053 -45.751)" fill="#184773"/>
    <path id="Path_1744" data-name="Path 1744" d="M439.669,101l-3.874-.02-.811,1.818-1.072-.006,3.337-7.271,1.031,0,3.274,7.3-1.094-.006Zm-.361-.835h0l-1.554-3.579-1.59,3.563Z" transform="translate(-208.026 -45.797)" fill="#184773"/>
    <path id="Path_1745" data-name="Path 1745" d="M192.083,118.273l-2.473,7.276-1.093-.005-1.959-5.83-2.018,5.81-1.114-.006-2.4-7.3,1.072.005,1.938,5.934,2.081-5.914.958,0,1.979,5.965,2.04-5.945Z" transform="translate(-86.788 -56.676)" fill="#184773"/>
    <path id="Path_1746" data-name="Path 1746" d="M215.818,119.069a2.545,2.545,0,0,1-.019,3.727,3.376,3.376,0,0,1-2.231.665l-1.8-.009-.011,2.207-1.041-.006.037-7.288,2.842.014A3.379,3.379,0,0,1,215.818,119.069Zm-.765,3.072h0a1.673,1.673,0,0,0,.012-2.425,2.349,2.349,0,0,0-1.507-.429l-1.77-.009-.017,3.269,1.77.009A2.35,2.35,0,0,0,215.053,122.142Z" transform="translate(-101.021 -56.748)" fill="#184773"/>
    <path id="Path_1747" data-name="Path 1747" d="M226.128,125.273a3.573,3.573,0,0,1-1.383-1.345,3.847,3.847,0,0,1,.019-3.811,3.582,3.582,0,0,1,1.4-1.331,4.306,4.306,0,0,1,3.967.02,3.554,3.554,0,0,1,1.377,1.339,3.9,3.9,0,0,1-.019,3.821,3.55,3.55,0,0,1-1.392,1.326,4.3,4.3,0,0,1-3.967-.02Zm3.435-.79h0a2.666,2.666,0,0,0,1.015-1,2.961,2.961,0,0,0,.015-2.863,2.678,2.678,0,0,0-1.005-1.009,2.859,2.859,0,0,0-1.44-.372,2.922,2.922,0,0,0-1.454.357,2.656,2.656,0,0,0-1.026,1,2.953,2.953,0,0,0-.015,2.863,2.658,2.658,0,0,0,1.015,1.01,2.931,2.931,0,0,0,1.451.372A2.865,2.865,0,0,0,229.563,124.483Z" transform="translate(-107.51 -56.722)" fill="#184773"/>
    <path id="Path_1748" data-name="Path 1748" d="M247.049,124.933l0,.906-6.091-.03,0-.708,4.61-5.651-4.508-.023,0-.905,5.883.029,0,.709-4.589,5.65Z" transform="translate(-115.518 -56.821)" fill="#184773"/>
    <path id="Path_1749" data-name="Path 1749" d="M261.839,118.624l-.037,7.288-.854,0-4.345-5.456-.028,5.434-1.041-.005.036-7.288.854,0,4.345,5.457.028-5.435Z" transform="translate(-122.509 -56.856)" fill="#184773"/>
    <path id="Path_1750" data-name="Path 1750" d="M275.609,124.176l-3.873-.02-.811,1.818-1.072-.005,3.337-7.271,1.03.005,3.275,7.3L276.4,126Zm-.359-.835h0l-1.555-3.579-1.59,3.563Z" transform="translate(-129.373 -56.906)" fill="#184773"/>
    <path id="Path_1751" data-name="Path 1751" d="M293.117,118.783l-.036,7.288-.854,0-4.346-5.456-.027,5.434-1.041-.005.037-7.288.854,0,4.345,5.457.028-5.435Z" transform="translate(-137.504 -56.932)" fill="#184773"/>
    <rect id="Rectangle_447" data-name="Rectangle 447" width="7.288" height="1.041" transform="matrix(0.005, -1, 1, 0.005, 157.867, 69.15)" fill="#184773"/>
    <path id="Path_1752" data-name="Path 1752" d="M310.363,125.408a3.29,3.29,0,0,1-.8-2.4l.021-4.143,1.041.005-.021,4.1q-.012,2.343,2.04,2.353a1.973,1.973,0,0,0,1.533-.57,2.537,2.537,0,0,0,.54-1.762l.02-4.1,1.01.005-.021,4.144a3.286,3.286,0,0,1-.825,2.4,3.517,3.517,0,0,1-4.539-.028Z" transform="translate(-148.411 -56.987)" fill="#184773"/>
  </g>
</svg>
