<svg id="phone-call" xmlns="http://www.w3.org/2000/svg" width="18.662" height="18.701" viewBox="0 0 18.662 18.701">
  <g id="Group_11" data-name="Group 11" transform="translate(0 0)">
    <path id="Path_12" data-name="Path 12" d="M18.712,13.725l-2.61-2.61a1.736,1.736,0,0,0-2.889.652,1.776,1.776,0,0,1-2.051,1.118A8.048,8.048,0,0,1,6.315,8.039,1.689,1.689,0,0,1,7.434,5.989,1.736,1.736,0,0,0,8.086,3.1L5.476.489a1.862,1.862,0,0,0-2.517,0L1.189,2.26c-1.771,1.864.186,6.8,4.567,11.185s9.321,6.431,11.185,4.567l1.771-1.771A1.861,1.861,0,0,0,18.712,13.725Z" transform="translate(-0.539 0)" fill="#91c8df"/>
  </g>
</svg>
