<svg id="pin_1_" data-name="pin (1)" xmlns="http://www.w3.org/2000/svg" width="17.438" height="25.36" viewBox="0 0 17.438 25.36">
  <path id="Path_11" data-name="Path 11" d="M96.194,4.342A8.606,8.606,0,0,0,88.882,0c-.13,0-.26,0-.39,0a8.606,8.606,0,0,0-7.313,4.341,8.829,8.829,0,0,0-.115,8.723l6.289,11.51.009.015a1.529,1.529,0,0,0,2.652,0l.009-.015,6.289-11.51a8.829,8.829,0,0,0-.115-8.723Zm-7.508,7.148a3.566,3.566,0,1,1,3.566-3.566A3.57,3.57,0,0,1,88.687,11.491Z" transform="translate(-79.968 0)" fill="#91c8df"/>
</svg>
