<svg xmlns="http://www.w3.org/2000/svg" xmlns:xlink="http://www.w3.org/1999/xlink" width="103.146" height="103.146" viewBox="0 0 103.146 103.146">
  <defs>
    <clipPath id="clip-path">
      <path id="path20" d="M0-377.946H103.146V-274.8H0Z" transform="translate(0 377.946)"/>
    </clipPath>
  </defs>
  <g id="g10" transform="translate(0 -0.001)">
    <g id="g12" transform="translate(88.522 32.877)">
      <path id="path14" d="M-4.919-13.329l.729-.306-.172-.411,4-3.08-.5-1.206-5.005.7-.166-.4-.729.306.429,1.019,1.814-.3.6,1.438-1.479,1.1Zm1.628-2.7-.461-1.093,2.517-.4Z" transform="translate(6.765 18.332)" fill="#fff"/>
    </g>
    <g id="g16" transform="translate(0 0.001)">
      <g id="g18" clip-path="url(#clip-path)">
        <g id="g24" transform="translate(86.084 26.332)">
          <path id="path26" d="M-5.7-17.457l.686-.393-.239-.418,1.19-.683a.944.944,0,0,0,.409-1.369l-.285-.493,2,.118.329.573.691-.4-.559-.973-2.965-.046,2.209-1.269-.69-1.2-.692.4.239.418-3.542,2.036-.241-.417-.686.393.691,1.2L-5.022-21.2l.586,1.023c.122.211.041.373-.228.527l-1.732,1Z" transform="translate(7.845 24.009)" fill="#fff"/>
        </g>
        <g id="g28" transform="translate(83.434 22.584)">
          <path id="path30" d="M-7.651-13.624l1-.729a.93.93,0,0,0,.253-1.4l-.69-.946c-.144-.2-.077-.372.171-.553l.534-.39c.254-.186.429-.19.575.009l.691.944-.585.429.527.719,1.228-.9-1.375-1.879A.942.942,0,0,0-6.742-18.5l-.932.682a.943.943,0,0,0-.256,1.406l.689.94c.144.2.082.368-.174.553L-8-14.49c-.249.182-.436.194-.58,0l-.755-1.033.708-.517-.548-.75-1.346.985,1.466,2a.933.933,0,0,0,1.406.183" transform="translate(10.523 18.737)" fill="#fff"/>
        </g>
        <g id="g32" transform="translate(79.603 17.518)">
          <path id="path34" d="M-20.332-3.645l-.62-.64-1.241.379.494.513ZM-21.1-.984l.575-.555-.919-.951L-23.851-.165a5.7,5.7,0,0,0-.57.65l1.533-4.468-.992-1.03-.575.555.336.345-2.94,2.84L-27.4-1.62l-.569.549.921.952,2.4-2.321a6,6,0,0,0,.58-.66l-1.48,4.537.6.62,3.508-3.387Z" transform="translate(27.964 5.013)" fill="#fff"/>
        </g>
        <g id="g36" transform="translate(75.543 14.805)">
          <path id="path38" d="M-10.292-8.455l-.917-.75,2.033-1.535Zm-.174,3.146.5-.613-.345-.282,2.094-4.6-1.012-.828-4.092,2.963-.336-.272-.5.612.857.7,1.46-1.119,1.209.987-.793,1.663Z" transform="translate(14.155 11.628)" fill="#fff"/>
        </g>
        <g id="g40" transform="translate(71.259 10.613)">
          <path id="path42" d="M-17.753-8.525l.417-.68-1.128-.69L-20.208-7.04a5.51,5.51,0,0,0-.388.772l.359-4.711-1.219-.746-.415.682.411.25-2.131,3.488L-24-7.557l-.413.674,1.131.69,1.741-2.85a6.173,6.173,0,0,0,.4-.786l-.292,4.763.737.45,2.54-4.161Z" transform="translate(24.416 11.725)" fill="#fff"/>
        </g>
        <g id="g44" transform="translate(67.06 8.306)">
          <path id="path46" d="M-9.217-17.977l.739-1.6-.8-.369-.41.886-1.677-.772,4.129-2.677.3-.659L-10.3-24.724l-.734,1.592.81.373.4-.867,1.592.733-4.136,2.657-.306.666Z" transform="translate(12.676 24.724)" fill="#fff"/>
        </g>
        <g id="g48" transform="translate(63.109 6.852)">
          <path id="path50" d="M-9.217-14.114l1.162-3.419a.942.942,0,0,0-.6-1.3l-1.524-.518a.941.941,0,0,0-1.264.663l-1.161,3.42a.938.938,0,0,0,.6,1.289l1.522.519a.94.94,0,0,0,1.264-.657m-.792-.511c-.1.293-.238.412-.468.334l-1.021-.348c-.231-.076-.275-.259-.176-.553l1.017-2.991c.1-.3.243-.4.474-.324l1.02.347c.231.077.274.245.172.543Z" transform="translate(12.677 19.411)" fill="#fff"/>
        </g>
        <g id="g52" transform="translate(58.392 5.455)">
          <path id="path54" d="M-11.87-7.26l.194-.956a.937.937,0,0,0-.752-1.208L-15.2-9.985l-.159.781.473.1-.813,4-.473-.1-.157.775,1.881.381.158-.775-.522-.105.338-1.67,1.269.258A1.066,1.066,0,0,0-11.87-7.26m-.879-.222c-.061.3-.191.43-.429.382l-1.143-.232.325-1.6,1.142.231c.239.049.31.211.247.519Z" transform="translate(16.325 9.985)" fill="#fff"/>
        </g>
        <g id="g56" transform="translate(49.857 4.806)">
          <path id="path58" d="M-12.691-15.219l.012-.79-.446-.005-1.223-4.9-1.308-.016-1.358,4.865-.431-.006-.009.791,1.106.015.448-1.784,1.559.021.415,1.8Zm-1.821-2.568L-15.7-17.8l.637-2.469Z" transform="translate(17.455 20.932)" fill="#fff"/>
        </g>
        <g id="g60" transform="translate(44.409 4.866)">
          <path id="path62" d="M-13.037-14.946l-.087-.786-.479.053-.151-1.365a.941.941,0,0,0-1.092-.921l-.563.062.909-1.789.658-.072-.088-.793-1.114.123-1.228,2.7-.279-2.533-1.378.152.087.793.479-.053.446,4.062-.479.054.086.785,1.379-.151L-16.2-17.07l1.171-.13c.244-.027.36.113.394.42l.218,1.988Z" transform="translate(17.931 20.556)" fill="#fff"/>
        </g>
        <g id="g64" transform="translate(41.361 5.54)">
          <path id="path66" d="M-7.856-14.829-8.01-15.6l-.48.1-.8-4.007.48-.1-.156-.783-1.839.367.155.783.472-.094.8,4.006-.472.1.155.775Z" transform="translate(10.805 20.395)" fill="#fff"/>
        </g>
        <g id="g68" transform="translate(35.514 6.173)">
          <path id="path70" d="M-12.923-2.03l-.234-.762-1.264.388.985,3.2a5.77,5.77,0,0,0,.322.8l-3.291-3.39-1.367.421.235.762.46-.142,1.2,3.905-.46.141.231.756,1.265-.389L-15.823.469a6.059,6.059,0,0,0-.327-.817l3.376,3.374.823-.254-1.434-4.661Z" transform="translate(17.773 2.792)" fill="#fff"/>
        </g>
        <g id="g72" transform="translate(29.971 8.18)">
          <path id="path74" d="M-17.179-13.716l-.335-.716-.437.2-1.729-3.709.437-.2-.337-.723-1.258.586,1.049,2.25-1.53.714-1.05-2.251-1.258.586.339.723.436-.2,1.73,3.709-.437.2.334.716,1.256-.586-1.047-2.246,1.53-.714,1.048,2.247Z" transform="translate(23.627 18.864)" fill="#fff"/>
        </g>
        <g id="g76" transform="translate(26.046 10.78)">
          <path id="path78" d="M-14.744-12.943l-.929-1.538-.683.412.519.861-1.2.725c-.209.126-.376.042-.536-.222l-1.635-2.7c-.162-.269-.15-.444.059-.571l1.2-.724.509.841.682-.413-.921-1.524-2.11,1.275a.942.942,0,0,0-.308,1.394l1.867,3.092a.939.939,0,0,0,1.374.37Z" transform="translate(20.279 17.801)" fill="#fff"/>
        </g>
        <g id="g80" transform="translate(21.31 13.525)">
          <path id="path82" d="M-17.578-11.8l-1.112-1.422-.634.5.624.8-1.376,1.075-1.085-1.387,1.427-1.116-.47-.6-1.427,1.115-.961-1.231,1.331-1.039.591.757.624-.487-1.083-1.387-3.047,2.381.492.629.379-.3,2.515,3.219-.379.3.487.622Z" transform="translate(24.176 16.225)" fill="#fff"/>
        </g>
        <g id="g84" transform="translate(17.201 16.736)">
          <path id="path86" d="M-11.324-3.034l-1.117-1.139L-15.575-1.1-14.457.042l.6-.59-.558-.569.642-.628L-10.91,1.17l-.376.367.554.564L-9.327.722-9.881.157l-.379.373-2.863-2.915.64-.63.559.568Z" transform="translate(15.575 4.173)" fill="#fff"/>
        </g>
        <g id="g88" transform="translate(15.242 20.641)">
          <path id="path90" d="M-14.753-9.793l-.6-.512-.316.373-3.114-2.647.318-.373-.607-.516-1.216,1.429.607.516.313-.367,3.112,2.647-.311.368.6.512Z" transform="translate(20.291 13.469)" fill="#fff"/>
        </g>
        <g id="g92" transform="translate(12.215 24.682)">
          <path id="path94" d="M-18.057-4.738l-1.575-1.1-.471.671.93.65-.866,1.235-3.346-2.344.3-.43-.652-.457-1.1,1.566.653.457.276-.394,3.346,2.345-.277.394.648.453Z" transform="translate(24.835 6.516)" fill="#fff"/>
        </g>
        <g id="g96" transform="translate(10.011 27.889)">
          <path id="path98" d="M-14.529-4.92l-3.188-1.7a.942.942,0,0,0-1.376.384l-.757,1.421A.945.945,0,0,0-19.4-3.455l3.189,1.7a.941.941,0,0,0,1.369-.388l.757-1.42a.941.941,0,0,0-.446-1.353m-.631.7c.273.145.369.3.254.518l-.507.952c-.114.217-.3.23-.574.085L-18.778-4.15c-.277-.148-.357-.305-.242-.52l.507-.953c.115-.215.286-.23.564-.082Z" transform="translate(19.982 6.767)" fill="#fff"/>
        </g>
        <g id="g100" transform="translate(7.577 32.403)">
          <path id="path102" d="M-8.657-1.185l-.909-.353A.938.938,0,0,0-10.885-1l-1.022,2.634.745.289.174-.449L-7.18,2.949l-.174.45.736.286L-5.923,1.9l-.736-.287-.192.5L-8.44,1.49-7.972.284a1.064,1.064,0,0,0-.686-1.469m-.368.829c.287.112.392.26.3.488l-.421,1.085L-10.66.627l.421-1.085c.088-.227.257-.27.552-.156Z" transform="translate(11.907 1.63)" fill="#fff"/>
        </g>
        <g id="g104" transform="translate(92.451 46.791)">
          <path id="path106" d="M-2.121,0l-.8.044.061,1.048,2.386.97L-2.728,3.31l.066,1.133.8-.046-.028-.481L.39,2.5l1.721-.1.029.516.79-.045L2.82.951,2.029,1l.029.5L.294,1.6-2.092.48Z" transform="translate(2.917)" fill="#fff"/>
        </g>
        <g id="g108" transform="translate(92.581 52.033)">
          <path id="path110" d="M-15.39-.482l-3.252-.137-.076,1.8.8.033.039-.933,1.666.07-.057,1.4c-.012.245-.174.339-.481.326l-3.159-.131c-.315-.014-.454-.119-.443-.365L-20.3.18l.93.041.035-.811-1.728-.073-.1,2.478a.941.941,0,0,0,.992,1.027l3.609.151a.943.943,0,0,0,1.069-.94Z" transform="translate(21.166 0.663)" fill="#fff"/>
        </g>
        <g id="g112" transform="translate(92.02 56.46)">
          <path id="path114" d="M-13.362-1.572l-3.567-.571a.94.94,0,0,0-1.176.807L-18.361.252a.94.94,0,0,0,.866,1.137l3.565.571a.941.941,0,0,0,1.171-.808l.254-1.59a.938.938,0,0,0-.858-1.135m-.373.863c.306.052.445.167.408.409L-13.5.764c-.039.241-.211.315-.515.267l-3.121-.5c-.312-.047-.437-.17-.4-.411l.172-1.066c.038-.242.2-.31.506-.26Z" transform="translate(18.378 2.163)" fill="#fff"/>
        </g>
        <g id="g116" transform="translate(90.783 61.426)">
          <path id="path118" d="M-17.151-1.313l-1.861-.493-.21.791,1.1.292-.388,1.46L-22.461-.309l.133-.506-.77-.205-.49,1.849.773.2.123-.467,3.949,1.047-.123.465.764.2Z" transform="translate(23.588 1.805)" fill="#fff"/>
        </g>
        <g id="g120" transform="translate(89.441 65.285)">
          <path id="path122" d="M-14.227-3.646-17.6-4.926a.94.94,0,0,0-1.315.552l-.57,1.505a.942.942,0,0,0,.618,1.289L-15.5-.3a.938.938,0,0,0,1.31-.556l.572-1.5a.943.943,0,0,0-.613-1.286m-.54.773c.289.11.405.251.319.481l-.384,1.008c-.086.229-.271.265-.56.158l-2.955-1.121c-.293-.111-.392-.257-.3-.486l.382-1.008c.086-.227.255-.266.548-.153Z" transform="translate(19.568 5.015)" fill="#fff"/>
        </g>
        <g id="g124" transform="translate(86.498 69.053)">
          <path id="path126" d="M-8.059-1.023l-.7-.384L-9.395-.249l2.933,1.611a5.432,5.432,0,0,0,.789.35l-4.722-.14-.688,1.253.7.383.231-.421,3.582,1.967-.232.423.692.38L-5.475,4.4-8.4,2.79a5.716,5.716,0,0,0-.8-.358L-4.43,2.5l.414-.755L-8.293-.6Z" transform="translate(11.084 1.407)" fill="#fff"/>
        </g>
        <g id="g128" transform="translate(83.395 74.029)">
          <path id="path130" d="M-19.241-9.029l-.634-.473-.287.387-3.285-2.443.286-.386-.642-.474-.825,1.113,1.994,1.481-1.008,1.355-1.993-1.479-.827,1.111.64.476.287-.385,3.285,2.44-.286.389.636.47.826-1.113-1.989-1.48L-22.058-9.4l1.992,1.479Z" transform="translate(26.463 12.419)" fill="#fff"/>
        </g>
        <g id="g132" transform="translate(80.792 78.4)">
          <path id="path134" d="M-16.344-10.166l-1.327-1.207-.537.59.744.676-.942,1.039c-.165.179-.35.147-.578-.06l-2.339-2.124c-.233-.213-.273-.385-.107-.565l.942-1.036.726.66.537-.588-1.317-1.2L-22.2-12.155a.939.939,0,0,0,.1,1.421l2.672,2.43A.941.941,0,0,0-18-8.34Z" transform="translate(22.479 13.981)" fill="#fff"/>
        </g>
        <g id="g136" transform="translate(76.774 81.57)">
          <path id="path138" d="M-17.794-11.365l-1.173-1.37-.609.523.656.771-1.327,1.135-1.144-1.338,1.377-1.178-.5-.579-1.375,1.177L-22.9-13.412l1.283-1.1.624.729.6-.514-1.143-1.337-2.937,2.514.516.606.367-.314,2.655,3.106L-21.3-9.4l.513.6Z" transform="translate(24.473 15.631)" fill="#fff"/>
        </g>
        <g id="g140" transform="translate(72.562 84.52)">
          <path id="path142" d="M-12.083-3.532l-.885-1.326-3.65,2.44.885,1.325.7-.468-.444-.662.748-.5,2.27,3.4L-12.9.968l.441.659,1.636-1.1-.438-.658L-11.7.168l-2.27-3.4.747-.5.444.661Z" transform="translate(16.619 4.857)" fill="#fff"/>
        </g>
        <g id="g144" transform="translate(66.343 88.457)">
          <path id="path146" d="M-11.019-4.287-11.73-5.9l-3.424,1.514.323.73.441-.195L-12.74-.111l-.44.2.321.723,1.768-.781L-11.412-.7l-.5.221-.7-1.577,1.715-.761-.321-.729-1.718.758-.633-1.429,1.377-.606.388.879Z" transform="translate(15.155 5.896)" fill="#fff"/>
        </g>
        <g id="g148" transform="translate(54.548 92.057)">
          <path id="path150" d="M-11.909-2.108l-.1-.791-1.041.134-.8,2.449-1.4-2.167-1.126.143.1.79.479-.06,1.568,2.18.219,1.71-.514.066.1.784,1.91-.243-.1-.786-.5.065L-13.34.414l.953-2.461Z" transform="translate(16.379 2.899)" fill="#fff"/>
        </g>
        <g id="g152" transform="translate(49.644 92.632)">
          <path id="path154" d="M-11.735-4.247l-.013-1.594-4.392.035.015,1.594.84-.007-.006-.793.9-.008.033,4.085-.523,0,.006.79,1.968-.015-.006-.792-.532,0-.033-4.085.9-.009.006.8Z" transform="translate(16.14 5.841)" fill="#fff"/>
        </g>
        <g id="g156" transform="translate(46.618 92.431)">
          <path id="path158" d="M-4.98-15.5l.068-.787-.487-.042.357-4.071.487.044.07-.8-1.869-.163-.069.793.48.043-.358,4.07-.48-.04-.069.786Z" transform="translate(6.849 21.312)" fill="#fff"/>
        </g>
        <g id="g160" transform="translate(41.69 91.896)">
          <path id="path162" d="M-9.557-13.408l.227-1.215a.932.932,0,0,0-.772-1.19l-1.151-.215c-.241-.045-.31-.218-.254-.522l.123-.648c.057-.311.183-.433.423-.389l1.152.215-.133.711.875.166.28-1.5-2.289-.428a.939.939,0,0,0-1.157.835l-.213,1.136a.943.943,0,0,0,.777,1.2l1.145.213c.241.043.311.211.254.522l-.134.714c-.057.3-.186.442-.425.4l-1.256-.237.16-.86-.912-.171-.307,1.638,2.438.456a.934.934,0,0,0,1.149-.831" transform="translate(13.144 18.441)" fill="#fff"/>
        </g>
        <g id="g164" transform="translate(36.597 90.471)">
          <path id="path166" d="M-10.2-7.214c-.088.3-.227.41-.461.342l-1.116-.33.461-1.56,1.117.327c.234.07.29.237.2.54Zm.307,3.957.223-.758-.467-.138.309-1.05a.915.915,0,0,0-.448-1.242c.516.08.818-.086.952-.532l.258-.873a.937.937,0,0,0-.645-1.268l-2.708-.8-.225.766.462.135L-13.34-5.1l-.461-.139-.224.759,1.329.394.708-2.393,1.136.337c.242.072.28.247.191.544l-.574,1.943Z" transform="translate(14.025 9.921)" fill="#fff"/>
        </g>
        <g id="g168" transform="translate(31.634 88.689)">
          <path id="path170" d="M-9.643-18.032l.712-1.657-.739-.318-.4.931-1.6-.689.694-1.619,1.664.715.3-.7-1.664-.715.618-1.438,1.552.668-.379.884.725.313.7-1.615L-11.022-24.8l-.315.734.442.189-1.613,3.754-.444-.19-.312.728Z" transform="translate(13.263 24.8)" fill="#fff"/>
        </g>
        <g id="g172" transform="translate(27.917 86.107)">
          <path id="path174" d="M-13.129-8.022l.4-.694-1.055-.6-3.229,3.392,1.276-4.507-1.049-.6-.395.692.418.239-1.29,4.878.954.546,3.556-3.583Z" transform="translate(18.057 11.033)" fill="#fff"/>
        </g>
        <g id="g176" transform="translate(23.799 84.593)">
          <path id="path178" d="M-4.06-15.2l.462-.643-.4-.284,2.38-3.32.4.285.464-.652L-2.279-20.9l-.465.648.392.282-2.38,3.32-.392-.28-.46.64Z" transform="translate(5.584 20.904)" fill="#fff"/>
        </g>
        <g id="g180" transform="translate(19.117 80.995)">
          <path id="path182" d="M-18.23-10.044l.524-.6-1-.866L-20.9-8.988a5.758,5.758,0,0,0-.509.7l1.137-4.587-1.081-.937-.522.6.364.315-2.68,3.086-.364-.317-.518.6,1,.866,2.19-2.522a5.7,5.7,0,0,0,.521-.708l-1.078,4.649.652.566,3.2-3.682Z" transform="translate(25.073 13.815)" fill="#fff"/>
        </g>
        <g id="g184" transform="translate(15.853 77.117)">
          <path id="path186" d="M-15.688-10.483l.6-.527-.879-1-3.315,2.919c-.231.2-.416.233-.578.05l-.75-.854c-.162-.182-.106-.357.128-.563l3.314-2.917-.921-1.047-.6.526.323.368L-21.121-11.1a1.1,1.1,0,0,0-.146,1.659l.832.945a1.108,1.108,0,0,0,1.671.07l2.753-2.424Z" transform="translate(21.577 14.417)" fill="#fff"/>
        </g>
        <g id="g188" transform="translate(10.007 70.191)">
          <path id="path190" d="M-17.691-12.194l.691-.4-.664-1.144-2.895,1.68a5.681,5.681,0,0,0-.709.5l2.56-3.973-.719-1.235-.688.4.241.415L-23.407-13.9l-.243-.415-.682.4.664,1.145,2.887-1.677a6.049,6.049,0,0,0,.721-.5l-2.523,4.051.434.746,4.216-2.449Z" transform="translate(24.332 16.771)" fill="#fff"/>
        </g>
        <g id="g192" transform="translate(7.616 67.108)">
          <path id="path194" d="M-4.979-13.381l.727-.311-.174-.41,3.987-3.1-.514-1.2-5,.724-.169-.395-.727.309.435,1.018L-4.6-17.06l.612,1.436-1.474,1.1Zm1.614-2.706-.466-1.091,2.515-.416Z" transform="translate(6.848 18.404)" fill="#fff"/>
        </g>
        <g id="g196" transform="translate(6.026 60.745)">
          <path id="path198" d="M-16.081-12.942l.765-.222-.371-1.27L-18.9-13.5a5.681,5.681,0,0,0-.807.309l3.439-3.242-.4-1.37-.767.221.136.464-3.923,1.144-.134-.461-.76.222.372,1.267,3.205-.934a6.149,6.149,0,0,0,.822-.316l-3.421,3.327.241.829,4.681-1.365Z" transform="translate(22.117 17.8)" fill="#fff"/>
        </g>
        <g id="g200" transform="translate(5.102 56.19)">
          <path id="path202" d="M-1.587-12.387l1.746-.277L.02-13.535l-.965.154-.289-1.824,4.517,1.947L4-13.373l-.579-3.663-1.731.274.138.881.944-.148L3.046-14.3l-4.505-1.964-.724.114Z" transform="translate(2.183 17.036)" fill="#fff"/>
        </g>
        <g id="g204" transform="translate(4.803 51.889)">
          <path id="path206" d="M-3.077-10.005l3.608-.178a.942.942,0,0,0,.985-1.035l-.079-1.608a.942.942,0,0,0-1.081-.933l-3.608.178a.94.94,0,0,0-.978,1.034l.079,1.605a.942.942,0,0,0,1.074.937m.185-.925c-.309.017-.471-.07-.483-.315l-.053-1.076c-.012-.242.142-.352.45-.366L.177-12.84c.315-.018.464.076.476.319l.053,1.077c.013.245-.126.345-.442.36Z" transform="translate(4.232 13.761)" fill="#fff"/>
        </g>
        <g id="g208" transform="translate(4.883 46.778)">
          <path id="path210" d="M-9.347-10.85l.973.076a.938.938,0,0,0,1.106-.894l.217-2.816-.8-.062-.036.48-4.074-.313.036-.481-.788-.062-.147,1.914.787.061.041-.531,1.7.131-.1,1.29A1.062,1.062,0,0,0-9.347-10.85m.113-.9c-.308-.023-.45-.134-.432-.378l.09-1.162,1.623.126L-8.043-12c-.02.243-.171.334-.485.309Z" transform="translate(12.856 14.923)" fill="#fff"/>
        </g>
        <g id="g212" transform="translate(62.505 90.46)">
          <path id="path214" d="M-12.262-11.092l-1.135-3.43a.942.942,0,0,0-1.26-.672l-1.528.506a.942.942,0,0,0-.61,1.292l1.135,3.427A.94.94,0,0,0-14.4-9.3l1.528-.505a.942.942,0,0,0,.613-1.285m-.939.068c.1.294.058.472-.174.551l-1.025.337c-.231.077-.377-.042-.473-.335l-.991-3c-.1-.3-.05-.468.182-.545l1.024-.338c.232-.075.366.031.465.33Z" transform="translate(16.864 15.255)" fill="#fff"/>
        </g>
        <g id="g216" transform="translate(14.873 14.637)">
          <path id="path218" d="M-182.017-143.724l-5.326-1.73-.393-.129-.213.354a30.266,30.266,0,0,1-4.562,5.789l-.318.314.263.36,3.232,4.449a35.817,35.817,0,0,1-8.453,5.794l-3.285-4.519-.246-.341-.382.168a29.763,29.763,0,0,1-6.7,2.008l-.429.074v5.97a36.776,36.776,0,0,1-4.8.323,35.908,35.908,0,0,1-5.449-.421v-5.979l-.42-.083a29.869,29.869,0,0,1-6.541-2.112l-.387-.175-.25.344-3.271,4.5a35.978,35.978,0,0,1-8.363-5.918l3.246-4.466.258-.355-.306-.316a30.091,30.091,0,0,1-4.292-5.588l-.213-.356-.4.127-5.322,1.73a35.58,35.58,0,0,1-3.461-9.648l5.231-1.7.426-.137-.072-.444a30.323,30.323,0,0,1-.408-4.9c0-.787.039-1.62.117-2.546l.034-.41-.394-.129-5.333-1.733a35.675,35.675,0,0,1,2.807-9.858l5.223,1.7.429.139.2-.4a29.965,29.965,0,0,1,4.427-6.593l.275-.313-.245-.338-3.286-4.524A35.9,35.9,0,0,1-231.248-192l3.235,4.451.262.363.4-.206a29.758,29.758,0,0,1,7.856-2.749l.42-.083v-5.981a36.365,36.365,0,0,1,5.449-.42,36.288,36.288,0,0,1,4.8.325v5.968l.429.077a29.769,29.769,0,0,1,8.033,2.624l.4.195.258-.356,3.245-4.466a36.067,36.067,0,0,1,8.2,6.135l-3.267,4.5-.251.344.287.314a30.057,30.057,0,0,1,4.69,6.815l.2.4.426-.138,5.232-1.7a35.586,35.586,0,0,1,2.864,9.84l-5.323,1.729-.395.128.038.416c.088.96.131,1.86.131,2.748a30.366,30.366,0,0,1-.44,5.1l-.076.443.428.14,5.225,1.7a35.742,35.742,0,0,1-3.518,9.629m-.965-12.181a31.441,31.441,0,0,0,.388-4.829c0-.79-.035-1.589-.1-2.429l5.349-1.738.411-.134-.055-.428a36.6,36.6,0,0,0-3.2-11l-.2-.417-.434.143-5.259,1.71a31.019,31.019,0,0,0-4.36-6.334l3.284-4.523.256-.355-.306-.314a36.986,36.986,0,0,0-9.168-6.854l-.4-.211-.267.365-3.263,4.489a30.841,30.841,0,0,0-7.483-2.444v-6.009l-.445-.066a37.417,37.417,0,0,0-5.392-.393,37.511,37.511,0,0,0-6.055.5l-.435.072v6.027a30.862,30.862,0,0,0-7.312,2.556l-3.251-4.475-.27-.37-.4.22a36.994,36.994,0,0,0-9.07,6.991l-.3.314.253.35,3.306,4.549a30.939,30.939,0,0,0-4.1,6.1l-5.249-1.706-.44-.141-.193.418a36.637,36.637,0,0,0-3.143,11.015l-.052.427.408.132,5.361,1.742c-.058.791-.088,1.524-.088,2.22a31.108,31.108,0,0,0,.356,4.628l-5.258,1.708-.436.14.085.453a36.675,36.675,0,0,0,3.865,10.778l.207.38.41-.132,5.352-1.74a31.233,31.233,0,0,0,3.92,5.107l-3.261,4.489-.265.366.324.314a37.043,37.043,0,0,0,9.343,6.616l.394.195.259-.355,3.287-4.527a30.955,30.955,0,0,0,5.961,1.923v6.024l.435.073a37.517,37.517,0,0,0,6.055.5,37.51,37.51,0,0,0,5.39-.392l.447-.068v-6a31.076,31.076,0,0,0,6.116-1.835l3.3,4.545.257.351.391-.188a36.918,36.918,0,0,0,9.441-6.475l.333-.314-.268-.37-3.249-4.472a30.943,30.943,0,0,0,4.185-5.318l5.358,1.74.409.134.207-.376a36.639,36.639,0,0,0,3.927-10.762l.089-.452-.437-.143Z" transform="translate(250.337 197.67)" fill="#fff" fill-rule="evenodd"/>
        </g>
        <g id="g220" transform="translate(41.451 23.373)">
          <path id="path222" d="M-46.19-22.784a1.8,1.8,0,0,1-1.792-.474c-.263-.342.079-1.4.369-1.344s.026.238-.054.711.211.606.211.606c2.716-2.055.607-2.689.607-2.689a2.483,2.483,0,0,0,.318-2.16,2.209,2.209,0,0,0-1.715,1.9c-.4-.632-1.476-.237-1.739.369a8.155,8.155,0,0,0-.21,2.293c1.079.238.842-1.186,1.237-1.238s.633,1.318-1.212,1.66-2.32-.712-2.53-1.292.474-1.082.632-.29a1.549,1.549,0,0,0,.791,1.08c-.237-.578.712-1.475.633-2.477s-1.792-.473-1.792-.473a1.807,1.807,0,0,0-.054-1.453,3.845,3.845,0,0,0-.4-.707v-.964h.775v-1.014h-.775v-.593H-53.9v.593h-.774v1.014h.774v1a3.935,3.935,0,0,0-.376.67A1.817,1.817,0,0,0-54.33-26.6s-1.712-.528-1.792.473.87,1.9.634,2.477a1.552,1.552,0,0,0,.791-1.08c.157-.792.842-.289.632.29s-.685,1.634-2.53,1.292-1.605-1.713-1.212-1.66.159,1.476,1.24,1.238a8.249,8.249,0,0,0-.213-2.293c-.263-.606-1.344-1-1.74-.369a2.205,2.205,0,0,0-1.712-1.9,2.479,2.479,0,0,0,.316,2.16s-2.108.635.608,2.689c0,0,.289-.132.209-.606s-.341-.659-.051-.711.63,1,.368,1.344a1.8,1.8,0,0,1-1.793.474c-1.877-.421-.481-3.4-2.952-3.689a24.074,24.074,0,0,0,2.891,5.087h14.508a24.092,24.092,0,0,0,2.89-5.087c-2.47.29-1.076,3.268-2.952,3.689" transform="translate(63.528 31.336)" fill="#fff" fill-rule="evenodd"/>
        </g>
        <g id="g224" transform="translate(45.283 38.074)">
          <path id="path226" d="M-19.794-3.2l.158.091.282-.484-.335-.2.2-.333-.48-.279-.2.33-.334-.2-.284.482.064.04a1.465,1.465,0,0,1,.926.546m.394,9.126h0v0Zm3.814-6.688a1.471,1.471,0,0,1-.9-.381,2.916,2.916,0,0,0,.253-1.175,1.984,1.984,0,0,0-.182-.864,1.059,1.059,0,0,0-.612-.645,1.411,1.411,0,0,0-.7-.183A1.462,1.462,0,0,0-19.182-2.55a1.453,1.453,0,0,0,.774,1.274l0,.015-.527.043-.027.082a.576.576,0,0,0-.019.143.474.474,0,0,0,.066.244.412.412,0,0,0,.156.131.414.414,0,0,0-.042.071c-.105,0-.582.027-.582.027l-.008.11v.04a.532.532,0,0,0,.148.385.362.362,0,0,1-.041.049h-.422s-.2-.039-.293-.053l-.448-.54a3.52,3.52,0,0,1-.135-.861c0-.437.15-.552.15-.556.374-.143.461-.282.475-.367a.781.781,0,0,0,.092-.337.646.646,0,0,0-.063-.267.708.708,0,0,0-.143-.21v0a1.192,1.192,0,0,0-.765-.368c-.092,0-.211.017-.238.118a.127.127,0,0,1-.135.086.125.125,0,0,1-.115-.111.9.9,0,0,0-.2-.41.527.527,0,0,0-.073-.057.971.971,0,0,0-.976.081,1.035,1.035,0,0,0-.411,1.011l.031.257.187-.185c.24-.243.814.19,1.047.4-.011.109-.074,1.235-.075,1.318-.367.372-.761.865-.874,1.007-.071.01-.312.055-.312.055l-.4,0a.229.229,0,0,1-.042-.049.535.535,0,0,0,.149-.385c0-.016,0-.029,0-.04l-.009-.11s-.474-.026-.577-.027c-.015-.025-.025-.037-.044-.071a.417.417,0,0,0,.157-.131.486.486,0,0,0,.064-.244.479.479,0,0,0-.02-.143l-.023-.082-.53-.043-.005-.015a1.449,1.449,0,0,0,.777-1.274,1.46,1.46,0,0,0-1.46-1.457,1.416,1.416,0,0,0-.707.19,1.075,1.075,0,0,0-.613.655,2.022,2.022,0,0,0-.174.846,2.916,2.916,0,0,0,.259,1.176,1.481,1.481,0,0,1-.9.381l-.142.018.034.143c.133.545.582.744,1.293.576A.848.848,0,0,0-25.572-.2c.057.081.1.144.134.182-.009.086-.118,1.205-.118,1.205-.039.264-.654.424-.947.463l-.143.018.033.136c.137.551.59.75,1.293.583.4-.1.69-.5.884-1.184a.4.4,0,0,0,.038.045c-.021.25-.13,1.634-.187,2.03-.035.263-.655.429-.947.466l-.142.016.035.14c.138.544.58.748,1.293.577.8-.187,1.016-1.575,1.072-2.125v1.67l.163.023c0,.014,0,.023,0,.039a.789.789,0,0,0,.005.088c-.215.462-.466,1.031-.584,1.284a2.382,2.382,0,0,0-1.467.3l.287.476a2.033,2.033,0,0,1,.552-.207,1.452,1.452,0,0,0-.408.605l.536.148a2.01,2.01,0,0,1,.806-.761.392.392,0,0,0,.067-.062,5.12,5.12,0,0,1,1.02-.04l.025-.559c-.324-.012-.57-.007-.759,0l.461-1.022a.085.085,0,0,1,.025-.015l.191.112s.31-.112.424-.157a1.559,1.559,0,0,1,.092.656c0,.189-.013.426-.043.724a1.06,1.06,0,0,1-.39.77,1.638,1.638,0,0,1-1.141.17l-.247-.047.1.225a1.234,1.234,0,0,0,.834.819,1.177,1.177,0,0,0,.842-.2c-.006.068-.015.135-.015.2a1.969,1.969,0,0,0,.465,1.2l.092.106.092-.1a1.949,1.949,0,0,0,.479-1.21,1.149,1.149,0,0,0-.019-.191,1.189,1.189,0,0,0,.845.2,1.241,1.241,0,0,0,.837-.819l.1-.225-.243.047a1.627,1.627,0,0,1-1.137-.17,1.031,1.031,0,0,1-.395-.77c-.03-.3-.044-.535-.044-.724a1.659,1.659,0,0,1,.09-.656c.118.045.428.157.428.157l.134-.081.487,1c-.188-.007-.43-.012-.741,0l.022.559a4.756,4.756,0,0,1,1.04.044.308.308,0,0,0,.048.058c.3.169.742.525.806.761l.541-.148a1.467,1.467,0,0,0-.411-.605,2.1,2.1,0,0,1,.548.207l.289-.476a2.358,2.358,0,0,0-1.475-.3c-.111-.229-.352-.724-.565-1.163a.553.553,0,0,0,.035-.211V4.047l.159-.023V2.354c.061.55.279,1.938,1.077,2.125.7.171,1.149-.032,1.29-.577l.035-.14-.146-.016c-.292-.038-.906-.2-.947-.466-.054-.4-.16-1.78-.185-2.03a.2.2,0,0,0,.036-.045c.2.679.49,1.088.881,1.184.712.167,1.158-.032,1.3-.583l.035-.136-.143-.018c-.294-.039-.908-.2-.948-.463,0,0-.095-.984-.116-1.205.026-.039.076-.1.133-.182a.83.83,0,0,0,.325.178c.711.168,1.155-.031,1.293-.576l.037-.143Z" transform="translate(27.224 4.397)" fill="#fff" fill-rule="evenodd"/>
        </g>
        <g id="g228" transform="translate(35.214 40.745)">
          <path id="path230" d="M-15.73-9.5a2.749,2.749,0,0,0,.352-.825.8.8,0,0,0-.833-.752.8.8,0,0,0-.837.752H-18.06a1.806,1.806,0,0,1,1.849-1.763,1.809,1.809,0,0,1,1.849,1.763,3.34,3.34,0,0,1-.5,1.347Zm.644,4.022.417-.573,2.017,1.578-.833-2.139-1.55-.382a3.176,3.176,0,0,0,1.885-2.9,3.173,3.173,0,0,0-3.174-3.172A3.175,3.175,0,0,0-19.5-9.889a3.176,3.176,0,0,0,1.886,2.9l-.575-.083-.189.252,1.529,1.2.486-.565.424.359-.261.3,1.028.26-.031.809a.653.653,0,0,1,.567.642.656.656,0,0,1-.655.65.656.656,0,0,1-.575-.362L-16.8-3s-1.745,1.228-2,1.409l-.069.957-.4,4.991h5.969l.134-4.488.042-1.567-1.274-1.47Zm-2.006,2.007L-16-4.088c.053-.092.2-.358.247-.44,0-.063,0-.162.009-.3-.213-.056-.465-.116-.662-.169-.159.258-.727,1.188-.727,1.188l-1.477.31-.114-.549s.327-.066.653-.134l-.01-.008.518-.6-1.45-1.194-1.095,1.445,1.235,2.32c.556-.394,1.758-1.242,1.779-1.25M-18.4-6.831l-2.231-1.8-1.006-.153.425.967L-19.03-6Zm3.207,3.021a.094.094,0,0,0-.1-.095.092.092,0,0,0-.09.095.091.091,0,0,0,.09.087.093.093,0,0,0,.1-.087m.793-1.316c.224.735.483,1.612.505,1.684.056.06.72.83,1.085,1.254l.3-.064.105-1.313c-.172-.134-1.287-1.006-2-1.561" transform="translate(21.635 13.061)" fill="#fff" fill-rule="evenodd"/>
        </g>
        <g id="g232" transform="translate(57.43 40.745)">
          <path id="path234" d="M-4.771-15.917l-.047-.291c-.19-.331-.7-1.241-1.05-1.878V-15.2l-.694,1.772.073,1.628,1.124.116c.174-1.17.484-3.3.484-3.3s.075-.623.11-.933m2.646-5a1.811,1.811,0,0,1,1.85,1.763,3.3,3.3,0,0,1-.5,1.347l-.872-.522a2.66,2.66,0,0,0,.354-.825.8.8,0,0,0-.834-.753.8.8,0,0,0-.834.753H-3.976a1.81,1.81,0,0,1,1.851-1.763m-2.095,4.641A.181.181,0,0,1-4.2-16.2c.02.014.036.023.054.037l1.091-.3,1.823-.067.055,0,.8.322A3.142,3.142,0,0,0,.882-18.72a3.172,3.172,0,0,0-3.171-3.172A3.17,3.17,0,0,0-5.462-18.72c0,.085.01.163.015.246ZM1.06-14.928l.545.529,1.174-1.188-.544-.531-.588-.035.316-.334-.427-.422L.086-15.333l-.16-.154c-.219-.085-1.111-.441-1.2-.479l-1.7.061c-.049.016-1,.277-1.276.352-.039.309-.074.633-.074.64l-.59,3.97.006.962L-4.849-4.4H1.156L.668-10.1l-.1-1.436-1.6-.15-1.12-.416.017,1.468-2.031.015-.018-2.026,1.481-.017-.327-.661.9-.574.141-.087s.223.115.492.258l1.578-1.6.394.394L-.969-13.465l.375.191.375-.2.266.491-.634.345s-1.142-.587-1.372-.7c-.108.071-.2.131-.35.222.093.185.173.344.221.446.172.063,1.125.414,1.182.433s.878.087,1.54.148l.846-.069L.859-14.581l-.375-.363.537-.555ZM-3.624-12.1c0,.282.012.636.013.914.277,0,.631-.007.914-.011-.005-.277-.009-.631-.009-.91-.286,0-.635,0-.919.007" transform="translate(6.561 21.892)" fill="#fff" fill-rule="evenodd"/>
        </g>
        <g id="g236" transform="translate(47.662 67.207)">
          <path id="path238" d="M-13.667-14.3c.326.029.952.092,1.286.123-.035.329-.1.952-.13,1.285-.326-.029-.956-.092-1.285-.124.032-.328.1-.957.128-1.283m-3.237,0c.034.327.1.955.123,1.283-.327.032-.954.1-1.283.124-.032-.333-.088-.956-.125-1.283.332-.033.956-.1,1.285-.124m4.368-4.384-.378.011.3-.357-.432-.357-2.236,2.7-2.236-2.7-.432.357.3.357-.43-.011-.035.03-.551.449,1.066,1.288.588-.479.067-.424,1.3,1.572-1.139,1.375-2.011.2.23,2.39,2.4-.225-.2-2,1.079-1.3,1.077,1.3-.195,2,2.4.225.231-2.39-2.013-.2-1.137-1.374,1.3-1.576.068.426.584.479L-11.9-18.2l-.586-.479Zm-3.019-.982v.389h-.388v.556h.388v.387H-15v-.387h.386v-.556H-15v-.389Z" transform="translate(18.797 19.664)" fill="#fff" fill-rule="evenodd"/>
        </g>
        <g id="g240" transform="translate(32.537 34.337)">
          <path id="path242" d="M-19-75.461h.825v-1.368h2.876v-2.255H-21.3v2.255H-19Zm22.184,0h.827v-1.368H6.32v-2.255H.312v2.255H3.188Zm-13.312,0H-9.3v-1.368h3.611v1.368h.829v-1.368h1.193v-5.357l1.085-1.4v-2.286H-4.163V-84.5H-5.321v-1.368H-6.906V-84.5H-8.057v-1.368H-9.639V-84.5H-10.8v-1.368h-1.583v2.286l1.084,1.4v5.357h1.172Zm-4.83,11.1c0-.034,0-.067,0-.1a8.156,8.156,0,0,1,.884-3.7,7.412,7.412,0,0,1,6.584-4.162A7.449,7.449,0,0,1-.734-67.788a8.2,8.2,0,0,1,.709,3.326c0,.136,0,.268-.011.4A18.728,18.728,0,0,1-7.09-62.654a18.98,18.98,0,0,1-7.865-1.709M5.025-75.814v1.37H2.174v-1.37H.595v1.37H-2.264v-1.37H-3.846v1.37H-6.7v-1.37H-8.283v1.37h-2.856v-1.37h-1.583v1.37h-2.852v-1.37h-1.58v1.37h-2.858v-1.37H-22.1v1.681h.8v5.013a15.359,15.359,0,0,1-3.811-9.964v-23.684H10.931v23.684A15.334,15.334,0,0,1,6.32-68.3v-5.828h.8v-1.681Zm6.411-27.971H-26.127v24.7c0,9.457,8.716,17.445,19.036,17.445A20.089,20.089,0,0,0,6.145-66.733a16.56,16.56,0,0,0,5.8-12.351v-24.7Z" transform="translate(26.127 103.785)" fill="#fff" fill-rule="evenodd"/>
        </g>
        <g id="g244" transform="translate(-0.001 -0.001)">
          <path id="path246" d="M0-137.407A51.632,51.632,0,0,0,51.574-85.835a51.631,51.631,0,0,0,51.573-51.572,51.633,51.633,0,0,0-51.573-51.575A51.634,51.634,0,0,0,0-137.407m1.009,0a50.624,50.624,0,0,1,50.565-50.567,50.623,50.623,0,0,1,50.564,50.567A50.623,50.623,0,0,1,51.574-86.841,50.623,50.623,0,0,1,1.009-137.407" transform="translate(0 188.982)" fill="#fff" fill-rule="evenodd"/>
        </g>
      </g>
    </g>
  </g>
</svg>
