<svg id="left-quote" xmlns="http://www.w3.org/2000/svg" width="32.652" height="28.791" viewBox="0 0 32.652 28.791">
  <g id="left-quote-2" data-name="left-quote" transform="translate(32.652 28.791) rotate(-180)">
    <path id="Path_1836" data-name="Path 1836" d="M13.117,5.717a1.57,1.57,0,0,0,.79-2.107L12.617.9A1.575,1.575,0,0,0,10.562.133a18.147,18.147,0,0,0-5.69,3.688A13.763,13.763,0,0,0,1.054,9.852,33.081,33.081,0,0,0,0,19.124v8.086a1.585,1.585,0,0,0,1.58,1.58H11.932a1.585,1.585,0,0,0,1.58-1.58V16.859a1.585,1.585,0,0,0-1.58-1.58H6.98a11.106,11.106,0,0,1,1.844-6.4A10.012,10.012,0,0,1,13.117,5.717Z" transform="translate(0)" fill="#91c8df"/>
    <path id="Path_1837" data-name="Path 1837" d="M13.091,5.69a1.57,1.57,0,0,0,.79-2.107L12.591.9A1.575,1.575,0,0,0,10.536.133,19.081,19.081,0,0,0,4.873,3.794,14.058,14.058,0,0,0,1.027,9.852,32.638,32.638,0,0,0,0,19.1v8.086a1.585,1.585,0,0,0,1.58,1.58H11.932a1.585,1.585,0,0,0,1.58-1.58V16.833a1.585,1.585,0,0,0-1.58-1.58H6.954A11.108,11.108,0,0,1,8.8,8.851,10.01,10.01,0,0,1,13.091,5.69Z" transform="translate(18.623 0.026)" fill="#91c8df"/>
  </g>
</svg>
