<svg id="Capa_1" enable-background="new 0 0 512 512" height="512" viewBox="0 0 512 512" width="512" xmlns="http://www.w3.org/2000/svg"><g>
<path d="m176 270h160c30.327 0 55-24.673 55-55v-160c0-30.327-24.673-55-55-55h-160c-30.327 0-55 24.673-55 55v160c0 30.327 24.673 55 55 55zm9.29-138.535c5.857-5.858 15.355-5.858 21.213 0l24.749 24.748 74.246-74.246c5.857-5.858 15.355-5.858 21.213 0s5.858 15.355 0 21.213l-84.853 84.853c-2.929 2.929-6.768 4.394-10.606 4.394s-7.678-1.464-10.606-4.394l-35.355-35.355c-5.859-5.858-5.859-15.355-.001-21.213z"  fill="#91c8df"/>
<circle cx="256" cy="354.5" r="52.5"  fill="#91c8df"/><circle cx="423.5" cy="354.5" r="52.5"  fill="#91c8df"/><circle cx="88.5" cy="354.5" r="52.5"  fill="#91c8df"/>
<path d="m481.018 413.564c-14.873 14.487-35.165 23.436-57.518 23.436s-42.645-8.949-57.518-23.436c-2.793 2.438-5.426 5.053-7.889 7.823 9.8 17.149 15.407 36.988 15.407 58.113v32.5h122.5c8.284 0 15-6.716 15-15v-17.5c0-26.305-11.61-49.896-29.982-65.936z"  fill="#91c8df"/>
<path d="m146.018 413.564c-14.873 14.487-35.165 23.436-57.518 23.436s-42.645-8.949-57.518-23.436c-18.372 16.04-29.982 39.631-29.982 65.936v17.5c0 8.284 6.716 15 15 15h122.5v-32.5c0-21.125 5.607-40.965 15.407-58.113-2.463-2.77-5.097-5.385-7.889-7.823z"  fill="#91c8df"/>
<path d="m313.518 413.564c-14.873 14.487-35.165 23.436-57.518 23.436s-42.645-8.949-57.518-23.436c-18.372 16.04-29.982 39.631-29.982 65.936v32.5h175v-32.5c0-26.305-11.61-49.896-29.982-65.936z"  fill="#91c8df"/></g></svg>