<svg xmlns="http://www.w3.org/2000/svg" width="103.567" height="103.569" viewBox="0 0 103.567 103.569">
  <g id="logo-full-pl" transform="translate(0 0.001)">
    <path id="Path_1700" data-name="Path 1700" d="M51.785,0a51.783,51.783,0,0,1,51.783,51.783,52.339,52.339,0,0,1-.415,6.585l-2.07-.011a50.235,50.235,0,0,0,.431-6.574,49.731,49.731,0,0,0-99.462,0,50.253,50.253,0,0,0,.432,6.577l-2.07,0A52.3,52.3,0,0,1,0,51.789,51.787,51.787,0,0,1,51.785,0ZM99.2,72.635a51.81,51.81,0,0,1-94.829,0H6.625a49.76,49.76,0,0,0,90.327,0ZM49.628,82.1c-4.787-3.5-9.2-7.807-7.471-14.3.723-2.442,2.575-4.572,5.2-6.65l-.325-.178c-5.053-2.792-12.553-7.4-15.047-10.38-4.913-6.35-.75-15.375,5.587-19.52l8.071.872c.919,5.526-6.881,4.857-8.959,7.12C30.361,45.855,40.813,51.509,50,57.175l-.127-7.281,0-1.527-.3-13.909a1.987,1.987,0,0,1,3.971-.117L53.17,48.462,53.125,49.9,53.01,57.31c9.244-5.713,19.909-11.4,13.536-18.246-2.069-2.254-9.818-1.6-8.971-7.055q4.141-.234,8.25-.827c6.242,4.193,10.29,13.116,5.419,19.409-2.494,2.982-9.994,7.59-15.047,10.38l-.325.178c2.627,2.081,4.477,4.211,5.2,6.651,1.733,6.492-2.684,10.8-7.471,14.3l.576.556a18.824,18.824,0,0,1,3.858,8.785c.574,2.9-1.4,3.364-2.241-.011a18.155,18.155,0,0,0-3.208-6.221l0,10.744a1.056,1.056,0,0,1-2.062,0l0-10.708a18.751,18.751,0,0,0-3.09,6.187c-.538,3.029-2.767,3.352-2.236-.009a18.83,18.83,0,0,1,3.854-8.767l.576-.556ZM33.779,25.122l.009,0,.032-.007.041-.011.041-.009.007,0,.036-.009.041-.011.041-.011,0,0,.081-.02.041-.011h0l.041-.011L34.235,25l.036-.009h.007l.043-.011.043-.011.032-.009.011,0,.041-.011.043-.011.027-.007.016,0,.043-.011.043-.011.023-.007.02,0,.043-.011.059-.016.025-.007.043-.011.043-.011.014,0,.029-.007.043-.011L35,24.8l.009,0,.034-.009.043-.011.043-.011,0,0,.036-.009.043-.011.043-.011h0l.041-.011.043-.011.038-.011h0l.043-.011.043-.011.034-.009h.007l.043-.011.041-.014.029-.009.011,0,.041-.011.041-.014.025-.007.016,0,.041-.014.041-.014.02-.007.02-.007.041-.014.041-.014.018,0L36,24.512l.041-.014.041-.014.011,0,.027-.009.041-.016.041-.014.009,0,.032-.011.041-.014.041-.014,0,0,.036-.014.038-.016.041-.016.043.041.043.038.043.041.045.038.045.038.045.038.045.036h0l.045.036.047.036.047.036.047.036.047.034h0l.047.034h0l.047.034.05.034.05.032.05.032.05.032h0l.052.032.05.029h0l.052.029h0l.052.029.052.029h0l.052.029.052.027.052.027h0l.052.027h0l.054.025.054.025.054.025.054.025.054.023.056.023.056.02.056.023.056.02.056.02h0l.056.02.056.018.059.018h0l.059.016h0l.059.016h0l.059.016.059.014.059.014.059.014.059.014.059.011.061.011.061.011.061.009.061.009.061.009h0l.061.007.061.007.063.007.061.007.063,0,.063,0,.063,0,.063,0,.063,0h.126a5.1,5.1,0,0,0,5.1-5.1l0-.068V20.52l0-.068,0-.066,0-.068,0-.066,0-.066-.007-.066-.007-.066L45,19.992l-.009-.066-.009-.066L44.97,19.8l-.011-.063-.011-.063h0l-.014-.063h0l-.014-.063-.014-.063-.016-.063-.016-.063h0l-.016-.061h0l-.018-.061-.018-.061-.018-.061-.02-.061-.02-.061-.023-.059h0l-.02-.059h0L44.7,18.81l-.023-.059-.025-.059h0l-.025-.059h0l-.025-.059-.027-.056-.027-.059L44.52,18.4l-.029-.056h0l-.029-.054h0l-.029-.054-.029-.054-.032-.054h0l-.032-.054v0l-.032-.054-.034-.052h0l-.034-.052-.034-.052h0l-.036-.052h0l-.036-.052-.036-.05h0l-.036-.05-.038-.05h0l-.038-.05v0l-.038-.05-.038-.05-.041-.047-.041-.047-.041-.047-.041-.047-.043-.047-.043-.045-.043-.045-.043-.045-.045-.045L43.483,17l.014-.02.014-.02.014-.02.014-.02.014-.02.014-.02.014-.023.014-.02.014-.02.014-.02.014-.02.016-.02.014-.023.014-.02.016-.023.014-.02.016-.023.014-.02h0l.016-.02.016-.023.016-.02.014-.023.016-.023.016-.023.016-.02.016-.023.016-.023.016-.023.016-.023.016-.023.016-.02.016-.023.018-.023h0l.016-.02L44,16.251l.016-.023.016-.023.016-.023.018-.023.016-.023.018-.023.016-.023h0l.018-.023.016-.023v0l.018-.023L44.188,16h0l.018-.023.018-.023.018-.023.018-.023h0l.018-.023h0l.018-.023.018-.023.018-.023.018-.023h0l.018-.023.018-.023h0l.018-.023.018-.023h0l.018-.023h0l.018-.023h0l.018-.023h0l.02-.023h0l.018-.023h0l.156-.183h0l.163-.176h0L45,15.063h0l.176-.165h0l.183-.158h0l.19-.154h0l.2-.147v0l.2-.14v0l.208-.136h0l.215-.129.219-.124h0l.224-.117h0l.23-.113h0l.246-.127h0l.239-.1h0l.242-.095h0l.246-.088h0l.249-.084.253-.077.255-.072h0l.26-.066.262-.059h0l.264-.052v0l.267-.047h0l.269-.043.269-.036h0l.271-.029v0l.271-.025.273-.018.273-.014.273-.007.273,0,.273,0h0l.273.009.271.016.271.023h0l.271.027.269.034h0l.269.038.264.045.264.05.262.056.258.061.255.068.253.072.249.079.246.086h0l.242.09.237.1.233.1.228.108.224.113h0l.219.12h0l.212.124.208.131.2.136h0l.194.142h0l.19.147.183.154.176.16h0l.169.165h0l.163.169h0l.154.176h0l.145.181h0l.029.029h0l.029.029h0l.029.029h0l.027.029h0l.027.029h0l.027.029v0l.027.027h0l.025.029h0l.025.027h0l.025.027h0l.025.027h0l.025.027h0l.025.027.025.027h0l.025.027h0l.025.027h0l.025.027.025.027.023.025h0l.023.027.023.027.023.025.023.027.023.025h0l.02.025.023.025h0l.02.025h0l.043.05.02.025.02.025.02.025h0l.02.025h0l.02.025.02.025.018.025h0l.018.023.018.025.018.023h0l.018.023.018.023h0l.018.023h0l.036.045h0l.018.02h0l.016.023h0l.018.023h0l.016.023.018.023h0l.016.023h0l.016.02.016.023h0l.016.023h0l.016.02h0L60.51,17h0l.016.02h0l.016.02v0l.016.02h0l.016.02h0l.014.02h0l.016.02h0l.014.02h0l.014.02h0l.014.02h0l-.02.023-.02.02v0l-.038.043-.025.027-.014.016h0l-.038.043h0l-.027.032-.009.011h0l-.036.043h0l-.032.038,0,.007h0l-.036.045h0l-.034.045v0h0l-.034.045v0l-.034.047h0l0,0-.029.043h0l-.034.047h0l-.007.009-.025.038v0l-.032.047v0l-.009.016-.02.034h0l-.032.047h0l-.014.023-.016.027h0l-.029.05-.018.029-.011.02h0l-.029.05-.018.034-.009.016h0l-.027.052-.023.041,0,.011h0l-.027.052h0l-.023.047,0,0-.025.052-.025.052h0l-.023.052h0l-.023.052v0l0,.007-.02.047-.02.054-.007.014-.016.041h0l-.02.054v0l-.02.054h0l-.02.054-.018.056-.018.056-.011.034-.007.023v0l-.016.056h0l-.011.041,0,.016-.016.059-.016.056-.014.059h0l-.014.054v0h0l-.014.059-.011.059v0l-.011.054-.011.059v.011l-.009.047-.009.059h0l0,.018-.007.043-.009.059-.007.061-.007.061-.007.061,0,.061,0,.061,0,.061,0,.047v.014l0,.061,0,.063,0,.061v.063a5.1,5.1,0,0,0,5.1,5.1h.063l.063,0h.016l.047,0,.063,0h.011l.052,0,.063,0,.061,0,.061,0,.061-.007.061-.007.061-.007.061-.009.034,0,.027,0,.061-.009.038-.007.023,0,.059-.011.059-.011.059-.011.059-.014.059-.014.052-.014h.007l.059-.016.059-.016.059-.016h0l.056-.018,0,0,.052-.016.056-.018.056-.02.056-.02.056-.02.056-.02.054-.023.054-.023.054-.023.054-.025.054-.025.054-.025h0l.034-.016.02-.009.052-.027.052-.027.052-.027.041-.023.011,0,.052-.029h0l.045-.025.007,0h0l.05-.029h0l.05-.029h0l.1-.063,0,0L67.2,24.9l.05-.032h0l.007,0,.041-.027v0l.047-.034h0l.011-.007.036-.027.047-.034.047-.036.045-.036h0l.02-.014.027-.023.045-.036.023-.018.023-.018h0l.045-.036h0l.027-.023.018-.014v0l.043-.038h0l.029-.025.014-.011h0l.043-.038h0l.14.052.036.014.036.011.009,0,.027.009.036.011.108.036.036.011.018.007.02.007.036.011.111.036.036.011.025.009.011,0,.036.011.038.011.029.009.007,0,.038.011.036.011.034.009,0,0,.038.011.038.011.038.011h0l.036.009.038.011.038.011h0l.032.009.038.011.038.009.009,0,.029.007.036.011.038.009.014,0,.025.007.038.009.038.009.018,0,.02,0,.038.009.038.009.023.007.016,0,.038.009.038.011.025.007.011,0,.038.009.038.009.032.009.007,0,.038.009.115.029.038.009.038.009h0l.038.009.038.009.038.009,0,0,.034.009.113.029.038.009c1.692.445,3.21.922,3.248,2.261l.05.011a96.675,96.675,0,0,1-10.974,1.848l-.576.052a98.078,98.078,0,0,1-20.367-.045l-.045,0A104.23,104.23,0,0,1,30.652,27.39l.163-.052-.106-.016c0-1.326,1.41-1.8,3.07-2.227ZM50.13,64.447c-3.608,2.358-4.73,4.215-4.717,8.11.009,2.221,2.363,4.428,4.974,6.7Zm2.774-.129c3.766,2.419,4.927,4.276,4.913,8.239-.007,2.268-2.462,4.52-5.144,6.843Z" transform="translate(-0.002 -0.005)" fill="#fff" fill-rule="evenodd"/>
    <path id="Path_1701" data-name="Path 1701" d="M26.289,7.448h.077a3.84,3.84,0,0,1,0,7.678l-.077,0h-.023l-.077,0a3.818,3.818,0,0,1-1.622-.393l-.007,0-.007,0a3.343,3.343,0,0,1-.757-.5l0,0a3.863,3.863,0,0,1-.669-.727A15.267,15.267,0,0,1,20.9,7.46h5.062l.23-.011.077,0Zm24.467,0,.312.014h5.053c-.655,3.215-1.457,5.013-2.234,6.047a3.892,3.892,0,0,1-.666.723l-.025.023-.036.032-.036.027a3.276,3.276,0,0,1-.612.4l-.009,0-.045.023a3.84,3.84,0,1,1-1.7-7.283ZM16.34,59.857a2.056,2.056,0,0,1-.023.328.706.706,0,0,1-.059.215.314.314,0,0,1-.086.113.186.186,0,0,1-.111.036H11.14a.158.158,0,0,1-.1-.036.37.37,0,0,1-.088-.113.706.706,0,0,1-.059-.215,2.169,2.169,0,0,1-.023-.328,2.728,2.728,0,0,1,.018-.334.723.723,0,0,1,.054-.217.331.331,0,0,1,.086-.122.162.162,0,0,1,.111-.038H12.8v-5.81l-1.437.793a.994.994,0,0,1-.258.095.167.167,0,0,1-.158-.043.364.364,0,0,1-.081-.2,3.658,3.658,0,0,1-.018-.407l.007-.273a.526.526,0,0,1,.034-.181.443.443,0,0,1,.075-.124.882.882,0,0,1,.131-.1l1.92-1.242A.256.256,0,0,1,13.1,51.6a.746.746,0,0,1,.133-.029c.054-.007.127-.011.219-.014l.348,0,.425.009a1.062,1.062,0,0,1,.244.036.215.215,0,0,1,.111.063.182.182,0,0,1,.025.1v7.376h1.455a.2.2,0,0,1,.115.038.336.336,0,0,1,.09.122.7.7,0,0,1,.054.217,2.726,2.726,0,0,1,.018.334ZM23.6,55.678q0,.565-.056,1.127a6.46,6.46,0,0,1-.21,1.141,5.173,5.173,0,0,1-.429,1.062,3.124,3.124,0,0,1-.7.879,3.264,3.264,0,0,1-1.048.6,4.286,4.286,0,0,1-1.459.219,4.224,4.224,0,0,1-.59-.041l-.535-.1a2.868,2.868,0,0,1-.409-.131.777.777,0,0,1-.246-.14.4.4,0,0,1-.111-.21,1.83,1.83,0,0,1-.036-.386l.009-.368a.709.709,0,0,1,.043-.212.187.187,0,0,1,.077-.1A.233.233,0,0,1,18,58.985a.941.941,0,0,1,.233.047l.37.111a4.722,4.722,0,0,0,.492.111,3.525,3.525,0,0,0,.614.05,2.1,2.1,0,0,0,.978-.208,1.807,1.807,0,0,0,.651-.56,2.44,2.44,0,0,0,.366-.811,4.5,4.5,0,0,0,.131-.974,3.592,3.592,0,0,1-.768.348,3.248,3.248,0,0,1-1.026.147,3.513,3.513,0,0,1-1.209-.185,1.92,1.92,0,0,1-.806-.54,2.2,2.2,0,0,1-.452-.854,4.2,4.2,0,0,1-.14-1.141,3.7,3.7,0,0,1,.2-1.231,2.711,2.711,0,0,1,1.572-1.611,3.75,3.75,0,0,1,1.358-.226,3.683,3.683,0,0,1,1.089.145,2.394,2.394,0,0,1,.8.413,2.327,2.327,0,0,1,.558.653,3.456,3.456,0,0,1,.35.852,5.828,5.828,0,0,1,.181,1.012l.052,1.141Zm-1.8-.251a7.748,7.748,0,0,0-.084-1.233,2.485,2.485,0,0,0-.248-.793,1.008,1.008,0,0,0-.413-.422,1.419,1.419,0,0,0-1.141-.009,1.039,1.039,0,0,0-.389.321,1.446,1.446,0,0,0-.233.49,2.44,2.44,0,0,0-.075.621,2.789,2.789,0,0,0,.066.646,1.175,1.175,0,0,0,.208.461.858.858,0,0,0,.37.273,1.522,1.522,0,0,0,.551.09,2.3,2.3,0,0,0,.755-.122,2.417,2.417,0,0,0,.633-.321ZM57.757,59.81q0,.171-.018.341a1,1,0,0,1-.052.23.252.252,0,0,1-.09.126.222.222,0,0,1-.122.038H52.342a1.175,1.175,0,0,1-.262-.029.339.339,0,0,1-.181-.106.507.507,0,0,1-.1-.23,2.123,2.123,0,0,1-.032-.393,3.139,3.139,0,0,1,.023-.391.993.993,0,0,1,.075-.289,1.46,1.46,0,0,1,.142-.248,2.913,2.913,0,0,1,.224-.267l1.545-1.656.748-.881a4.97,4.97,0,0,0,.441-.723,2.643,2.643,0,0,0,.219-.605,2.6,2.6,0,0,0,.056-.524,1.31,1.31,0,0,0-.07-.431,1.017,1.017,0,0,0-.215-.355.979.979,0,0,0-.357-.237,1.355,1.355,0,0,0-.5-.086,2.372,2.372,0,0,0-.721.1,3.411,3.411,0,0,0-.551.23l-.4.235a.515.515,0,0,1-.246.106.158.158,0,0,1-.108-.043.314.314,0,0,1-.07-.136,1.551,1.551,0,0,1-.047-.26l-.016-.4.011-.267a1.107,1.107,0,0,1,.029-.188.61.61,0,0,1,.054-.138.735.735,0,0,1,.12-.14,1.65,1.65,0,0,1,.319-.21,3.908,3.908,0,0,1,.572-.251,5.6,5.6,0,0,1,.743-.2,4.338,4.338,0,0,1,.849-.084,3.879,3.879,0,0,1,1.218.174,2.383,2.383,0,0,1,.865.49,1.965,1.965,0,0,1,.515.745,2.508,2.508,0,0,1,.167.928,4.473,4.473,0,0,1-.081.854,3.239,3.239,0,0,1-.343.906,7.72,7.72,0,0,1-.739,1.078c-.314.4-.75.843-1.263,1.371l-1.041,1.069H57.45a.219.219,0,0,1,.127.043.316.316,0,0,1,.1.126.866.866,0,0,1,.061.226,2.578,2.578,0,0,1,.02.337Zm7.3-2.243a3.7,3.7,0,0,1-.208,1.254,2.756,2.756,0,0,1-.605.994,2.824,2.824,0,0,1-.987.655,3.579,3.579,0,0,1-1.351.237,3.75,3.75,0,0,1-1.082-.142,2.44,2.44,0,0,1-.8-.407,2.169,2.169,0,0,1-.553-.642,3.637,3.637,0,0,1-.341-.856,5.879,5.879,0,0,1-.174-1.035l-.05-1.186.052-1.1a6.5,6.5,0,0,1,.2-1.123,4.9,4.9,0,0,1,.418-1.053,3.108,3.108,0,0,1,1.719-1.475,4.2,4.2,0,0,1,1.432-.219,5.062,5.062,0,0,1,.529.032l.495.077a2.417,2.417,0,0,1,.386.111.843.843,0,0,1,.21.108.276.276,0,0,1,.079.1.689.689,0,0,1,.045.12.907.907,0,0,1,.023.163l.007.235-.009.355a.926.926,0,0,1-.038.221.239.239,0,0,1-.077.113.189.189,0,0,1-.115.036.813.813,0,0,1-.215-.047l-.319-.1a3.7,3.7,0,0,0-.438-.1,3.442,3.442,0,0,0-.585-.043,2,2,0,0,0-.944.208,1.751,1.751,0,0,0-.628.563,2.382,2.382,0,0,0-.35.825,4.72,4.72,0,0,0-.117.994l.348-.194a2.6,2.6,0,0,1,.429-.165,3.953,3.953,0,0,1,.5-.115,3.8,3.8,0,0,1,.572-.045,3.276,3.276,0,0,1,1.161.185,1.988,1.988,0,0,1,.788.533,2.157,2.157,0,0,1,.452.834,3.885,3.885,0,0,1,.145,1.091Zm-1.778.174a2.846,2.846,0,0,0-.063-.619,1.145,1.145,0,0,0-.2-.447.836.836,0,0,0-.366-.276,1.469,1.469,0,0,0-.551-.095,2.146,2.146,0,0,0-.382.036,2.65,2.65,0,0,0-.366.1,2.44,2.44,0,0,0-.343.149,2.913,2.913,0,0,0-.312.183A7.976,7.976,0,0,0,60.773,58a2.4,2.4,0,0,0,.246.784.949.949,0,0,0,.407.409,1.288,1.288,0,0,0,.569.122,1.265,1.265,0,0,0,.553-.117,1.068,1.068,0,0,0,.4-.332,1.506,1.506,0,0,0,.239-.5,2.3,2.3,0,0,0,.086-.623ZM37.137,38.83l.411-.224a3.75,3.75,0,0,0-1.281-1.913c-.434-.3-.382-1.143-.8-1.715C34,32.534,31.234,31.8,27.016,33c1.263,2.34,2.794,4.459,6.106,5.108,2.273.483,2.119-1.346,2.977-.748a2.3,2.3,0,0,1,1.035,1.473Z" transform="translate(13.651 9.365)" fill="#fff" fill-rule="evenodd"/>
  </g>
</svg>
