<svg id="Component_43_8" data-name="Component 43 – 8" xmlns="http://www.w3.org/2000/svg" width="55.713" height="56.726" viewBox="0 0 55.713 56.726">
  <g id="Group_877" data-name="Group 877">
    <ellipse id="Ellipse_16" data-name="Ellipse 16" cx="27.857" cy="28.363" rx="27.857" ry="28.363" fill="#054169"/>
    <g id="Ellipse_17" data-name="Ellipse 17" transform="translate(3.039 4.052)" fill="none" stroke="#fff" stroke-width="3">
      <ellipse cx="25.324" cy="24.818" rx="25.324" ry="24.818" stroke="none"/>
      <ellipse cx="25.324" cy="24.818" rx="23.824" ry="23.318" fill="none"/>
    </g>
    <g id="accessibility" transform="translate(13.973 11.38)">
      <path id="Path_1791" data-name="Path 1791" d="M203.769,7.538A3.769,3.769,0,1,0,200,3.769,3.771,3.771,0,0,0,203.769,7.538Z" transform="translate(-189.763)" fill="#fff"/>
      <path id="Path_1792" data-name="Path 1792" d="M73.751,111.958l-.034.007-.027.007-.2.061c-1.252.37-7.329,2.08-11.616,2.08-3.978,0-9.51-1.481-11.28-1.985a5.02,5.02,0,0,0-.538-.175c-1.279-.337-2.154.962-2.154,2.147s1.057,1.736,2.12,2.14v.02l6.407,2c.653.249.828.5.915.727a6.538,6.538,0,0,1-.02,2.618l-.39,3.029L54.772,136.5l-.02.1-.013.087a1.934,1.934,0,0,0,2.154,2.14c1.319,0,1.9-.909,2.154-2.147,0,0,1.884-10.607,2.827-10.607s2.881,10.607,2.881,10.607c.256,1.238.835,2.147,2.154,2.147a1.933,1.933,0,0,0,2.154-2.147c-.013-.094-.034-.182-.054-.276l-2.187-11.758-.39-3.029a4.33,4.33,0,0,1,.02-2.483.024.024,0,0,0,.007-.013,2.4,2.4,0,0,1,1.178-.727l6.01-2.1a.662.662,0,0,0,.108-.034c1.077-.4,2.154-.962,2.154-2.147s-.875-2.49-2.154-2.154Z" transform="translate(-47.9 -104.366)" fill="#fff"/>
    </g>
  </g>
</svg>
